SplineFontDB: 3.2
FontName: HindSiliguri-SemiBold
FullName: Hind Siliguri SemiBold
FamilyName: Hind Siliguri SemiBold
Weight: Demi
Copyright: Copyright (c) 2015 Indian Type Foundry (info@indiantypefoundry.com)
Version: 1.001;PS 1.0;hotconv 1.0.86;makeotf.lib2.5.63406; ttfautohint (v1.5.33-1714) -l 8 -r 50 -G 200 -x 13 -D latn -f beng -w G -W -c -X ""
ItalicAngle: 0
UnderlinePosition: -150
UnderlineWidth: 50
Ascent: 800
Descent: 200
InvalidEm: 0
sfntRevision: 0x00010042
LayerCount: 2
Layer: 0 1 "Back" 1
Layer: 1 1 "Fore" 0
XUID: [1021 1004 64122485 6410871]
StyleMap: 0x0040
FSType: 0
OS2Version: 4
OS2_WeightWidthSlopeOnly: 0
OS2_UseTypoMetrics: 1
CreationTime: 1445051942
ModificationTime: 1678953188
PfmFamily: 17
TTFWeight: 600
TTFWidth: 5
LineGap: 0
VLineGap: 0
Panose: 2 0 0 0 0 0 0 0 0 0
OS2TypoAscent: 1116
OS2TypoAOffset: 0
OS2TypoDescent: -501
OS2TypoDOffset: 0
OS2TypoLinegap: 0
OS2WinAscent: 1116
OS2WinAOffset: 0
OS2WinDescent: 501
OS2WinDOffset: 0
HheadAscent: 1116
HheadAOffset: 0
HheadDescent: -501
HheadDOffset: 0
OS2SubXSize: 650
OS2SubYSize: 600
OS2SubXOff: 0
OS2SubYOff: 75
OS2SupXSize: 650
OS2SupYSize: 600
OS2SupXOff: 0
OS2SupYOff: 350
OS2StrikeYSize: 50
OS2StrikeYPos: 304
OS2CapHeight: 679
OS2XHeight: 507
OS2Vendor: 'ITFO'
OS2CodePages: 20000093.00000000
OS2UnicodeRanges: 00010007.00000000.00000000.00000000
Lookup: 1 0 0 "Single Substitution lookup 0" { "Single Substitution lookup 0 subtable"  } []
Lookup: 1 0 0 "Single Substitution lookup 1" { "Single Substitution lookup 1 subtable"  } []
Lookup: 1 0 0 "Single Substitution lookup 2" { "Single Substitution lookup 2 subtable"  } []
Lookup: 1 0 0 "Single Substitution lookup 3" { "Single Substitution lookup 3 subtable"  } []
Lookup: 1 0 0 "Single Substitution lookup 4" { "Single Substitution lookup 4 subtable"  } []
Lookup: 1 0 0 "Single Substitution lookup 5" { "Single Substitution lookup 5 subtable"  } []
Lookup: 1 0 0 "Single Substitution lookup 6" { "Single Substitution lookup 6 subtable"  } []

StartChar: .notdef
Encoding: 65536 -1 0
Width: 754
GlyphClass: 1
Flags: W
LayerCount: 2
Fore
SplineSet
588 0 m 1,0,-1
 166 0 l 1,1,-1
 166 701 l 1,2,-1
 588 701 l 1,3,-1
 588 0 l 1,0,-1
239 633 m 1,4,-1
 239 68 l 1,5,-1
 516 68 l 1,6,-1
 516 633 l 1,7,-1
 239 633 l 1,4,-1
EndSplineSet
EndChar

StartChar: exclam
Encoding: 33 33 4
Width: 275
GlyphClass: 2
Flags: W
LayerCount: 2
Fore
SplineSet
195 224 m 1,0,-1
 80 224 l 1,1,-1
 80 674 l 1,2,-1
 195 674 l 1,3,-1
 195 224 l 1,0,-1
215 71 m 0,4,5
 215 37 215 37 192 14.5 c 128,-1,6
 169 -8 169 -8 136 -8 c 0,7,8
 102 -8 102 -8 79.5 14.5 c 128,-1,9
 57 37 57 37 57 71 c 0,10,11
 57 104 57 104 79.5 127 c 128,-1,12
 102 150 102 150 136 150 c 0,13,14
 169 150 169 150 192 127 c 128,-1,15
 215 104 215 104 215 71 c 0,4,5
EndSplineSet
EndChar

StartChar: quotedbl
Encoding: 34 34 5
Width: 352
GlyphClass: 2
Flags: W
LayerCount: 2
Fore
SplineSet
311 429 m 1,0,-1
 208 429 l 1,1,-1
 208 681 l 1,2,-1
 311 681 l 1,3,-1
 311 429 l 1,0,-1
144 429 m 1,4,-1
 42 429 l 1,5,-1
 42 681 l 1,6,-1
 144 681 l 1,7,-1
 144 429 l 1,4,-1
EndSplineSet
EndChar

StartChar: numbersign
Encoding: 35 35 6
Width: 739
GlyphClass: 2
Flags: W
LayerCount: 2
Fore
SplineSet
478 0 m 1,0,-1
 374 0 l 1,1,-1
 408 160 l 1,2,-1
 255 160 l 1,3,-1
 221 0 l 1,4,-1
 118 0 l 1,5,-1
 152 160 l 1,6,-1
 48 160 l 1,7,-1
 48 253 l 1,8,-1
 171 253 l 1,9,-1
 206 415 l 1,10,-1
 90 415 l 1,11,-1
 90 511 l 1,12,-1
 226 511 l 1,13,-1
 260 673 l 1,14,-1
 364 673 l 1,15,-1
 330 511 l 1,16,-1
 483 511 l 1,17,-1
 517 673 l 1,18,-1
 620 673 l 1,19,-1
 586 511 l 1,20,-1
 691 511 l 1,21,-1
 691 415 l 1,22,-1
 566 415 l 1,23,-1
 531 253 l 1,24,-1
 650 253 l 1,25,-1
 650 160 l 1,26,-1
 512 160 l 1,27,-1
 478 0 l 1,0,-1
428 253 m 1,28,-1
 462 415 l 1,29,-1
 309 415 l 1,30,-1
 275 253 l 1,31,-1
 428 253 l 1,28,-1
EndSplineSet
EndChar

StartChar: dollar
Encoding: 36 36 7
Width: 510
GlyphClass: 2
Flags: W
LayerCount: 2
Fore
SplineSet
286 -115 m 1,0,-1
 185 -115 l 1,1,-1
 185 -5 l 1,2,3
 102 3 102 3 46 35 c 1,4,-1
 46 164 l 1,5,6
 132 102 132 102 234 102 c 0,7,8
 280 102 280 102 308 124.5 c 128,-1,9
 336 147 336 147 336 185 c 0,10,11
 336 196 336 196 332.5 205.5 c 128,-1,12
 329 215 329 215 324.5 222.5 c 128,-1,13
 320 230 320 230 310 238 c 128,-1,14
 300 246 300 246 293 251 c 128,-1,15
 286 256 286 256 270.5 264 c 128,-1,16
 255 272 255 272 247 275.5 c 128,-1,17
 239 279 239 279 219 287.5 c 128,-1,18
 199 296 199 296 191 300 c 0,19,20
 122 332 122 332 81.5 374 c 128,-1,21
 41 416 41 416 41 489 c 0,22,23
 41 567 41 567 93 617 c 128,-1,24
 145 667 145 667 234 677 c 1,25,-1
 234 787 l 1,26,-1
 336 787 l 1,27,-1
 336 675 l 1,28,29
 394 667 394 667 437 646 c 1,30,-1
 437 524 l 1,31,32
 362 569 362 569 277 569 c 0,33,34
 230 569 230 569 203.5 548 c 128,-1,35
 177 527 177 527 177 494 c 0,36,37
 177 476 177 476 185.5 461.5 c 128,-1,38
 194 447 194 447 214 433.5 c 128,-1,39
 234 420 234 420 249.5 412 c 128,-1,40
 265 404 265 404 296 390 c 0,41,42
 334 373 334 373 359 359 c 128,-1,43
 384 345 384 345 412.5 321.5 c 128,-1,44
 441 298 441 298 455 264.5 c 128,-1,45
 469 231 469 231 469 189 c 0,46,47
 469 111 469 111 419.5 59.5 c 128,-1,48
 370 8 370 8 286 -4 c 1,49,-1
 286 -115 l 1,0,-1
EndSplineSet
EndChar

StartChar: percent
Encoding: 37 37 8
Width: 925
GlyphClass: 2
Flags: W
LayerCount: 2
Fore
SplineSet
329 -1 m 1,0,-1
 219 -1 l 1,1,-1
 590 691 l 1,2,-1
 701 691 l 1,3,-1
 329 -1 l 1,0,-1
403 525 m 0,4,5
 403 452 403 452 350.5 399.5 c 128,-1,6
 298 347 298 347 225 347 c 0,7,8
 151 347 151 347 99 399 c 128,-1,9
 47 451 47 451 47 525 c 128,-1,10
 47 599 47 599 99 651 c 128,-1,11
 151 703 151 703 225 703 c 128,-1,12
 299 703 299 703 351 651 c 128,-1,13
 403 599 403 599 403 525 c 0,4,5
145 525 m 0,14,15
 145 493 145 493 168.5 469.5 c 128,-1,16
 192 446 192 446 225 446 c 0,17,18
 257 446 257 446 280.5 469.5 c 128,-1,19
 304 493 304 493 304 525 c 0,20,21
 304 558 304 558 280.5 581.5 c 128,-1,22
 257 605 257 605 225 605 c 0,23,24
 192 605 192 605 168.5 581.5 c 128,-1,25
 145 558 145 558 145 525 c 0,14,15
879 170 m 128,-1,27
 879 96 879 96 826.5 44 c 128,-1,28
 774 -8 774 -8 701 -8 c 0,29,30
 627 -8 627 -8 575 44 c 128,-1,31
 523 96 523 96 523 170 c 128,-1,32
 523 244 523 244 575 296 c 128,-1,33
 627 348 627 348 701 348 c 0,34,35
 774 348 774 348 826.5 296 c 128,-1,26
 879 244 879 244 879 170 c 128,-1,27
622 170 m 0,36,37
 622 138 622 138 645 114.5 c 128,-1,38
 668 91 668 91 701 91 c 0,39,40
 733 91 733 91 756.5 114.5 c 128,-1,41
 780 138 780 138 780 170 c 0,42,43
 780 203 780 203 756.5 226.5 c 128,-1,44
 733 250 733 250 701 250 c 0,45,46
 668 250 668 250 645 226.5 c 128,-1,47
 622 203 622 203 622 170 c 0,36,37
EndSplineSet
EndChar

StartChar: ampersand
Encoding: 38 38 9
Width: 727
GlyphClass: 2
Flags: W
LayerCount: 2
Fore
SplineSet
250 511 m 0,0,1
 250 464 250 464 326 386 c 1,2,3
 420 434 420 434 420 501 c 0,4,5
 420 541 420 541 396.5 564.5 c 128,-1,6
 373 588 373 588 331 588 c 0,7,8
 296 588 296 588 273 568 c 128,-1,9
 250 548 250 548 250 511 c 0,0,1
724 0 m 1,10,-1
 572 0 l 1,11,-1
 523 47 l 1,12,13
 441 -8 441 -8 328 -8 c 0,14,15
 203 -8 203 -8 129.5 46 c 128,-1,16
 56 100 56 100 56 181 c 0,17,18
 56 242 56 242 92 284 c 128,-1,19
 128 326 128 326 206 352 c 1,20,21
 127 437 127 437 127 510 c 0,22,23
 127 594 127 594 184.5 641.5 c 128,-1,24
 242 689 242 689 332 689 c 0,25,26
 428 689 428 689 485 639.5 c 128,-1,27
 542 590 542 590 542 507 c 0,28,29
 542 388 542 388 393 319 c 1,30,-1
 519 198 l 1,31,32
 540 238 540 238 541 288 c 1,33,-1
 651 288 l 1,34,35
 648 192 648 192 598 121 c 1,36,-1
 724 0 l 1,10,-1
328 94 m 0,37,38
 394 94 394 94 444 122 c 1,39,-1
 286 274 l 1,40,-1
 277 283 l 1,41,42
 224 265 224 265 201.5 241.5 c 128,-1,43
 179 218 179 218 179 185 c 0,44,45
 179 144 179 144 221 119 c 128,-1,46
 263 94 263 94 328 94 c 0,37,38
EndSplineSet
EndChar

StartChar: quotesingle
Encoding: 39 39 10
Width: 186
GlyphClass: 2
Flags: W
LayerCount: 2
Fore
SplineSet
144 429 m 1,0,-1
 42 429 l 1,1,-1
 42 681 l 1,2,-1
 144 681 l 1,3,-1
 144 429 l 1,0,-1
EndSplineSet
EndChar

StartChar: parenleft
Encoding: 40 40 11
Width: 328
GlyphClass: 2
Flags: W
LayerCount: 2
Fore
SplineSet
344 -196 m 1,0,-1
 214 -196 l 1,1,2
 52 7 52 7 52 260 c 0,3,4
 52 516 52 516 208 707 c 1,5,-1
 335 707 l 1,6,7
 260 612 260 612 219.5 490 c 128,-1,8
 179 368 179 368 179 256 c 0,9,10
 179 147 179 147 221 25.5 c 128,-1,11
 263 -96 263 -96 344 -196 c 1,0,-1
EndSplineSet
EndChar

StartChar: parenright
Encoding: 41 41 12
Width: 328
GlyphClass: 2
Flags: W
LayerCount: 2
Fore
SplineSet
113 -196 m 1,0,-1
 -16 -196 l 1,1,2
 64 -96 64 -96 106 25.5 c 128,-1,3
 148 147 148 147 148 256 c 0,4,5
 148 368 148 368 108 490 c 128,-1,6
 68 612 68 612 -7 707 c 1,7,-1
 120 707 l 1,8,9
 276 514 276 514 276 260 c 0,10,11
 276 8 276 8 113 -196 c 1,0,-1
EndSplineSet
EndChar

StartChar: asterisk
Encoding: 42 42 13
Width: 470
GlyphClass: 2
Flags: W
LayerCount: 2
Fore
SplineSet
393 338 m 1,0,-1
 314 281 l 1,1,-1
 257 359 l 2,2,3
 242 382 242 382 236 401 c 1,4,5
 230 382 230 382 214 360 c 2,6,-1
 156 281 l 1,7,-1
 77 338 l 1,8,-1
 135 417 l 2,9,10
 151 437 151 437 169 450 c 1,11,-1
 166 450 l 2,12,13
 144 450 144 450 121 458 c 2,14,-1
 28 488 l 1,15,-1
 59 581 l 1,16,-1
 151 551 l 2,17,18
 176 543 176 543 194 528 c 1,19,20
 186 550 186 550 186 577 c 2,21,-1
 186 674 l 1,22,-1
 284 674 l 1,23,-1
 284 577 l 2,24,25
 284 550 284 550 276 529 c 1,26,27
 292 542 292 542 319 551 c 2,28,-1
 412 581 l 1,29,-1
 442 488 l 1,30,-1
 350 458 l 2,31,32
 326 451 326 451 305 451 c 2,33,-1
 301 451 l 1,34,35
 321 438 321 438 336 417 c 2,36,-1
 393 338 l 1,0,-1
EndSplineSet
EndChar

StartChar: plus
Encoding: 43 43 14
Width: 576
GlyphClass: 2
Flags: W
LayerCount: 2
Fore
SplineSet
526 285 m 1,0,-1
 342 285 l 1,1,-1
 342 102 l 1,2,-1
 231 102 l 1,3,-1
 231 285 l 1,4,-1
 50 285 l 1,5,-1
 50 393 l 1,6,-1
 231 393 l 1,7,-1
 231 578 l 1,8,-1
 342 578 l 1,9,-1
 342 393 l 1,10,-1
 526 393 l 1,11,-1
 526 285 l 1,0,-1
EndSplineSet
EndChar

StartChar: comma
Encoding: 44 44 15
Width: 268
GlyphClass: 2
Flags: W
LayerCount: 2
Fore
SplineSet
97 -126 m 1,0,-1
 -7 -126 l 1,1,-1
 91 121 l 1,2,-1
 230 121 l 1,3,-1
 97 -126 l 1,0,-1
EndSplineSet
EndChar

StartChar: hyphen
Encoding: 45 45 16
Width: 353
GlyphClass: 2
Flags: W
LayerCount: 2
Fore
SplineSet
304 214 m 1,0,-1
 50 214 l 1,1,-1
 50 315 l 1,2,-1
 304 315 l 1,3,-1
 304 214 l 1,0,-1
EndSplineSet
EndChar

StartChar: period
Encoding: 46 46 17
Width: 223
GlyphClass: 2
Flags: W
LayerCount: 2
Fore
SplineSet
189 70 m 128,-1,1
 189 38 189 38 166.5 15 c 128,-1,2
 144 -8 144 -8 112 -8 c 128,-1,3
 80 -8 80 -8 57 15 c 128,-1,4
 34 38 34 38 34 70 c 128,-1,5
 34 102 34 102 57 124.5 c 128,-1,6
 80 147 80 147 112 147 c 128,-1,7
 144 147 144 147 166.5 124.5 c 128,-1,0
 189 102 189 102 189 70 c 128,-1,1
EndSplineSet
EndChar

StartChar: slash
Encoding: 47 47 18
Width: 441
GlyphClass: 2
Flags: W
LayerCount: 2
Fore
SplineSet
119 -103 m 1,0,-1
 -5 -103 l 1,1,-1
 356 707 l 1,2,-1
 481 707 l 1,3,-1
 119 -103 l 1,0,-1
EndSplineSet
EndChar

StartChar: zero
Encoding: 48 48 19
Width: 546
GlyphClass: 2
Flags: W
LayerCount: 2
Fore
SplineSet
508 330 m 0,0,1
 508 176 508 176 447.5 84 c 128,-1,2
 387 -8 387 -8 272 -8 c 0,3,4
 160 -8 160 -8 99 84 c 128,-1,5
 38 176 38 176 38 330 c 0,6,7
 38 485 38 485 99 575.5 c 128,-1,8
 160 666 160 666 272 666 c 0,9,10
 385 666 385 666 446.5 575.5 c 128,-1,11
 508 485 508 485 508 330 c 0,0,1
161 330 m 128,-1,13
 161 220 161 220 190.5 160.5 c 128,-1,14
 220 101 220 101 272 101 c 0,15,16
 326 101 326 101 355.5 160 c 128,-1,17
 385 219 385 219 385 330 c 128,-1,18
 385 441 385 441 354.5 499 c 128,-1,19
 324 557 324 557 272 557 c 0,20,21
 221 557 221 557 191 498.5 c 128,-1,12
 161 440 161 440 161 330 c 128,-1,13
EndSplineSet
EndChar

StartChar: one
Encoding: 49 49 20
Width: 358
GlyphClass: 2
Flags: W
LayerCount: 2
Fore
SplineSet
292 0 m 1,0,-1
 173 0 l 1,1,-1
 173 524 l 1,2,-1
 13 427 l 1,3,-1
 13 552 l 1,4,-1
 186 654 l 1,5,-1
 292 654 l 1,6,-1
 292 0 l 1,0,-1
EndSplineSet
EndChar

StartChar: two
Encoding: 50 50 21
Width: 498
GlyphClass: 2
Flags: W
LayerCount: 2
Fore
SplineSet
460 0 m 1,0,-1
 33 0 l 1,1,-1
 33 96 l 1,2,3
 150 179 150 179 235 273.5 c 128,-1,4
 320 368 320 368 320 444 c 0,5,6
 320 494 320 494 291 522 c 128,-1,7
 262 550 262 550 207 550 c 0,8,9
 124 550 124 550 48 488 c 1,10,-1
 48 605 l 1,11,12
 81 630 81 630 130 646 c 128,-1,13
 179 662 179 662 228 662 c 0,14,15
 324 662 324 662 384.5 609.5 c 128,-1,16
 445 557 445 557 445 462 c 0,17,18
 445 284 445 284 199 103 c 1,19,-1
 460 103 l 1,20,-1
 460 0 l 1,0,-1
EndSplineSet
EndChar

StartChar: three
Encoding: 51 51 22
Width: 476
GlyphClass: 2
Flags: W
LayerCount: 2
Fore
SplineSet
435 180 m 0,0,1
 435 98 435 98 374.5 46.5 c 128,-1,2
 314 -5 314 -5 205 -5 c 0,3,4
 104 -5 104 -5 33 28 c 1,5,-1
 33 145 l 1,6,7
 111 103 111 103 197 103 c 0,8,9
 251 103 251 103 281.5 128.5 c 128,-1,10
 312 154 312 154 312 194 c 0,11,12
 312 281 312 281 171 281 c 2,13,-1
 133 281 l 1,14,-1
 133 382 l 1,15,-1
 171 382 l 2,16,17
 224 382 224 382 260 405 c 128,-1,18
 296 428 296 428 296 470 c 0,19,20
 296 554 296 554 193 554 c 0,21,22
 125 554 125 554 57 512 c 1,23,-1
 57 625 l 1,24,25
 125 662 125 662 200 662 c 0,26,27
 303 662 303 662 361.5 612 c 128,-1,28
 420 562 420 562 420 484 c 0,29,30
 420 371 420 371 317 330 c 1,31,32
 373 316 373 316 404 277.5 c 128,-1,33
 435 239 435 239 435 180 c 0,0,1
EndSplineSet
EndChar

StartChar: four
Encoding: 52 52 23
Width: 554
GlyphClass: 2
Flags: W
LayerCount: 2
Fore
SplineSet
154 250 m 1,0,-1
 326 250 l 1,1,-1
 326 579 l 1,2,-1
 154 250 l 1,0,-1
446 0 m 1,3,-1
 326 0 l 1,4,-1
 326 147 l 1,5,-1
 35 147 l 1,6,-1
 35 250 l 1,7,-1
 253 655 l 1,8,-1
 446 655 l 1,9,-1
 446 250 l 1,10,-1
 532 250 l 1,11,-1
 532 147 l 1,12,-1
 446 147 l 1,13,-1
 446 0 l 1,3,-1
EndSplineSet
EndChar

StartChar: five
Encoding: 53 53 24
Width: 504
GlyphClass: 2
Flags: W
LayerCount: 2
Fore
SplineSet
468 213 m 0,0,1
 468 113 468 113 402 53 c 128,-1,2
 336 -7 336 -7 217 -7 c 0,3,4
 114 -7 114 -7 44 28 c 1,5,-1
 44 143 l 1,6,7
 110 103 110 103 197 103 c 0,8,9
 344 103 344 103 344 216 c 0,10,11
 344 260 344 260 312.5 285 c 128,-1,12
 281 310 281 310 223 310 c 0,13,14
 147 310 147 310 74 276 c 1,15,-1
 74 655 l 1,16,-1
 426 655 l 1,17,-1
 426 552 l 1,18,-1
 192 552 l 1,19,-1
 192 408 l 1,20,21
 221 414 221 414 248 414 c 0,22,23
 353 414 353 414 410.5 360 c 128,-1,24
 468 306 468 306 468 213 c 0,0,1
EndSplineSet
EndChar

StartChar: six
Encoding: 54 54 25
Width: 533
GlyphClass: 2
Flags: W
LayerCount: 2
Fore
SplineSet
504 212 m 0,0,1
 504 113 504 113 444 48.5 c 128,-1,2
 384 -16 384 -16 281 -16 c 0,3,4
 164 -16 164 -16 103 69.5 c 128,-1,5
 42 155 42 155 42 298 c 0,6,7
 42 464 42 464 129 566.5 c 128,-1,8
 216 669 216 669 356 669 c 0,9,10
 410 669 410 669 454 653 c 1,11,-1
 454 540 l 1,12,13
 415 560 415 560 364 560 c 0,14,15
 284 560 284 560 234 506 c 128,-1,16
 184 452 184 452 170 367 c 1,17,18
 230 422 230 422 312 422 c 0,19,20
 399 422 399 422 451.5 365 c 128,-1,21
 504 308 504 308 504 212 c 0,0,1
282 92 m 0,22,23
 327 92 327 92 353.5 124.5 c 128,-1,24
 380 157 380 157 380 211 c 0,25,26
 380 260 380 260 354 289 c 128,-1,27
 328 318 328 318 283 318 c 0,28,29
 218 318 218 318 165 263 c 1,30,31
 171 175 171 175 202.5 133.5 c 128,-1,32
 234 92 234 92 282 92 c 0,22,23
EndSplineSet
EndChar

StartChar: seven
Encoding: 55 55 26
Width: 469
GlyphClass: 2
Flags: W
LayerCount: 2
Fore
SplineSet
192 0 m 1,0,-1
 64 0 l 1,1,-1
 325 551 l 1,2,-1
 17 551 l 1,3,-1
 17 655 l 1,4,-1
 452 655 l 1,5,-1
 452 551 l 1,6,-1
 192 0 l 1,0,-1
EndSplineSet
EndChar

StartChar: eight
Encoding: 56 56 27
Width: 541
GlyphClass: 2
Flags: W
LayerCount: 2
Fore
SplineSet
500 178 m 0,0,1
 500 94 500 94 435 42.5 c 128,-1,2
 370 -9 370 -9 268 -9 c 128,-1,3
 166 -9 166 -9 103.5 40 c 128,-1,4
 41 89 41 89 41 173 c 0,5,6
 41 283 41 283 144 328 c 1,7,8
 51 375 51 375 51 473 c 0,9,10
 51 563 51 563 113.5 613.5 c 128,-1,11
 176 664 176 664 268 664 c 0,12,13
 364 664 364 664 426 616 c 128,-1,14
 488 568 488 568 488 473 c 128,-1,15
 488 378 488 378 398 331 c 1,16,17
 500 291 500 291 500 178 c 0,0,1
162 177 m 0,18,19
 162 140 162 140 189 114.5 c 128,-1,20
 216 89 216 89 269 89 c 0,21,22
 323 89 323 89 351 116 c 128,-1,23
 379 143 379 143 379 181 c 0,24,25
 379 221 379 221 350.5 248 c 128,-1,26
 322 275 322 275 269 275 c 0,27,28
 216 274 216 274 189 245.5 c 128,-1,29
 162 217 162 217 162 177 c 0,18,19
173 475 m 0,30,31
 173 430 173 430 201 406 c 128,-1,32
 229 382 229 382 271 382 c 0,33,34
 312 382 312 382 339.5 406 c 128,-1,35
 367 430 367 430 367 475 c 0,36,37
 367 515 367 515 344 540.5 c 128,-1,38
 321 566 321 566 268 566 c 0,39,40
 222 566 222 566 197.5 539.5 c 128,-1,41
 173 513 173 513 173 475 c 0,30,31
EndSplineSet
EndChar

StartChar: nine
Encoding: 57 57 28
Width: 522
GlyphClass: 2
Flags: W
LayerCount: 2
Fore
SplineSet
253 330 m 0,0,1
 322 330 322 330 364 383 c 1,2,3
 360 467 360 467 330.5 510.5 c 128,-1,4
 301 554 301 554 251 554 c 0,5,6
 205 554 205 554 177.5 524 c 128,-1,7
 150 494 150 494 150 442 c 0,8,9
 150 391 150 391 178 360.5 c 128,-1,10
 206 330 206 330 253 330 c 0,0,1
484 358 m 0,11,12
 484 179 484 179 404.5 85.5 c 128,-1,13
 325 -8 325 -8 183 -8 c 0,14,15
 118 -8 118 -8 66 11 c 1,16,-1
 66 126 l 1,17,18
 118 102 118 102 172 102 c 0,19,20
 336 102 336 102 360 280 c 1,21,22
 315 230 315 230 223 230 c 0,23,24
 138 230 138 230 82 287.5 c 128,-1,25
 26 345 26 345 26 440 c 0,26,27
 26 536 26 536 85 599.5 c 128,-1,28
 144 663 144 663 245 663 c 0,29,30
 360 663 360 663 422 579.5 c 128,-1,31
 484 496 484 496 484 358 c 0,11,12
EndSplineSet
EndChar

StartChar: colon
Encoding: 58 58 29
Width: 267
GlyphClass: 2
Flags: W
LayerCount: 2
Fore
SplineSet
210 404 m 128,-1,1
 210 372 210 372 187.5 349.5 c 128,-1,2
 165 327 165 327 133 327 c 128,-1,3
 101 327 101 327 79 349.5 c 128,-1,4
 57 372 57 372 57 404 c 128,-1,5
 57 436 57 436 79 458.5 c 128,-1,6
 101 481 101 481 133 481 c 128,-1,7
 165 481 165 481 187.5 458.5 c 128,-1,0
 210 436 210 436 210 404 c 128,-1,1
210 76 m 128,-1,9
 210 44 210 44 187.5 22 c 128,-1,10
 165 0 165 0 133 0 c 128,-1,11
 101 0 101 0 79 22 c 128,-1,12
 57 44 57 44 57 76 c 128,-1,13
 57 108 57 108 79 130.5 c 128,-1,14
 101 153 101 153 133 153 c 128,-1,15
 165 153 165 153 187.5 130.5 c 128,-1,8
 210 108 210 108 210 76 c 128,-1,9
EndSplineSet
EndChar

StartChar: semicolon
Encoding: 59 59 30
Width: 268
GlyphClass: 2
Flags: W
LayerCount: 2
Fore
SplineSet
97 -126 m 1,0,-1
 -7 -126 l 1,1,-1
 91 121 l 1,2,-1
 230 121 l 1,3,-1
 97 -126 l 1,0,-1
226 404 m 128,-1,5
 226 372 226 372 203 349.5 c 128,-1,6
 180 327 180 327 148 327 c 128,-1,7
 116 327 116 327 94 349.5 c 128,-1,8
 72 372 72 372 72 404 c 128,-1,9
 72 436 72 436 94 458.5 c 128,-1,10
 116 481 116 481 148 481 c 128,-1,11
 180 481 180 481 203 458.5 c 128,-1,4
 226 436 226 436 226 404 c 128,-1,5
EndSplineSet
EndChar

StartChar: less
Encoding: 60 60 31
Width: 565
GlyphClass: 2
Flags: W
LayerCount: 2
Fore
SplineSet
519 221 m 1,0,-1
 519 101 l 1,1,-1
 50 283 l 1,2,-1
 50 398 l 1,3,-1
 519 580 l 1,4,-1
 519 459 l 1,5,-1
 171 341 l 1,6,-1
 519 221 l 1,0,-1
EndSplineSet
EndChar

StartChar: equal
Encoding: 61 61 32
Width: 576
GlyphClass: 2
Flags: W
LayerCount: 2
Fore
SplineSet
526 399 m 1,0,-1
 50 399 l 1,1,-1
 50 499 l 1,2,-1
 526 499 l 1,3,-1
 526 399 l 1,0,-1
526 181 m 1,4,-1
 50 181 l 1,5,-1
 50 282 l 1,6,-1
 526 282 l 1,7,-1
 526 181 l 1,4,-1
EndSplineSet
EndChar

StartChar: greater
Encoding: 62 62 33
Width: 565
GlyphClass: 2
Flags: W
LayerCount: 2
Fore
SplineSet
516 283 m 1,0,-1
 47 101 l 1,1,-1
 47 221 l 1,2,-1
 394 341 l 1,3,-1
 47 459 l 1,4,-1
 47 580 l 1,5,-1
 516 398 l 1,6,-1
 516 283 l 1,0,-1
EndSplineSet
EndChar

StartChar: question
Encoding: 63 63 34
Width: 456
GlyphClass: 2
Flags: W
LayerCount: 2
Fore
SplineSet
245 224 m 1,0,-1
 134 224 l 1,1,-1
 131 381 l 1,2,3
 300 381 300 381 300 487 c 0,4,5
 300 529 300 529 274 554 c 128,-1,6
 248 579 248 579 197 579 c 0,7,8
 127 579 127 579 58 534 c 1,9,-1
 58 649 l 1,10,11
 121 682 121 682 213 682 c 0,12,13
 307 682 307 682 365 633 c 128,-1,14
 423 584 423 584 423 499 c 0,15,16
 423 454 423 454 405 418 c 128,-1,17
 387 382 387 382 359.5 361 c 128,-1,18
 332 340 332 340 303 329 c 128,-1,19
 274 318 274 318 247 316 c 1,20,-1
 245 224 l 1,0,-1
267 71 m 0,21,22
 267 37 267 37 244 14.5 c 128,-1,23
 221 -8 221 -8 188 -8 c 0,24,25
 154 -8 154 -8 131.5 14.5 c 128,-1,26
 109 37 109 37 109 71 c 0,27,28
 109 104 109 104 131.5 127 c 128,-1,29
 154 150 154 150 188 150 c 0,30,31
 221 150 221 150 244 127 c 128,-1,32
 267 104 267 104 267 71 c 0,21,22
EndSplineSet
EndChar

StartChar: at
Encoding: 64 64 35
Width: 950
GlyphClass: 2
Flags: W
LayerCount: 2
Fore
SplineSet
636 -159 m 1,0,1
 555 -198 555 -198 448 -198 c 0,2,3
 262 -198 262 -198 155 -84 c 128,-1,4
 48 30 48 30 48 199 c 0,5,6
 48 324 48 324 110.5 428 c 128,-1,7
 173 532 173 532 278.5 590.5 c 128,-1,8
 384 649 384 649 509 649 c 0,9,10
 675 649 675 649 792.5 545.5 c 128,-1,11
 910 442 910 442 910 272 c 0,12,13
 910 155 910 155 852.5 81.5 c 128,-1,14
 795 8 795 8 717 8 c 0,15,16
 609 8 609 8 578 109 c 1,17,18
 532 8 532 8 427 8 c 0,19,20
 349 8 349 8 303.5 65.5 c 128,-1,21
 258 123 258 123 258 209 c 0,22,23
 258 308 258 308 317 370.5 c 128,-1,24
 376 433 376 433 459 433 c 0,25,26
 539 433 539 433 578 364 c 1,27,28
 580 386 580 386 582 430 c 1,29,-1
 680 430 l 1,30,-1
 673 365 l 1,31,32
 664 230 664 230 664 208 c 0,33,34
 664 102 664 102 721 102 c 0,35,36
 759 102 759 102 784 146 c 128,-1,37
 809 190 809 190 809 264 c 0,38,39
 809 404 809 404 723.5 477 c 128,-1,40
 638 550 638 550 504 550 c 0,41,42
 355 550 355 550 255.5 445.5 c 128,-1,43
 156 341 156 341 156 196 c 0,44,45
 156 58 156 58 240.5 -20.5 c 128,-1,46
 325 -99 325 -99 448 -99 c 0,47,48
 550 -99 550 -99 640 -54 c 1,49,-1
 636 -159 l 1,0,1
458 97 m 0,50,51
 494 97 494 97 525.5 124 c 128,-1,52
 557 151 557 151 569 200 c 0,53,54
 570 207 570 207 570 221 c 128,-1,55
 570 235 570 235 571 242 c 0,56,57
 564 292 564 292 539 318 c 128,-1,58
 514 344 514 344 475 344 c 0,59,60
 429 344 429 344 397.5 305.5 c 128,-1,61
 366 267 366 267 366 203 c 0,62,63
 366 155 366 155 392.5 126 c 128,-1,64
 419 97 419 97 458 97 c 0,50,51
EndSplineSet
EndChar

StartChar: A
Encoding: 65 65 36
Width: 674
GlyphClass: 2
Flags: W
LayerCount: 2
Fore
SplineSet
250 285 m 2,0,-1
 241 256 l 1,1,-1
 431 256 l 1,2,-1
 422 286 l 2,3,4
 388 394 388 394 366.5 467.5 c 128,-1,5
 345 541 345 541 340 560 c 2,6,-1
 336 580 l 1,7,8
 327 530 327 530 250 285 c 2,0,-1
160 0 m 1,9,-1
 28 0 l 1,10,-1
 256 674 l 1,11,-1
 419 674 l 1,12,-1
 647 0 l 1,13,-1
 511 0 l 1,14,-1
 463 153 l 1,15,-1
 208 153 l 1,16,-1
 160 0 l 1,9,-1
EndSplineSet
EndChar

StartChar: B
Encoding: 66 66 37
Width: 592
GlyphClass: 2
Flags: W
LayerCount: 2
Fore
SplineSet
343 0 m 2,0,-1
 70 0 l 1,1,-1
 70 674 l 1,2,-1
 309 674 l 2,3,4
 417 674 417 674 477 623 c 128,-1,5
 537 572 537 572 537 491 c 0,6,7
 537 436 537 436 507 395.5 c 128,-1,8
 477 355 477 355 430 342 c 1,9,10
 484 329 484 329 519 289.5 c 128,-1,11
 554 250 554 250 554 182 c 0,12,13
 554 102 554 102 498 51 c 128,-1,14
 442 0 442 0 343 0 c 2,0,-1
293 571 m 2,15,-1
 196 571 l 1,16,-1
 196 390 l 1,17,-1
 272 390 l 2,18,19
 340 390 340 390 374 417 c 128,-1,20
 408 444 408 444 408 486 c 0,21,22
 408 525 408 525 379.5 548 c 128,-1,23
 351 571 351 571 293 571 c 2,15,-1
299 289 m 2,24,-1
 196 289 l 1,25,-1
 196 103 l 1,26,-1
 304 103 l 2,27,28
 425 103 425 103 425 195 c 0,29,30
 425 289 425 289 299 289 c 2,24,-1
EndSplineSet
EndChar

StartChar: C
Encoding: 67 67 38
Width: 609
GlyphClass: 2
Flags: W
LayerCount: 2
Fore
SplineSet
562 32 m 1,0,1
 500 -8 500 -8 388 -8 c 0,2,3
 238 -8 238 -8 140.5 86.5 c 128,-1,4
 43 181 43 181 43 337 c 0,5,6
 43 490 43 490 139.5 586.5 c 128,-1,7
 236 683 236 683 388 683 c 0,8,9
 499 683 499 683 561 646 c 1,10,-1
 561 523 l 1,11,12
 485 567 485 567 393 567 c 128,-1,13
 301 567 301 567 239.5 504.5 c 128,-1,14
 178 442 178 442 178 337 c 128,-1,15
 178 232 178 232 239.5 170 c 128,-1,16
 301 108 301 108 400 108 c 0,17,18
 495 108 495 108 562 158 c 1,19,-1
 562 32 l 1,0,1
EndSplineSet
EndChar

StartChar: D
Encoding: 68 68 39
Width: 675
GlyphClass: 2
Flags: W
LayerCount: 2
Fore
SplineSet
290 0 m 2,0,-1
 70 0 l 1,1,-1
 70 674 l 1,2,-1
 290 674 l 2,3,4
 441 674 441 674 537 581 c 128,-1,5
 633 488 633 488 633 346 c 0,6,7
 633 191 633 191 540 95.5 c 128,-1,8
 447 0 447 0 290 0 c 2,0,-1
286 568 m 2,9,-1
 199 568 l 1,10,-1
 199 105 l 1,11,-1
 288 105 l 2,12,13
 394 105 394 105 449 170.5 c 128,-1,14
 504 236 504 236 504 346 c 0,15,16
 504 443 504 443 445.5 505.5 c 128,-1,17
 387 568 387 568 286 568 c 2,9,-1
EndSplineSet
EndChar

StartChar: E
Encoding: 69 69 40
Width: 528
GlyphClass: 2
Flags: W
LayerCount: 2
Fore
SplineSet
472 0 m 1,0,-1
 70 0 l 1,1,-1
 70 674 l 1,2,-1
 468 674 l 1,3,-1
 468 571 l 1,4,-1
 197 571 l 1,5,-1
 197 388 l 1,6,-1
 438 388 l 1,7,-1
 438 286 l 1,8,-1
 197 286 l 1,9,-1
 197 103 l 1,10,-1
 472 103 l 1,11,-1
 472 0 l 1,0,-1
EndSplineSet
EndChar

StartChar: F
Encoding: 70 70 41
Width: 499
GlyphClass: 2
Flags: W
LayerCount: 2
Fore
SplineSet
431 269 m 1,0,-1
 197 269 l 1,1,-1
 197 0 l 1,2,-1
 70 0 l 1,3,-1
 70 674 l 1,4,-1
 465 674 l 1,5,-1
 465 571 l 1,6,-1
 197 571 l 1,7,-1
 197 372 l 1,8,-1
 431 372 l 1,9,-1
 431 269 l 1,0,-1
EndSplineSet
EndChar

StartChar: G
Encoding: 71 71 42
Width: 693
GlyphClass: 2
Flags: W
LayerCount: 2
Fore
SplineSet
630 58 m 1,0,1
 538 -8 538 -8 400 -8 c 0,2,3
 240 -8 240 -8 141.5 85 c 128,-1,4
 43 178 43 178 43 338 c 0,5,6
 43 494 43 494 144.5 590 c 128,-1,7
 246 686 246 686 401 686 c 0,8,9
 516 686 516 686 598 643 c 1,10,-1
 598 514 l 1,11,12
 506 569 506 569 403 569 c 0,13,14
 302 569 302 569 240 506 c 128,-1,15
 178 443 178 443 178 338 c 0,16,17
 178 231 178 231 238.5 169.5 c 128,-1,18
 299 108 299 108 405 108 c 0,19,20
 457 108 457 108 506 126 c 1,21,-1
 506 285 l 1,22,-1
 382 285 l 1,23,-1
 382 393 l 1,24,-1
 630 393 l 1,25,-1
 630 69 l 1,26,-1
 629 69 l 1,27,-1
 630 58 l 1,0,1
EndSplineSet
EndChar

StartChar: H
Encoding: 72 72 43
Width: 670
GlyphClass: 2
Flags: W
LayerCount: 2
Fore
SplineSet
600 0 m 1,0,-1
 473 0 l 1,1,-1
 473 283 l 1,2,-1
 196 283 l 1,3,-1
 196 0 l 1,4,-1
 70 0 l 1,5,-1
 70 674 l 1,6,-1
 196 674 l 1,7,-1
 196 392 l 1,8,-1
 473 392 l 1,9,-1
 473 674 l 1,10,-1
 600 674 l 1,11,-1
 600 0 l 1,0,-1
EndSplineSet
EndChar

StartChar: I
Encoding: 73 73 44
Width: 282
GlyphClass: 2
Flags: W
LayerCount: 2
Fore
SplineSet
204 0 m 1,0,-1
 78 0 l 1,1,-1
 78 674 l 1,2,-1
 204 674 l 1,3,-1
 204 0 l 1,0,-1
EndSplineSet
EndChar

StartChar: J
Encoding: 74 74 45
Width: 379
GlyphClass: 2
Flags: W
LayerCount: 2
Fore
SplineSet
313 192 m 2,0,1
 313 97 313 97 265 48 c 128,-1,2
 217 -1 217 -1 133 -1 c 0,3,4
 70 -1 70 -1 30 20 c 1,5,-1
 30 134 l 1,6,7
 68 110 68 110 110 110 c 0,8,9
 187 110 187 110 187 192 c 2,10,-1
 187 673 l 1,11,-1
 313 673 l 1,12,-1
 313 192 l 2,0,1
EndSplineSet
EndChar

StartChar: K
Encoding: 75 75 46
Width: 628
GlyphClass: 2
Flags: W
LayerCount: 2
Fore
SplineSet
607 0 m 1,0,-1
 448 0 l 1,1,-1
 206 334 l 1,2,-1
 439 674 l 1,3,-1
 590 674 l 1,4,-1
 356 336 l 1,5,-1
 607 0 l 1,0,-1
196 0 m 1,6,-1
 70 0 l 1,7,-1
 70 674 l 1,8,-1
 196 674 l 1,9,-1
 196 0 l 1,6,-1
EndSplineSet
EndChar

StartChar: L
Encoding: 76 76 47
Width: 484
GlyphClass: 2
Flags: W
LayerCount: 2
Fore
SplineSet
459 0 m 1,0,-1
 70 0 l 1,1,-1
 70 674 l 1,2,-1
 196 674 l 1,3,-1
 196 112 l 1,4,-1
 459 112 l 1,5,-1
 459 0 l 1,0,-1
EndSplineSet
EndChar

StartChar: M
Encoding: 77 77 48
Width: 880
GlyphClass: 2
Flags: W
LayerCount: 2
Fore
SplineSet
184 0 m 1,0,-1
 58 0 l 1,1,-1
 112 674 l 1,2,-1
 256 674 l 1,3,-1
 348 429 l 2,4,5
 372 367 372 367 393 305.5 c 128,-1,6
 414 244 414 244 423 214 c 2,7,-1
 432 183 l 1,8,9
 463 287 463 287 518 429 c 2,10,-1
 612 674 l 1,11,-1
 756 674 l 1,12,-1
 822 0 l 1,13,-1
 696 0 l 1,14,-1
 672 263 l 1,15,-1
 654 499 l 1,16,17
 618 396 618 396 568 263 c 2,18,-1
 474 10 l 1,19,-1
 388 10 l 1,20,-1
 296 263 l 1,21,-1
 217 496 l 1,22,23
 217 447 217 447 204 263 c 2,24,-1
 184 0 l 1,0,-1
EndSplineSet
EndChar

StartChar: N
Encoding: 78 78 49
Width: 688
GlyphClass: 2
Flags: W
LayerCount: 2
Fore
SplineSet
196 0 m 1,0,-1
 70 0 l 1,1,-1
 70 674 l 1,2,-1
 213 674 l 1,3,-1
 375 393 l 2,4,5
 415 324 415 324 446.5 264.5 c 128,-1,6
 478 205 478 205 489 180 c 2,7,-1
 500 155 l 1,8,9
 492 238 492 238 492 393 c 2,10,-1
 492 674 l 1,11,-1
 619 674 l 1,12,-1
 619 0 l 1,13,-1
 475 0 l 1,14,-1
 311 280 l 2,15,16
 272 346 272 346 240.5 406.5 c 128,-1,17
 209 467 209 467 197 494 c 2,18,-1
 185 522 l 1,19,20
 196 427 196 427 196 281 c 2,21,-1
 196 0 l 1,0,-1
EndSplineSet
EndChar

StartChar: O
Encoding: 79 79 50
Width: 723
GlyphClass: 2
Flags: W
LayerCount: 2
Fore
SplineSet
680 339 m 0,0,1
 680 183 680 183 593.5 88 c 128,-1,2
 507 -7 507 -7 362 -7 c 128,-1,3
 217 -7 217 -7 130 88 c 128,-1,4
 43 183 43 183 43 339 c 0,5,6
 43 496 43 496 129.5 591 c 128,-1,7
 216 686 216 686 361 686 c 0,8,9
 508 686 508 686 594 591.5 c 128,-1,10
 680 497 680 497 680 339 c 0,0,1
178 339 m 0,11,12
 178 233 178 233 228 171 c 128,-1,13
 278 109 278 109 362 109 c 0,14,15
 447 109 447 109 496 170.5 c 128,-1,16
 545 232 545 232 545 339 c 128,-1,17
 545 446 545 446 496 508 c 128,-1,18
 447 570 447 570 361 570 c 0,19,20
 276 570 276 570 227 508 c 128,-1,21
 178 446 178 446 178 339 c 0,11,12
EndSplineSet
EndChar

StartChar: P
Encoding: 80 80 51
Width: 556
GlyphClass: 2
Flags: W
LayerCount: 2
Fore
SplineSet
284 229 m 2,0,-1
 196 229 l 1,1,-1
 196 0 l 1,2,-1
 70 0 l 1,3,-1
 70 674 l 1,4,-1
 281 674 l 2,5,6
 395 674 395 674 463.5 612 c 128,-1,7
 532 550 532 550 532 453 c 0,8,9
 532 350 532 350 461.5 289.5 c 128,-1,10
 391 229 391 229 284 229 c 2,0,-1
270 571 m 2,11,-1
 196 571 l 1,12,-1
 196 331 l 1,13,-1
 267 331 l 2,14,15
 336 331 336 331 370 364 c 128,-1,16
 404 397 404 397 404 453 c 0,17,18
 404 508 404 508 370 539.5 c 128,-1,19
 336 571 336 571 270 571 c 2,11,-1
EndSplineSet
EndChar

StartChar: Q
Encoding: 81 81 52
Width: 729
GlyphClass: 2
Flags: W
LayerCount: 2
Fore
SplineSet
680 339 m 0,0,1
 680 229 680 229 636 148 c 128,-1,2
 592 67 592 67 512 27 c 1,3,-1
 717 -92 l 1,4,-1
 575 -147 l 1,5,-1
 377 -7 l 1,6,-1
 362 -7 l 2,7,8
 217 -7 217 -7 130 88 c 128,-1,9
 43 183 43 183 43 339 c 0,10,11
 43 496 43 496 129.5 591 c 128,-1,12
 216 686 216 686 361 686 c 0,13,14
 508 686 508 686 594 591.5 c 128,-1,15
 680 497 680 497 680 339 c 0,0,1
178 339 m 0,16,17
 178 233 178 233 228 171 c 128,-1,18
 278 109 278 109 362 109 c 0,19,20
 447 109 447 109 496 170.5 c 128,-1,21
 545 232 545 232 545 339 c 128,-1,22
 545 446 545 446 496 508 c 128,-1,23
 447 570 447 570 361 570 c 0,24,25
 276 570 276 570 227 508 c 128,-1,26
 178 446 178 446 178 339 c 0,16,17
EndSplineSet
EndChar

StartChar: R
Encoding: 82 82 53
Width: 589
GlyphClass: 2
Flags: W
LayerCount: 2
Fore
SplineSet
278 570 m 2,0,-1
 196 570 l 1,1,-1
 196 350 l 1,2,-1
 280 350 l 2,3,4
 338 350 338 350 367 379.5 c 128,-1,5
 396 409 396 409 396 462 c 0,6,7
 396 514 396 514 365.5 542 c 128,-1,8
 335 570 335 570 278 570 c 2,0,-1
196 0 m 1,9,-1
 70 0 l 1,10,-1
 70 674 l 1,11,-1
 278 674 l 2,12,13
 393 674 393 674 458.5 616 c 128,-1,14
 524 558 524 558 524 461 c 0,15,16
 523 389 523 389 489 339.5 c 128,-1,17
 455 290 455 290 396 266 c 1,18,-1
 569 0 l 1,19,-1
 418 0 l 1,20,-1
 265 246 l 1,21,-1
 196 246 l 1,22,-1
 196 0 l 1,9,-1
EndSplineSet
EndChar

StartChar: S
Encoding: 83 83 54
Width: 518
GlyphClass: 2
Flags: W
LayerCount: 2
Fore
SplineSet
477 189 m 0,0,1
 477 99 477 99 412.5 45.5 c 128,-1,2
 348 -8 348 -8 243 -8 c 0,3,4
 129 -8 129 -8 54 35 c 1,5,-1
 54 164 l 1,6,7
 140 102 140 102 242 102 c 0,8,9
 288 102 288 102 316 124.5 c 128,-1,10
 344 147 344 147 344 185 c 0,11,12
 344 203 344 203 337 217 c 128,-1,13
 330 231 330 231 308.5 245 c 128,-1,14
 287 259 287 259 275.5 265 c 128,-1,15
 264 271 264 271 228 287 c 0,16,17
 218 292 218 292 213 294 c 0,18,19
 176 311 176 311 153 324.5 c 128,-1,20
 130 338 130 338 103 361 c 128,-1,21
 76 384 76 384 62.5 416 c 128,-1,22
 49 448 49 448 49 489 c 0,23,24
 49 575 49 575 112.5 627 c 128,-1,25
 176 679 176 679 281 679 c 0,26,27
 376 679 376 679 445 646 c 1,28,-1
 445 524 l 1,29,30
 370 569 370 569 285 569 c 0,31,32
 238 569 238 569 211.5 548 c 128,-1,33
 185 527 185 527 185 494 c 128,-1,34
 185 461 185 461 213.5 439.5 c 128,-1,35
 242 418 242 418 299 392 c 0,36,37
 339 374 339 374 364 360.5 c 128,-1,38
 389 347 389 347 418.5 323 c 128,-1,39
 448 299 448 299 462.5 265.5 c 128,-1,40
 477 232 477 232 477 189 c 0,0,1
EndSplineSet
EndChar

StartChar: T
Encoding: 84 84 55
Width: 520
GlyphClass: 2
Flags: W
LayerCount: 2
Fore
SplineSet
495 570 m 1,0,-1
 324 570 l 1,1,-1
 324 0 l 1,2,-1
 197 0 l 1,3,-1
 197 570 l 1,4,-1
 26 570 l 1,5,-1
 26 674 l 1,6,-1
 495 674 l 1,7,-1
 495 570 l 1,0,-1
EndSplineSet
EndChar

StartChar: U
Encoding: 85 85 56
Width: 659
GlyphClass: 2
Flags: W
LayerCount: 2
Fore
SplineSet
593 259 m 2,0,1
 593 128 593 128 522.5 59.5 c 128,-1,2
 452 -9 452 -9 329 -9 c 0,3,4
 209 -9 209 -9 137.5 58.5 c 128,-1,5
 66 126 66 126 66 252 c 2,6,-1
 66 674 l 1,7,-1
 192 674 l 1,8,-1
 192 253 l 2,9,10
 192 176 192 176 230 141.5 c 128,-1,11
 268 107 268 107 329 107 c 0,12,13
 467 107 467 107 467 258 c 2,14,-1
 467 674 l 1,15,-1
 593 674 l 1,16,-1
 593 259 l 2,0,1
EndSplineSet
EndChar

StartChar: V
Encoding: 86 86 57
Width: 651
GlyphClass: 2
Flags: W
LayerCount: 2
Fore
SplineSet
395 0 m 1,0,-1
 251 0 l 1,1,-1
 25 674 l 1,2,-1
 162 674 l 1,3,-1
 245 406 l 2,4,5
 270 326 270 326 290 253 c 128,-1,6
 310 180 310 180 318 147 c 2,7,-1
 325 114 l 1,8,9
 349 226 349 226 406 406 c 2,10,-1
 490 674 l 1,11,-1
 625 674 l 1,12,-1
 395 0 l 1,0,-1
EndSplineSet
EndChar

StartChar: W
Encoding: 87 87 58
Width: 958
GlyphClass: 2
Flags: W
LayerCount: 2
Fore
SplineSet
350 0 m 1,0,-1
 205 0 l 1,1,-1
 25 674 l 1,2,-1
 158 674 l 1,3,-1
 221 425 l 2,4,5
 237 358 237 358 253 286 c 128,-1,6
 269 214 269 214 277 176 c 2,7,-1
 285 137 l 1,8,9
 317 263 317 263 363 425 c 2,10,-1
 431 664 l 1,11,-1
 533 664 l 1,12,-1
 602 425 l 1,13,-1
 682 135 l 1,14,15
 707 274 707 274 744 426 c 2,16,-1
 805 674 l 1,17,-1
 933 674 l 1,18,-1
 761 0 l 1,19,-1
 615 0 l 1,20,-1
 554 213 l 2,21,22
 529 298 529 298 511.5 363 c 128,-1,23
 494 428 494 428 488 450 c 2,24,-1
 483 473 l 1,25,26
 469 403 469 403 413 213 c 2,27,-1
 350 0 l 1,0,-1
EndSplineSet
EndChar

StartChar: X
Encoding: 88 88 59
Width: 644
GlyphClass: 2
Flags: W
LayerCount: 2
Fore
SplineSet
183 0 m 1,0,-1
 32 0 l 1,1,-1
 246 341 l 1,2,-1
 42 674 l 1,3,-1
 189 674 l 1,4,-1
 318 453 l 1,5,-1
 443 674 l 1,6,-1
 596 674 l 1,7,-1
 392 341 l 1,8,-1
 613 0 l 1,9,-1
 463 0 l 1,10,-1
 320 233 l 1,11,-1
 183 0 l 1,0,-1
EndSplineSet
EndChar

StartChar: Y
Encoding: 89 89 60
Width: 624
GlyphClass: 2
Flags: W
LayerCount: 2
Fore
SplineSet
374 0 m 1,0,-1
 248 0 l 1,1,-1
 248 246 l 1,2,-1
 18 674 l 1,3,-1
 165 674 l 1,4,-1
 210 576 l 2,5,6
 249 491 249 491 274 433.5 c 128,-1,7
 299 376 299 376 304 362 c 2,8,-1
 310 347 l 1,9,10
 319 384 319 384 413 576 c 2,11,-1
 459 674 l 1,12,-1
 606 674 l 1,13,-1
 374 250 l 1,14,-1
 374 0 l 1,0,-1
EndSplineSet
EndChar

StartChar: Z
Encoding: 90 90 61
Width: 601
GlyphClass: 2
Flags: W
LayerCount: 2
Fore
SplineSet
544 0 m 1,0,-1
 57 0 l 1,1,-1
 57 96 l 1,2,-1
 379 571 l 1,3,-1
 62 571 l 1,4,-1
 62 674 l 1,5,-1
 531 674 l 1,6,-1
 531 581 l 1,7,-1
 208 103 l 1,8,-1
 544 103 l 1,9,-1
 544 0 l 1,0,-1
EndSplineSet
EndChar

StartChar: bracketleft
Encoding: 91 91 62
Width: 343
GlyphClass: 2
Flags: W
LayerCount: 2
Fore
SplineSet
332 -191 m 1,0,-1
 70 -191 l 1,1,-1
 70 707 l 1,2,-1
 332 707 l 1,3,-1
 332 602 l 1,4,-1
 185 602 l 1,5,-1
 185 -85 l 1,6,-1
 332 -85 l 1,7,-1
 332 -191 l 1,0,-1
EndSplineSet
EndChar

StartChar: backslash
Encoding: 92 92 63
Width: 441
GlyphClass: 2
Flags: W
LayerCount: 2
Fore
SplineSet
446 -103 m 1,0,-1
 321 -103 l 1,1,-1
 -41 707 l 1,2,-1
 85 707 l 1,3,-1
 446 -103 l 1,0,-1
EndSplineSet
EndChar

StartChar: bracketright
Encoding: 93 93 64
Width: 343
GlyphClass: 2
Flags: W
LayerCount: 2
Fore
SplineSet
273 -191 m 1,0,-1
 11 -191 l 1,1,-1
 11 -85 l 1,2,-1
 158 -85 l 1,3,-1
 158 602 l 1,4,-1
 11 602 l 1,5,-1
 11 707 l 1,6,-1
 273 707 l 1,7,-1
 273 -191 l 1,0,-1
EndSplineSet
EndChar

StartChar: asciicircum
Encoding: 94 94 65
Width: 480
GlyphClass: 2
Flags: W
LayerCount: 2
Fore
SplineSet
151 332 m 1,0,-1
 38 332 l 1,1,-1
 185 594 l 1,2,-1
 296 594 l 1,3,-1
 442 332 l 1,4,-1
 328 332 l 1,5,-1
 240 501 l 1,6,-1
 151 332 l 1,0,-1
EndSplineSet
EndChar

StartChar: underscore
Encoding: 95 95 66
Width: 552
GlyphClass: 2
Flags: W
LayerCount: 2
Fore
SplineSet
529 -141 m 1,0,-1
 23 -141 l 1,1,-1
 23 -40 l 1,2,-1
 529 -40 l 1,3,-1
 529 -141 l 1,0,-1
EndSplineSet
EndChar

StartChar: grave
Encoding: 96 96 67
Width: 470
GlyphClass: 2
Flags: W
LayerCount: 2
Fore
SplineSet
344 629 m 1,0,-1
 243 629 l 1,1,-1
 127 798 l 1,2,-1
 253 798 l 1,3,-1
 344 629 l 1,0,-1
EndSplineSet
EndChar

StartChar: a
Encoding: 97 97 68
Width: 507
GlyphClass: 2
Flags: W
LayerCount: 2
Fore
SplineSet
239 85 m 0,0,1
 279 85 279 85 301.5 108.5 c 128,-1,2
 324 132 324 132 324 170 c 2,3,-1
 324 218 l 1,4,-1
 262 218 l 2,5,6
 215 218 215 218 190 198.5 c 128,-1,7
 165 179 165 179 165 149 c 0,8,9
 165 85 165 85 239 85 c 0,0,1
329 61 m 1,10,11
 294 -4 294 -4 197 -4 c 0,12,13
 125 -4 125 -4 82.5 38 c 128,-1,14
 40 80 40 80 40 144 c 0,15,16
 40 216 40 216 94 257 c 128,-1,17
 148 298 148 298 250 298 c 2,18,-1
 324 298 l 1,19,-1
 324 329 l 2,20,21
 324 371 324 371 302 393 c 128,-1,22
 280 415 280 415 227 415 c 0,23,24
 146 415 146 415 78 370 c 1,25,-1
 78 481 l 1,26,27
 135 516 135 516 242 516 c 0,28,29
 448 516 448 516 448 324 c 2,30,-1
 448 0 l 1,31,-1
 329 0 l 1,32,-1
 329 61 l 1,10,11
EndSplineSet
EndChar

StartChar: b
Encoding: 98 98 69
Width: 595
GlyphClass: 2
Flags: W
LayerCount: 2
Fore
SplineSet
187 0 m 1,0,-1
 66 0 l 1,1,-1
 66 707 l 1,2,-1
 187 707 l 1,3,-1
 187 430 l 1,4,5
 240 514 240 514 339 514 c 0,6,7
 434 514 434 514 495.5 443.5 c 128,-1,8
 557 373 557 373 557 253 c 0,9,10
 557 145 557 145 498.5 69 c 128,-1,11
 440 -7 440 -7 340 -7 c 128,-1,12
 240 -7 240 -7 187 78 c 1,13,-1
 187 0 l 1,0,-1
187 258 m 0,14,15
 187 179 187 179 223 137.5 c 128,-1,16
 259 96 259 96 313 96 c 0,17,18
 365 96 365 96 400 139 c 128,-1,19
 435 182 435 182 435 251 c 0,20,21
 435 327 435 327 399.5 369.5 c 128,-1,22
 364 412 364 412 312 412 c 0,23,24
 263 412 263 412 225 373.5 c 128,-1,25
 187 335 187 335 187 258 c 0,14,15
EndSplineSet
EndChar

StartChar: c
Encoding: 99 99 70
Width: 470
GlyphClass: 2
Flags: W
LayerCount: 2
Fore
SplineSet
432 22 m 1,0,1
 379 -9 379 -9 300 -9 c 0,2,3
 183 -9 183 -9 110.5 65 c 128,-1,4
 38 139 38 139 38 252 c 0,5,6
 39 363 39 363 110.5 439 c 128,-1,7
 182 515 182 515 306 515 c 0,8,9
 380 515 380 515 432 487 c 1,10,-1
 432 381 l 1,11,12
 382 413 382 413 318 413 c 0,13,14
 248 413 248 413 205 369 c 128,-1,15
 162 325 162 325 161 252 c 0,16,17
 163 180 163 180 204.5 136 c 128,-1,18
 246 92 246 92 317 92 c 0,19,20
 379 92 379 92 432 126 c 1,21,-1
 432 22 l 1,0,1
EndSplineSet
EndChar

StartChar: d
Encoding: 100 100 71
Width: 594
GlyphClass: 2
Flags: W
LayerCount: 2
Fore
SplineSet
161 251 m 0,0,1
 161 182 161 182 196 139 c 128,-1,2
 231 96 231 96 283 96 c 0,3,4
 337 96 337 96 373 137.5 c 128,-1,5
 409 179 409 179 409 258 c 0,6,7
 409 335 409 335 371 373.5 c 128,-1,8
 333 412 333 412 284 412 c 0,9,10
 232 412 232 412 196.5 369.5 c 128,-1,11
 161 327 161 327 161 251 c 0,0,1
529 0 m 1,12,-1
 409 0 l 1,13,-1
 409 79 l 1,14,15
 357 -7 357 -7 255 -7 c 0,16,17
 155 -7 155 -7 96.5 69 c 128,-1,18
 38 145 38 145 38 253 c 0,19,20
 38 373 38 373 99.5 443.5 c 128,-1,21
 161 514 161 514 257 514 c 0,22,23
 356 514 356 514 409 429 c 1,24,-1
 409 707 l 1,25,-1
 529 707 l 1,26,-1
 529 0 l 1,12,-1
EndSplineSet
EndChar

StartChar: e
Encoding: 101 101 72
Width: 529
GlyphClass: 2
Flags: W
LayerCount: 2
Fore
SplineSet
452 28 m 1,0,1
 399 -5 399 -5 299 -5 c 0,2,3
 178 -5 178 -5 108 67 c 128,-1,4
 38 139 38 139 38 253 c 0,5,6
 38 374 38 374 104 443 c 128,-1,7
 170 512 170 512 269 512 c 128,-1,8
 368 512 368 512 426 452 c 128,-1,9
 484 392 484 392 484 277 c 0,10,11
 484 249 484 249 477 205 c 1,12,-1
 159 205 l 1,13,14
 172 150 172 150 213.5 121 c 128,-1,15
 255 92 255 92 317 92 c 0,16,17
 397 92 397 92 452 132 c 1,18,-1
 452 28 l 1,0,1
272 418 m 0,19,20
 229 418 229 418 197.5 386.5 c 128,-1,21
 166 355 166 355 157 295 c 1,22,-1
 370 295 l 1,23,-1
 370 310 l 2,24,25
 368 359 368 359 343.5 388.5 c 128,-1,26
 319 418 319 418 272 418 c 0,19,20
EndSplineSet
EndChar

StartChar: f
Encoding: 102 102 73
Width: 340
GlyphClass: 2
Flags: W
LayerCount: 2
Fore
SplineSet
325 417 m 1,0,-1
 224 417 l 1,1,-1
 224 0 l 1,2,-1
 104 0 l 1,3,-1
 104 417 l 1,4,-1
 30 417 l 1,5,-1
 30 507 l 1,6,-1
 104 507 l 1,7,-1
 104 537 l 2,8,9
 104 622 104 622 151 670 c 128,-1,10
 198 718 198 718 281 718 c 0,11,12
 319 718 319 718 347 709 c 1,13,-1
 347 608 l 1,14,15
 321 618 321 618 297 618 c 0,16,17
 224 618 224 618 224 536 c 2,18,-1
 224 507 l 1,19,-1
 325 507 l 1,20,-1
 325 417 l 1,0,-1
EndSplineSet
EndChar

StartChar: g
Encoding: 103 103 74
Width: 571
GlyphClass: 2
Flags: W
LayerCount: 2
Fore
SplineSet
512 46 m 2,0,1
 512 -74 512 -74 442.5 -134.5 c 128,-1,2
 373 -195 373 -195 266 -195 c 0,3,4
 166 -195 166 -195 91 -159 c 1,5,-1
 91 -37 l 1,6,7
 159 -85 159 -85 254 -85 c 0,8,9
 392 -85 392 -85 392 47 c 2,10,-1
 392 91 l 1,11,12
 346 16 346 16 248 16 c 0,13,14
 163 16 163 16 102.5 78.5 c 128,-1,15
 42 141 42 141 42 260 c 0,16,17
 42 370 42 370 99.5 441.5 c 128,-1,18
 157 513 157 513 251 513 c 0,19,20
 346 513 346 513 392 434 c 1,21,-1
 392 507 l 1,22,-1
 512 507 l 1,23,-1
 512 46 l 2,0,1
167 260 m 0,24,25
 167 189 167 189 198 151.5 c 128,-1,26
 229 114 229 114 277 114 c 0,27,28
 326 114 326 114 359 152.5 c 128,-1,29
 392 191 392 191 392 253 c 0,30,31
 392 334 392 334 360 372 c 128,-1,32
 328 410 328 410 279 410 c 0,33,34
 227 410 227 410 197 369.5 c 128,-1,35
 167 329 167 329 167 260 c 0,24,25
EndSplineSet
EndChar

StartChar: h
Encoding: 104 104 75
Width: 565
GlyphClass: 2
Flags: W
LayerCount: 2
Fore
SplineSet
505 0 m 1,0,-1
 385 0 l 1,1,-1
 385 311 l 2,2,3
 385 359 385 359 360.5 386 c 128,-1,4
 336 413 336 413 297 413 c 0,5,6
 254 413 254 413 219.5 380 c 128,-1,7
 185 347 185 347 185 272 c 2,8,-1
 185 0 l 1,9,-1
 65 0 l 1,10,-1
 65 707 l 1,11,-1
 185 707 l 1,12,-1
 185 421 l 1,13,14
 226 513 226 513 340 513 c 0,15,16
 414 513 414 513 459.5 466.5 c 128,-1,17
 505 420 505 420 505 332 c 2,18,-1
 505 0 l 1,0,-1
EndSplineSet
EndChar

StartChar: i
Encoding: 105 105 76
Width: 260
GlyphClass: 2
Flags: W
LayerCount: 2
Fore
SplineSet
190 0 m 1,0,-1
 70 0 l 1,1,-1
 70 507 l 1,2,-1
 190 507 l 1,3,-1
 190 0 l 1,0,-1
202 659 m 0,4,5
 202 628 202 628 181 607 c 128,-1,6
 160 586 160 586 130 586 c 128,-1,7
 100 586 100 586 79 607 c 128,-1,8
 58 628 58 628 58 659 c 0,9,10
 58 689 58 689 79 710 c 128,-1,11
 100 731 100 731 130 731 c 128,-1,12
 160 731 160 731 181 710 c 128,-1,13
 202 689 202 689 202 659 c 0,4,5
EndSplineSet
EndChar

StartChar: j
Encoding: 106 106 77
Width: 257
GlyphClass: 2
Flags: W
LayerCount: 2
Fore
SplineSet
192 -34 m 2,0,1
 192 -109 192 -109 151 -153 c 128,-1,2
 110 -197 110 -197 34 -197 c 0,3,4
 -2 -197 -2 -197 -42 -181 c 1,5,-1
 -42 -86 l 1,6,7
 -7 -101 -7 -101 19 -101 c 0,8,9
 72 -101 72 -101 72 -32 c 2,10,-1
 72 507 l 1,11,-1
 192 507 l 1,12,-1
 192 -34 l 2,0,1
204 659 m 0,13,14
 204 628 204 628 183 607 c 128,-1,15
 162 586 162 586 131 586 c 0,16,17
 101 586 101 586 80 607 c 128,-1,18
 59 628 59 628 59 659 c 0,19,20
 59 689 59 689 80 710 c 128,-1,21
 101 731 101 731 131 731 c 0,22,23
 162 731 162 731 183 710 c 128,-1,24
 204 689 204 689 204 659 c 0,13,14
EndSplineSet
EndChar

StartChar: k
Encoding: 107 107 78
Width: 522
GlyphClass: 2
Flags: W
LayerCount: 2
Fore
SplineSet
185 0 m 1,0,-1
 65 0 l 1,1,-1
 65 695 l 1,2,-1
 185 695 l 1,3,-1
 185 269 l 1,4,-1
 364 507 l 1,5,-1
 504 507 l 1,6,-1
 318 265 l 1,7,-1
 508 0 l 1,8,-1
 367 0 l 1,9,-1
 185 262 l 1,10,-1
 185 0 l 1,0,-1
EndSplineSet
EndChar

StartChar: l
Encoding: 108 108 79
Width: 260
GlyphClass: 2
Flags: W
LayerCount: 2
Fore
SplineSet
190 0 m 1,0,-1
 70 0 l 1,1,-1
 70 707 l 1,2,-1
 190 707 l 1,3,-1
 190 0 l 1,0,-1
EndSplineSet
EndChar

StartChar: m
Encoding: 109 109 80
Width: 843
GlyphClass: 2
Flags: W
LayerCount: 2
Fore
SplineSet
784 0 m 1,0,-1
 663 0 l 1,1,-1
 663 311 l 2,2,3
 663 413 663 413 585 413 c 0,4,5
 546 413 546 413 515.5 379 c 128,-1,6
 485 345 485 345 485 272 c 2,7,-1
 485 0 l 1,8,-1
 364 0 l 1,9,-1
 364 311 l 2,10,11
 364 413 364 413 286 413 c 0,12,13
 247 413 247 413 216 379 c 128,-1,14
 185 345 185 345 185 272 c 2,15,-1
 185 0 l 1,16,-1
 65 0 l 1,17,-1
 65 507 l 1,18,-1
 185 507 l 1,19,-1
 185 427 l 1,20,21
 228 513 228 513 328 513 c 0,22,23
 439 513 439 513 472 417 c 1,24,25
 492 463 492 463 532 488 c 128,-1,26
 572 513 572 513 623 513 c 0,27,28
 700 513 700 513 742 466.5 c 128,-1,29
 784 420 784 420 784 334 c 2,30,-1
 784 0 l 1,0,-1
EndSplineSet
EndChar

StartChar: n
Encoding: 110 110 81
Width: 565
GlyphClass: 2
Flags: W
LayerCount: 2
Fore
SplineSet
505 0 m 1,0,-1
 385 0 l 1,1,-1
 385 312 l 2,2,3
 385 362 385 362 361 387.5 c 128,-1,4
 337 413 337 413 296 413 c 0,5,6
 249 413 249 413 217 376.5 c 128,-1,7
 185 340 185 340 185 272 c 2,8,-1
 185 0 l 1,9,-1
 65 0 l 1,10,-1
 65 507 l 1,11,-1
 185 507 l 1,12,-1
 185 420 l 1,13,14
 228 513 228 513 341 513 c 0,15,16
 417 513 417 513 461 467 c 128,-1,17
 505 421 505 421 505 337 c 2,18,-1
 505 0 l 1,0,-1
EndSplineSet
EndChar

StartChar: o
Encoding: 111 111 82
Width: 565
GlyphClass: 2
Flags: W
LayerCount: 2
Fore
SplineSet
527 255 m 0,0,1
 527 140 527 140 462.5 66 c 128,-1,2
 398 -8 398 -8 282 -8 c 0,3,4
 167 -8 167 -8 102.5 64 c 128,-1,5
 38 136 38 136 38 248 c 0,6,7
 38 364 38 364 105 439.5 c 128,-1,8
 172 515 172 515 282 515 c 0,9,10
 399 515 399 515 463 441.5 c 128,-1,11
 527 368 527 368 527 255 c 0,0,1
164 252 m 0,12,13
 164 182 164 182 195 135 c 128,-1,14
 226 88 226 88 283 88 c 0,15,16
 342 88 342 88 372 134 c 128,-1,17
 402 180 402 180 402 251 c 0,18,19
 402 324 402 324 373 370.5 c 128,-1,20
 344 417 344 417 282 417 c 0,21,22
 225 417 225 417 194.5 370 c 128,-1,23
 164 323 164 323 164 252 c 0,12,13
EndSplineSet
EndChar

StartChar: p
Encoding: 112 112 83
Width: 594
GlyphClass: 2
Flags: W
LayerCount: 2
Fore
SplineSet
185 -191 m 1,0,-1
 65 -191 l 1,1,-1
 65 507 l 1,2,-1
 185 507 l 1,3,-1
 185 429 l 1,4,5
 239 514 239 514 340 514 c 0,6,7
 439 514 439 514 497.5 443 c 128,-1,8
 556 372 556 372 556 256 c 0,9,10
 556 142 556 142 497.5 67.5 c 128,-1,11
 439 -7 439 -7 339 -7 c 0,12,13
 237 -7 237 -7 185 76 c 1,14,-1
 185 -191 l 1,0,-1
185 257 m 128,-1,16
 185 180 185 180 222 138 c 128,-1,17
 259 96 259 96 311 96 c 0,18,19
 365 96 365 96 399 137.5 c 128,-1,20
 433 179 433 179 433 254 c 128,-1,21
 433 329 433 329 399 370.5 c 128,-1,22
 365 412 365 412 313 412 c 128,-1,23
 261 412 261 412 223 373 c 128,-1,15
 185 334 185 334 185 257 c 128,-1,16
EndSplineSet
EndChar

StartChar: q
Encoding: 113 113 84
Width: 594
GlyphClass: 2
Flags: W
LayerCount: 2
Fore
SplineSet
161 254 m 128,-1,1
 161 181 161 181 196.5 138.5 c 128,-1,2
 232 96 232 96 285 96 c 0,3,4
 336 96 336 96 372.5 138 c 128,-1,5
 409 180 409 180 409 257 c 128,-1,6
 409 334 409 334 371.5 373 c 128,-1,7
 334 412 334 412 282 412 c 0,8,9
 231 412 231 412 196 369.5 c 128,-1,0
 161 327 161 327 161 254 c 128,-1,1
529 -191 m 1,10,-1
 409 -191 l 1,11,-1
 409 78 l 1,12,13
 357 -7 357 -7 256 -7 c 0,14,15
 156 -7 156 -7 97 67.5 c 128,-1,16
 38 142 38 142 38 256 c 0,17,18
 38 372 38 372 97.5 443 c 128,-1,19
 157 514 157 514 256 514 c 128,-1,20
 355 514 355 514 409 429 c 1,21,-1
 409 507 l 1,22,-1
 529 507 l 1,23,-1
 529 -191 l 1,10,-1
EndSplineSet
EndChar

StartChar: r
Encoding: 114 114 85
Width: 353
GlyphClass: 2
Flags: W
LayerCount: 2
Fore
SplineSet
185 0 m 1,0,-1
 64 0 l 1,1,-1
 65 507 l 1,2,-1
 185 507 l 1,3,-1
 185 417 l 1,4,5
 220 511 220 511 313 511 c 0,6,7
 334 511 334 511 347 508 c 1,8,-1
 347 392 l 1,9,10
 324 402 324 402 296 402 c 0,11,12
 247 402 247 402 216 362 c 128,-1,13
 185 322 185 322 185 262 c 2,14,-1
 185 0 l 1,0,-1
EndSplineSet
EndChar

StartChar: s
Encoding: 115 115 86
Width: 427
GlyphClass: 2
Flags: W
LayerCount: 2
Fore
SplineSet
396 146 m 0,0,1
 396 75 396 75 345 35 c 128,-1,2
 294 -5 294 -5 209 -5 c 0,3,4
 115 -5 115 -5 57 26 c 1,5,-1
 57 136 l 1,6,7
 124 91 124 91 202 91 c 0,8,9
 235 91 235 91 253.5 103.5 c 128,-1,10
 272 116 272 116 272 138 c 0,11,12
 272 151 272 151 266 161.5 c 128,-1,13
 260 172 260 172 243 182 c 128,-1,14
 226 192 226 192 216.5 196.5 c 128,-1,15
 207 201 207 201 179 213 c 0,16,17
 176 214 176 214 174.5 215 c 128,-1,18
 173 216 173 216 170 217 c 128,-1,19
 167 218 167 218 165 219 c 0,20,21
 54 269 54 269 54 363 c 0,22,23
 54 433 54 433 107 473 c 128,-1,24
 160 513 160 513 240 513 c 0,25,26
 317 513 317 513 368 491 c 1,27,-1
 368 385 l 1,28,29
 318 415 318 415 243 415 c 0,30,31
 212 415 212 415 194.5 401.5 c 128,-1,32
 177 388 177 388 177 367 c 0,33,34
 177 359 177 359 179.5 352 c 128,-1,35
 182 345 182 345 188.5 338.5 c 128,-1,36
 195 332 195 332 201 327 c 128,-1,37
 207 322 207 322 218 316.5 c 128,-1,38
 229 311 229 311 237 307 c 128,-1,39
 245 303 245 303 259 297 c 128,-1,40
 273 291 273 291 281 287 c 0,41,42
 334 261 334 261 365 229 c 128,-1,43
 396 197 396 197 396 146 c 0,0,1
EndSplineSet
EndChar

StartChar: t
Encoding: 116 116 87
Width: 379
GlyphClass: 2
Flags: W
LayerCount: 2
Fore
SplineSet
345 12 m 1,0,1
 310 -5 310 -5 255 -5 c 0,2,3
 91 -5 91 -5 91 161 c 2,4,-1
 91 417 l 1,5,-1
 15 417 l 1,6,-1
 15 507 l 1,7,-1
 91 507 l 1,8,-1
 91 629 l 1,9,-1
 211 629 l 1,10,-1
 211 507 l 1,11,-1
 337 507 l 1,12,-1
 337 417 l 1,13,-1
 211 417 l 1,14,-1
 211 159 l 2,15,16
 211 127 211 127 228 110.5 c 128,-1,17
 245 94 245 94 275 94 c 0,18,19
 313 94 313 94 345 115 c 1,20,-1
 345 12 l 1,0,1
EndSplineSet
EndChar

StartChar: u
Encoding: 117 117 88
Width: 565
GlyphClass: 2
Flags: W
LayerCount: 2
Fore
SplineSet
500 0 m 1,0,-1
 379 0 l 1,1,-1
 379 83 l 1,2,3
 339 -5 339 -5 223 -5 c 0,4,5
 146 -5 146 -5 103 39 c 128,-1,6
 60 83 60 83 60 164 c 2,7,-1
 60 507 l 1,8,-1
 180 507 l 1,9,-1
 180 192 l 2,10,11
 180 144 180 144 203.5 119 c 128,-1,12
 227 94 227 94 268 94 c 0,13,14
 320 94 320 94 349.5 129 c 128,-1,15
 379 164 379 164 379 235 c 2,16,-1
 379 507 l 1,17,-1
 500 507 l 1,18,-1
 500 0 l 1,0,-1
EndSplineSet
EndChar

StartChar: v
Encoding: 118 118 89
Width: 524
GlyphClass: 2
Flags: W
LayerCount: 2
Fore
SplineSet
326 0 m 1,0,-1
 196 0 l 1,1,-1
 13 507 l 1,2,-1
 139 507 l 1,3,-1
 206 292 l 2,4,5
 226 229 226 229 240 179.5 c 128,-1,6
 254 130 254 130 258 112 c 2,7,-1
 261 94 l 1,8,9
 271 150 271 150 318 292 c 2,10,-1
 388 507 l 1,11,-1
 512 507 l 1,12,-1
 326 0 l 1,0,-1
EndSplineSet
EndChar

StartChar: w
Encoding: 119 119 90
Width: 801
GlyphClass: 2
Flags: W
LayerCount: 2
Fore
SplineSet
303 0 m 1,0,-1
 173 0 l 1,1,-1
 13 507 l 1,2,-1
 138 507 l 1,3,-1
 184 340 l 2,4,5
 204 268 204 268 217.5 211.5 c 128,-1,6
 231 155 231 155 234 135 c 2,7,-1
 238 115 l 1,8,9
 248 176 248 176 296 340 c 2,10,-1
 345 507 l 1,11,-1
 454 507 l 1,12,-1
 503 340 l 2,13,14
 525 266 525 266 539.5 209.5 c 128,-1,15
 554 153 554 153 558 134 c 2,16,-1
 561 114 l 1,17,18
 571 173 571 173 620 340 c 2,19,-1
 668 507 l 1,20,-1
 788 507 l 1,21,-1
 627 0 l 1,22,-1
 497 0 l 1,23,-1
 452 166 l 2,24,25
 434 231 434 231 421 284.5 c 128,-1,26
 408 338 408 338 404 358 c 2,27,-1
 400 379 l 1,28,29
 387 313 387 313 348 166 c 2,30,-1
 303 0 l 1,0,-1
EndSplineSet
EndChar

StartChar: x
Encoding: 120 120 91
Width: 508
GlyphClass: 2
Flags: W
LayerCount: 2
Fore
SplineSet
151 0 m 1,0,-1
 19 0 l 1,1,-1
 196 256 l 1,2,-1
 30 507 l 1,3,-1
 165 507 l 1,4,-1
 260 342 l 1,5,-1
 360 507 l 1,6,-1
 494 507 l 1,7,-1
 318 255 l 1,8,-1
 488 0 l 1,9,-1
 355 0 l 1,10,-1
 255 170 l 1,11,-1
 151 0 l 1,0,-1
EndSplineSet
EndChar

StartChar: y
Encoding: 121 121 92
Width: 517
GlyphClass: 2
Flags: W
LayerCount: 2
Fore
SplineSet
325 14 m 2,0,1
 249 -189 249 -189 93 -189 c 0,2,3
 64 -189 64 -189 43 -184 c 1,4,-1
 43 -85 l 1,5,6
 59 -89 59 -89 77 -89 c 0,7,8
 168 -89 168 -89 206 10 c 1,9,-1
 6 507 l 1,10,-1
 139 507 l 1,11,-1
 198 345 l 2,12,13
 225 273 225 273 241.5 224 c 128,-1,14
 258 175 258 175 262 162 c 2,15,-1
 265 148 l 1,16,17
 275 183 275 183 329 345 c 2,18,-1
 382 507 l 1,19,-1
 508 507 l 1,20,-1
 325 14 l 2,0,1
EndSplineSet
EndChar

StartChar: z
Encoding: 122 122 93
Width: 469
GlyphClass: 2
Flags: W
LayerCount: 2
Fore
SplineSet
428 0 m 1,0,-1
 42 0 l 1,1,-1
 42 89 l 1,2,-1
 277 411 l 1,3,-1
 51 411 l 1,4,-1
 51 507 l 1,5,-1
 415 507 l 1,6,-1
 415 423 l 1,7,-1
 179 97 l 1,8,-1
 428 97 l 1,9,-1
 428 0 l 1,0,-1
EndSplineSet
EndChar

StartChar: braceleft
Encoding: 123 123 94
Width: 363
GlyphClass: 2
Flags: W
LayerCount: 2
Fore
SplineSet
342 -189 m 1,0,1
 311 -200 311 -200 283 -200 c 0,2,3
 219 -200 219 -200 177 -152.5 c 128,-1,4
 135 -105 135 -105 135 -31 c 0,5,6
 135 -7 135 -7 143 34 c 128,-1,7
 151 75 151 75 151 94 c 0,8,9
 151 135 151 135 128.5 165 c 128,-1,10
 106 195 106 195 65 199 c 1,11,-1
 43 199 l 1,12,-1
 43 316 l 1,13,14
 54 316 54 316 65 317 c 0,15,16
 105 319 105 319 128 349.5 c 128,-1,17
 151 380 151 380 151 421 c 0,18,19
 151 439 151 439 143 480.5 c 128,-1,20
 135 522 135 522 135 546 c 0,21,22
 135 620 135 620 177 667 c 128,-1,23
 219 714 219 714 283 714 c 0,24,25
 313 714 313 714 342 704 c 1,26,-1
 342 591 l 1,27,28
 327 600 327 600 310 600 c 0,29,30
 286 600 286 600 270.5 582 c 128,-1,31
 255 564 255 564 255 537 c 0,32,33
 255 520 255 520 262.5 476 c 128,-1,34
 270 432 270 432 270 406 c 0,35,36
 270 347 270 347 237 306.5 c 128,-1,37
 204 266 204 266 152 258 c 1,38,39
 204 250 204 250 237 208.5 c 128,-1,40
 270 167 270 167 270 108 c 0,41,42
 270 82 270 82 262.5 38.5 c 128,-1,43
 255 -5 255 -5 255 -23 c 0,44,45
 255 -50 255 -50 270 -67.5 c 128,-1,46
 285 -85 285 -85 310 -85 c 0,47,48
 327 -85 327 -85 342 -76 c 1,49,-1
 342 -189 l 1,0,1
EndSplineSet
EndChar

StartChar: bar
Encoding: 124 124 95
Width: 260
GlyphClass: 2
Flags: W
LayerCount: 2
Fore
SplineSet
187 -194 m 1,0,-1
 73 -194 l 1,1,-1
 73 695 l 1,2,-1
 187 695 l 1,3,-1
 187 -194 l 1,0,-1
EndSplineSet
EndChar

StartChar: braceright
Encoding: 125 125 96
Width: 363
GlyphClass: 2
Flags: W
LayerCount: 2
Fore
SplineSet
227 -31 m 0,0,1
 227 -105 227 -105 185 -152.5 c 128,-1,2
 143 -200 143 -200 79 -200 c 0,3,4
 52 -200 52 -200 21 -189 c 1,5,-1
 21 -76 l 1,6,7
 36 -85 36 -85 52 -85 c 0,8,9
 77 -85 77 -85 92.5 -67.5 c 128,-1,10
 108 -50 108 -50 108 -23 c 0,11,12
 108 -5 108 -5 100.5 38.5 c 128,-1,13
 93 82 93 82 93 108 c 0,14,15
 93 167 93 167 126 208.5 c 128,-1,16
 159 250 159 250 211 258 c 1,17,18
 159 266 159 266 126 306.5 c 128,-1,19
 93 347 93 347 93 406 c 0,20,21
 93 432 93 432 100.5 476 c 128,-1,22
 108 520 108 520 108 537 c 0,23,24
 108 564 108 564 92.5 582 c 128,-1,25
 77 600 77 600 52 600 c 0,26,27
 36 600 36 600 21 591 c 1,28,-1
 21 704 l 1,29,30
 50 714 50 714 79 714 c 0,31,32
 143 714 143 714 185 667 c 128,-1,33
 227 620 227 620 227 546 c 0,34,35
 227 522 227 522 219.5 480.5 c 128,-1,36
 212 439 212 439 212 421 c 0,37,38
 212 380 212 380 234.5 349.5 c 128,-1,39
 257 319 257 319 298 317 c 0,40,41
 308 316 308 316 320 316 c 1,42,-1
 320 199 l 1,43,-1
 298 199 l 1,44,45
 257 195 257 195 234.5 165 c 128,-1,46
 212 135 212 135 212 94 c 0,47,48
 212 75 212 75 219.5 34 c 128,-1,49
 227 -7 227 -7 227 -31 c 0,0,1
EndSplineSet
EndChar

StartChar: asciitilde
Encoding: 126 126 97
Width: 633
GlyphClass: 2
Flags: W
LayerCount: 2
Fore
SplineSet
222 249 m 0,0,1
 162 249 162 249 114 187 c 1,2,-1
 31 254 l 1,3,4
 62 298 62 298 105.5 328 c 128,-1,5
 149 358 149 358 197 358 c 0,6,7
 258 358 258 358 324.5 329 c 128,-1,8
 391 300 391 300 418 300 c 0,9,10
 449 300 449 300 471.5 315 c 128,-1,11
 494 330 494 330 517 359 c 1,12,-1
 601 293 l 1,13,14
 534 191 534 191 440 191 c 0,15,16
 386 191 386 191 319.5 220 c 128,-1,17
 253 249 253 249 222 249 c 0,0,1
EndSplineSet
EndChar

StartChar: exclamdown
Encoding: 161 161 98
Width: 275
GlyphClass: 2
Flags: W
LayerCount: 2
Fore
SplineSet
195 -165 m 1,0,-1
 80 -165 l 1,1,-1
 80 285 l 1,2,-1
 195 285 l 1,3,-1
 195 -165 l 1,0,-1
215 438 m 0,4,5
 215 405 215 405 192 382 c 128,-1,6
 169 359 169 359 136 359 c 0,7,8
 102 359 102 359 79.5 382 c 128,-1,9
 57 405 57 405 57 438 c 0,10,11
 57 472 57 472 79.5 494.5 c 128,-1,12
 102 517 102 517 136 517 c 0,13,14
 169 517 169 517 192 494.5 c 128,-1,15
 215 472 215 472 215 438 c 0,4,5
EndSplineSet
EndChar

StartChar: cent
Encoding: 162 162 99
Width: 468
GlyphClass: 2
Flags: W
LayerCount: 2
Fore
SplineSet
428 20 m 1,0,1
 392 2 392 2 349 -4 c 1,2,-1
 349 -111 l 1,3,-1
 248 -111 l 1,4,-1
 248 -4 l 1,5,6
 152 12 152 12 94 82.5 c 128,-1,7
 36 153 36 153 36 252 c 0,8,9
 37 349 37 349 93 420 c 128,-1,10
 149 491 149 491 248 509 c 1,11,-1
 248 618 l 1,12,-1
 349 618 l 1,13,-1
 349 511 l 1,14,15
 390 505 390 505 428 486 c 1,16,-1
 428 382 l 1,17,18
 378 412 378 412 319 412 c 0,19,20
 249 412 249 412 204.5 368.5 c 128,-1,21
 160 325 160 325 159 252 c 0,22,23
 161 180 161 180 203.5 136.5 c 128,-1,24
 246 93 246 93 317 93 c 0,25,26
 375 93 375 93 428 124 c 1,27,-1
 428 20 l 1,0,1
EndSplineSet
EndChar

StartChar: sterling
Encoding: 163 163 100
Width: 533
GlyphClass: 2
Flags: W
LayerCount: 2
Fore
SplineSet
498 0 m 1,0,-1
 51 0 l 1,1,-1
 51 100 l 1,2,3
 98 124 98 124 116 159 c 128,-1,4
 134 194 134 194 134 250 c 0,5,6
 134 268 134 268 133 277 c 1,7,-1
 52 277 l 1,8,-1
 52 366 l 1,9,-1
 122 366 l 1,10,11
 117 404 117 404 117 431 c 0,12,13
 117 540 117 540 174 600 c 128,-1,14
 231 660 231 660 340 660 c 0,15,16
 414 660 414 660 466 630 c 1,17,-1
 466 515 l 1,18,19
 418 546 418 546 363 546 c 0,20,21
 248 546 248 546 248 429 c 0,22,23
 248 410 248 410 252 366 c 1,24,-1
 424 366 l 1,25,-1
 424 277 l 1,26,-1
 262 277 l 1,27,28
 263 268 263 268 263 250 c 0,29,30
 263 146 263 146 195 103 c 1,31,-1
 498 103 l 1,32,-1
 498 0 l 1,0,-1
EndSplineSet
EndChar

StartChar: currency
Encoding: 164 164 101
Width: 561
GlyphClass: 2
Flags: W
LayerCount: 2
Fore
SplineSet
161 124 m 1,0,-1
 102 66 l 1,1,-1
 30 136 l 1,2,-1
 89 193 l 1,3,4
 57 246 57 246 57 310 c 0,5,6
 57 376 57 376 89 427 c 1,7,-1
 30 486 l 1,8,-1
 102 555 l 1,9,-1
 161 497 l 1,10,11
 214 530 214 530 282 530 c 0,12,13
 346 530 346 530 400 499 c 1,14,-1
 458 555 l 1,15,-1
 530 486 l 1,16,-1
 472 428 l 1,17,18
 504 377 504 377 504 313 c 0,19,20
 504 247 504 247 470 194 c 1,21,-1
 530 136 l 1,22,-1
 458 66 l 1,23,-1
 398 124 l 1,24,25
 345 93 345 93 279 93 c 0,26,27
 214 93 214 93 161 124 c 1,0,-1
158 312 m 0,28,29
 158 260 158 260 193 224 c 128,-1,30
 228 188 228 188 281 188 c 128,-1,31
 334 188 334 188 368.5 224 c 128,-1,32
 403 260 403 260 403 311 c 0,33,34
 403 363 403 363 368.5 399 c 128,-1,35
 334 435 334 435 281 435 c 128,-1,36
 228 435 228 435 193 399 c 128,-1,37
 158 363 158 363 158 312 c 0,28,29
EndSplineSet
EndChar

StartChar: yen
Encoding: 165 165 102
Width: 616
GlyphClass: 2
Flags: W
LayerCount: 2
Fore
SplineSet
546 132 m 1,0,-1
 369 132 l 1,1,-1
 369 0 l 1,2,-1
 243 0 l 1,3,-1
 243 132 l 1,4,-1
 68 132 l 1,5,-1
 68 210 l 1,6,-1
 243 210 l 1,7,-1
 243 252 l 1,8,-1
 226 283 l 1,9,-1
 68 283 l 1,10,-1
 68 361 l 1,11,-1
 182 361 l 1,12,-1
 18 655 l 1,13,-1
 165 655 l 1,14,-1
 305 380 l 1,15,-1
 451 655 l 1,16,-1
 597 655 l 1,17,-1
 431 361 l 1,18,-1
 546 361 l 1,19,-1
 546 283 l 1,20,-1
 387 283 l 1,21,-1
 369 252 l 1,22,-1
 369 210 l 1,23,-1
 546 210 l 1,24,-1
 546 132 l 1,0,-1
EndSplineSet
EndChar

StartChar: brokenbar
Encoding: 166 166 103
Width: 260
GlyphClass: 2
Flags: W
LayerCount: 2
Fore
SplineSet
187 368 m 1,0,-1
 73 368 l 1,1,-1
 73 703 l 1,2,-1
 187 703 l 1,3,-1
 187 368 l 1,0,-1
187 -140 m 1,4,-1
 73 -140 l 1,5,-1
 73 195 l 1,6,-1
 187 195 l 1,7,-1
 187 -140 l 1,4,-1
EndSplineSet
EndChar

StartChar: section
Encoding: 167 167 104
Width: 566
GlyphClass: 2
Flags: W
LayerCount: 2
Fore
SplineSet
305 183 m 0,0,1
 359 159 359 159 368 154 c 1,2,3
 382 175 382 175 382 201 c 0,4,5
 382 214 382 214 379 224.5 c 128,-1,6
 376 235 376 235 367.5 244.5 c 128,-1,7
 359 254 359 254 352.5 260.5 c 128,-1,8
 346 267 346 267 329.5 276.5 c 128,-1,9
 313 286 313 286 304.5 290.5 c 128,-1,10
 296 295 296 295 271.5 307 c 128,-1,11
 247 319 247 319 237 324 c 0,12,13
 230 328 230 328 215.5 335 c 128,-1,14
 201 342 201 342 194 345 c 1,15,16
 177 321 177 321 177 294 c 0,17,18
 177 259 177 259 206 236 c 128,-1,19
 235 213 235 213 305 183 c 0,0,1
503 199 m 0,20,21
 503 132 503 132 462 84 c 1,22,23
 496 42 496 42 496 -13 c 0,24,25
 496 -98 496 -98 433 -145.5 c 128,-1,26
 370 -193 370 -193 265 -193 c 0,27,28
 149 -193 149 -193 76 -150 c 1,29,-1
 76 -21 l 1,30,31
 160 -83 160 -83 264 -83 c 0,32,33
 366 -83 366 -83 366 -14 c 0,34,35
 366 18 366 18 336.5 39.5 c 128,-1,36
 307 61 307 61 202 107 c 0,37,38
 132 138 132 138 93.5 182.5 c 128,-1,39
 55 227 55 227 55 296 c 0,40,41
 55 360 55 360 99 411 c 1,42,43
 66 451 66 451 66 502 c 0,44,45
 66 585 66 585 127.5 632.5 c 128,-1,46
 189 680 189 680 292 680 c 0,47,48
 385 680 385 680 455 647 c 1,49,-1
 455 525 l 1,50,51
 382 570 382 570 296 570 c 0,52,53
 248 570 248 570 223 552.5 c 128,-1,54
 198 535 198 535 198 504 c 0,55,56
 198 490 198 490 203.5 479 c 128,-1,57
 209 468 209 468 225 457 c 128,-1,58
 241 446 241 446 254.5 439 c 128,-1,59
 268 432 268 432 301 416.5 c 128,-1,60
 334 401 334 401 355 390 c 0,61,62
 403 366 403 366 431.5 345.5 c 128,-1,63
 460 325 460 325 481.5 287 c 128,-1,64
 503 249 503 249 503 199 c 0,20,21
EndSplineSet
EndChar

StartChar: dieresis
Encoding: 168 168 105
Width: 470
GlyphClass: 2
Flags: W
LayerCount: 2
Fore
SplineSet
427 715 m 0,0,1
 427 685 427 685 407 665 c 128,-1,2
 387 645 387 645 356 645 c 0,3,4
 326 645 326 645 305.5 665 c 128,-1,5
 285 685 285 685 285 715 c 0,6,7
 285 744 285 744 305.5 764 c 128,-1,8
 326 784 326 784 356 784 c 0,9,10
 387 784 387 784 407 764 c 128,-1,11
 427 744 427 744 427 715 c 0,0,1
184 715 m 0,12,13
 184 685 184 685 164 665 c 128,-1,14
 144 645 144 645 114 645 c 0,15,16
 83 645 83 645 63 665 c 128,-1,17
 43 685 43 685 43 715 c 0,18,19
 43 744 43 744 63 764 c 128,-1,20
 83 784 83 784 114 784 c 0,21,22
 144 784 144 784 164 764 c 128,-1,23
 184 744 184 744 184 715 c 0,12,13
EndSplineSet
EndChar

StartChar: copyright
Encoding: 169 169 106
Width: 767
GlyphClass: 2
Flags: W
LayerCount: 2
Fore
SplineSet
490 183 m 1,0,1
 454 162 454 162 399 162 c 0,2,3
 323 162 323 162 272.5 211 c 128,-1,4
 222 260 222 260 222 336 c 0,5,6
 223 413 223 413 271.5 463 c 128,-1,7
 320 513 320 513 403 513 c 0,8,9
 451 513 451 513 490 492 c 1,10,-1
 490 409 l 1,11,12
 456 431 456 431 411 431 c 0,13,14
 373 431 373 431 346 405.5 c 128,-1,15
 319 380 319 380 318 336 c 0,16,17
 320 294 320 294 345.5 268 c 128,-1,18
 371 242 371 242 410 242 c 0,19,20
 454 242 454 242 490 267 c 1,21,-1
 490 183 l 1,0,1
729 337 m 128,-1,23
 729 195 729 195 627.5 93.5 c 128,-1,24
 526 -8 526 -8 384 -8 c 0,25,26
 241 -8 241 -8 139.5 93.5 c 128,-1,27
 38 195 38 195 38 337 c 0,28,29
 38 480 38 480 140 581.5 c 128,-1,30
 242 683 242 683 384 683 c 128,-1,31
 526 683 526 683 627.5 581 c 128,-1,22
 729 479 729 479 729 337 c 128,-1,23
124 337 m 0,32,33
 124 225 124 225 198.5 150.5 c 128,-1,34
 273 76 273 76 384 76 c 0,35,36
 494 76 494 76 569 151 c 128,-1,37
 644 226 644 226 644 337 c 0,38,39
 644 447 644 447 569 522 c 128,-1,40
 494 597 494 597 384 597 c 0,41,42
 273 597 273 597 198.5 522 c 128,-1,43
 124 447 124 447 124 337 c 0,32,33
EndSplineSet
EndChar

StartChar: ordfeminine
Encoding: 170 170 107
Width: 381
GlyphClass: 2
Flags: W
LayerCount: 2
Fore
SplineSet
176 464 m 0,0,1
 208 464 208 464 228 483.5 c 128,-1,2
 248 503 248 503 248 533 c 2,3,-1
 248 576 l 1,4,-1
 198 576 l 2,5,6
 157 576 157 576 135 560 c 128,-1,7
 113 544 113 544 113 517 c 0,8,9
 113 464 113 464 176 464 c 0,0,1
252 445 m 1,10,11
 218 389 218 389 140 389 c 0,12,13
 78 389 78 389 42.5 423.5 c 128,-1,14
 7 458 7 458 7 513 c 0,15,16
 7 574 7 574 53 609 c 128,-1,17
 99 644 99 644 185 644 c 2,18,-1
 248 644 l 1,19,-1
 248 669 l 2,20,21
 248 705 248 705 229 723.5 c 128,-1,22
 210 742 210 742 165 742 c 0,23,24
 95 742 95 742 39 705 c 1,25,-1
 39 798 l 1,26,27
 91 827 91 827 178 827 c 0,28,29
 267 827 267 827 309 787.5 c 128,-1,30
 351 748 351 748 351 666 c 2,31,-1
 351 392 l 1,32,-1
 252 392 l 1,33,-1
 252 445 l 1,10,11
EndSplineSet
EndChar

StartChar: guillemotleft
Encoding: 171 171 108
Width: 549
GlyphClass: 2
Flags: W
LayerCount: 2
Fore
SplineSet
366 253 m 1,0,-1
 512 91 l 1,1,-1
 385 91 l 1,2,-1
 233 253 l 1,3,-1
 385 415 l 1,4,-1
 512 415 l 1,5,-1
 366 253 l 1,0,-1
305 91 m 1,6,-1
 178 91 l 1,7,-1
 26 253 l 1,8,-1
 178 415 l 1,9,-1
 305 415 l 1,10,-1
 159 253 l 1,11,-1
 305 91 l 1,6,-1
EndSplineSet
EndChar

StartChar: logicalnot
Encoding: 172 172 109
Width: 583
GlyphClass: 2
Flags: W
LayerCount: 2
Fore
SplineSet
541 145 m 1,0,-1
 438 145 l 1,1,-1
 438 317 l 1,2,-1
 38 317 l 1,3,-1
 38 416 l 1,4,-1
 541 416 l 1,5,-1
 541 145 l 1,0,-1
EndSplineSet
EndChar

StartChar: uni00AD
Encoding: 173 173 110
Width: 353
GlyphClass: 2
Flags: W
LayerCount: 2
Fore
SplineSet
304 214 m 1,0,-1
 50 214 l 1,1,-1
 50 315 l 1,2,-1
 304 315 l 1,3,-1
 304 214 l 1,0,-1
EndSplineSet
EndChar

StartChar: registered
Encoding: 174 174 111
Width: 476
GlyphClass: 2
Flags: W
LayerCount: 2
Fore
SplineSet
218 453 m 1,0,-1
 168 453 l 1,1,-1
 168 681 l 1,2,-1
 235 681 l 2,3,4
 322 681 322 681 322 609 c 0,5,6
 322 563 322 563 285 545 c 1,7,-1
 343 453 l 1,8,-1
 282 453 l 1,9,-1
 233 536 l 1,10,-1
 218 536 l 1,11,-1
 218 453 l 1,0,-1
238 639 m 2,12,-1
 218 639 l 1,13,-1
 218 577 l 1,14,-1
 242 577 l 2,15,16
 270 577 270 577 270 609 c 0,17,18
 270 639 270 639 238 639 c 2,12,-1
466 559 m 128,-1,20
 466 460 466 460 401.5 396.5 c 128,-1,21
 337 333 337 333 238 333 c 128,-1,22
 139 333 139 333 74.5 396.5 c 128,-1,23
 10 460 10 460 10 559 c 0,24,25
 10 659 10 659 74.5 723 c 128,-1,26
 139 787 139 787 238 787 c 128,-1,27
 337 787 337 787 401.5 722.5 c 128,-1,19
 466 658 466 658 466 559 c 128,-1,20
67 559 m 0,28,29
 67 482 67 482 114 434.5 c 128,-1,30
 161 387 161 387 239 387 c 128,-1,31
 317 387 317 387 363.5 434.5 c 128,-1,32
 410 482 410 482 410 559 c 0,33,34
 410 637 410 637 363.5 685 c 128,-1,35
 317 733 317 733 239 733 c 128,-1,36
 161 733 161 733 114 685 c 128,-1,37
 67 637 67 637 67 559 c 0,28,29
EndSplineSet
EndChar

StartChar: macron
Encoding: 175 175 112
Width: 470
GlyphClass: 2
Flags: W
LayerCount: 2
Fore
SplineSet
399 667 m 1,0,-1
 71 667 l 1,1,-1
 71 750 l 1,2,-1
 399 750 l 1,3,-1
 399 667 l 1,0,-1
EndSplineSet
EndChar

StartChar: degree
Encoding: 176 176 113
Width: 408
GlyphClass: 2
Flags: W
LayerCount: 2
Fore
SplineSet
378 509 m 128,-1,1
 378 436 378 436 327 386 c 128,-1,2
 276 336 276 336 203 336 c 128,-1,3
 130 336 130 336 80 385.5 c 128,-1,4
 30 435 30 435 30 508 c 128,-1,5
 30 581 30 581 80.5 631.5 c 128,-1,6
 131 682 131 682 204 682 c 0,7,8
 278 682 278 682 328 632 c 128,-1,0
 378 582 378 582 378 509 c 128,-1,1
117 509 m 128,-1,10
 117 473 117 473 142.5 447 c 128,-1,11
 168 421 168 421 204 421 c 128,-1,12
 240 421 240 421 265 447 c 128,-1,13
 290 473 290 473 290 509 c 128,-1,14
 290 545 290 545 264.5 570.5 c 128,-1,15
 239 596 239 596 203 596 c 128,-1,16
 167 596 167 596 142 570.5 c 128,-1,9
 117 545 117 545 117 509 c 128,-1,10
EndSplineSet
EndChar

StartChar: plusminus
Encoding: 177 177 114
Width: 576
GlyphClass: 2
Flags: W
LayerCount: 2
Fore
SplineSet
526 328 m 1,0,-1
 342 328 l 1,1,-1
 342 177 l 1,2,-1
 231 177 l 1,3,-1
 231 328 l 1,4,-1
 50 328 l 1,5,-1
 50 429 l 1,6,-1
 231 429 l 1,7,-1
 231 579 l 1,8,-1
 342 579 l 1,9,-1
 342 429 l 1,10,-1
 526 429 l 1,11,-1
 526 328 l 1,0,-1
526 29 m 1,12,-1
 50 29 l 1,13,-1
 50 130 l 1,14,-1
 526 130 l 1,15,-1
 526 29 l 1,12,-1
EndSplineSet
EndChar

StartChar: twosuperior
Encoding: 178 178 115
Width: 365
GlyphClass: 2
Flags: W
LayerCount: 2
Fore
SplineSet
329 392 m 1,0,-1
 40 392 l 1,1,-1
 40 458 l 1,2,3
 117 515 117 515 168.5 574.5 c 128,-1,4
 220 634 220 634 220 682 c 0,5,6
 220 743 220 743 153 743 c 0,7,8
 104 743 104 743 51 704 c 1,9,-1
 51 795 l 1,10,11
 104 828 104 828 165 828 c 0,12,13
 230 828 230 828 272 792 c 128,-1,14
 314 756 314 756 314 693 c 0,15,16
 314 577 314 577 156 469 c 1,17,-1
 329 469 l 1,18,-1
 329 392 l 1,0,-1
EndSplineSet
EndChar

StartChar: threesuperior
Encoding: 179 179 116
Width: 343
GlyphClass: 2
Flags: W
LayerCount: 2
Fore
SplineSet
308 509 m 0,0,1
 308 455 308 455 268 421.5 c 128,-1,2
 228 388 228 388 159 388 c 0,3,4
 84 388 84 388 35 414 c 1,5,-1
 35 495 l 1,6,7
 91 466 91 466 147 466 c 0,8,9
 179 466 179 466 197 480.5 c 128,-1,10
 215 495 215 495 215 519 c 0,11,12
 215 571 215 571 125 571 c 2,13,-1
 107 571 l 1,14,-1
 107 647 l 1,15,-1
 125 647 l 2,16,17
 160 647 160 647 182.5 660.5 c 128,-1,18
 205 674 205 674 205 699 c 0,19,20
 205 748 205 748 145 748 c 0,21,22
 96 748 96 748 50 715 c 1,23,-1
 50 801 l 1,24,25
 96 828 96 828 151 828 c 0,26,27
 220 828 220 828 259 794.5 c 128,-1,28
 298 761 298 761 298 709 c 0,29,30
 298 670 298 670 276.5 644 c 128,-1,31
 255 618 255 618 218 610 c 1,32,33
 256 607 256 607 282 580 c 128,-1,34
 308 553 308 553 308 509 c 0,0,1
EndSplineSet
EndChar

StartChar: acute
Encoding: 180 180 117
Width: 470
GlyphClass: 2
Flags: W
LayerCount: 2
Fore
SplineSet
228 629 m 1,0,-1
 127 629 l 1,1,-1
 218 798 l 1,2,-1
 344 798 l 1,3,-1
 228 629 l 1,0,-1
EndSplineSet
EndChar

StartChar: uni00B5
Encoding: 181 181 118
Width: 570
GlyphClass: 2
Flags: W
LayerCount: 2
Fore
SplineSet
185 -180 m 1,0,-1
 65 -180 l 1,1,-1
 65 507 l 1,2,-1
 185 507 l 1,3,-1
 185 192 l 2,4,5
 185 145 185 145 214 119.5 c 128,-1,6
 243 94 243 94 286 94 c 0,7,8
 385 94 385 94 385 235 c 2,9,-1
 385 507 l 1,10,-1
 505 507 l 1,11,-1
 505 0 l 1,12,-1
 385 0 l 1,13,-1
 385 67 l 1,14,15
 351 -5 351 -5 270 -5 c 0,16,17
 224 -5 224 -5 185 17 c 1,18,-1
 185 -180 l 1,0,-1
EndSplineSet
EndChar

StartChar: paragraph
Encoding: 182 182 119
Width: 574
GlyphClass: 2
Flags: W
LayerCount: 2
Fore
SplineSet
310 -148 m 1,0,-1
 214 -148 l 1,1,-1
 214 326 l 1,2,3
 119 326 119 326 67.5 376.5 c 128,-1,4
 16 427 16 427 16 500 c 0,5,6
 16 572 16 572 69 623 c 128,-1,7
 122 674 122 674 227 674 c 2,8,-1
 310 674 l 1,9,-1
 310 -148 l 1,0,-1
506 -148 m 1,10,-1
 410 -148 l 1,11,-1
 411 674 l 1,12,-1
 506 674 l 1,13,-1
 506 -148 l 1,10,-1
EndSplineSet
EndChar

StartChar: periodcentered
Encoding: 183 183 120
Width: 254
GlyphClass: 2
Flags: W
LayerCount: 2
Fore
SplineSet
205 278 m 128,-1,1
 205 246 205 246 182.5 223 c 128,-1,2
 160 200 160 200 128 200 c 128,-1,3
 96 200 96 200 73 223 c 128,-1,4
 50 246 50 246 50 278 c 128,-1,5
 50 310 50 310 73 332.5 c 128,-1,6
 96 355 96 355 128 355 c 128,-1,7
 160 355 160 355 182.5 332.5 c 128,-1,0
 205 310 205 310 205 278 c 128,-1,1
EndSplineSet
EndChar

StartChar: cedilla
Encoding: 184 184 121
Width: 470
GlyphClass: 2
Flags: W
LayerCount: 2
Fore
SplineSet
319 -124 m 0,0,1
 319 -183 319 -183 276 -222 c 128,-1,2
 233 -261 233 -261 150 -262 c 1,3,-1
 150 -184 l 1,4,5
 229 -181 229 -181 229 -117 c 0,6,7
 229 -88 229 -88 204 -51 c 1,8,-1
 301 -51 l 1,9,10
 319 -78 319 -78 319 -124 c 0,0,1
EndSplineSet
EndChar

StartChar: onesuperior
Encoding: 185 185 122
Width: 268
GlyphClass: 2
Flags: W
LayerCount: 2
Fore
SplineSet
210 392 m 1,0,-1
 122 392 l 1,1,-1
 122 727 l 1,2,-1
 10 666 l 1,3,-1
 10 751 l 1,4,-1
 138 824 l 1,5,-1
 210 824 l 1,6,-1
 210 392 l 1,0,-1
EndSplineSet
EndChar

StartChar: ordmasculine
Encoding: 186 186 123
Width: 417
GlyphClass: 2
Flags: W
LayerCount: 2
Fore
SplineSet
413 609 m 0,0,1
 413 512 413 512 359 449 c 128,-1,2
 305 386 305 386 209 386 c 0,3,4
 111 386 111 386 57.5 447 c 128,-1,5
 4 508 4 508 4 603 c 0,6,7
 4 701 4 701 60 765 c 128,-1,8
 116 829 116 829 209 829 c 0,9,10
 306 829 306 829 359.5 767 c 128,-1,11
 413 705 413 705 413 609 c 0,0,1
110 607 m 128,-1,13
 110 547 110 547 136 507.5 c 128,-1,14
 162 468 162 468 209 468 c 0,15,16
 257 468 257 468 281.5 506.5 c 128,-1,17
 306 545 306 545 306 605 c 0,18,19
 306 747 306 747 207 747 c 0,20,21
 160 747 160 747 135 707 c 128,-1,12
 110 667 110 667 110 607 c 128,-1,13
EndSplineSet
EndChar

StartChar: guillemotright
Encoding: 187 187 124
Width: 550
GlyphClass: 2
Flags: W
LayerCount: 2
Fore
SplineSet
522 253 m 1,0,-1
 371 91 l 1,1,-1
 244 91 l 1,2,-1
 390 253 l 1,3,-1
 244 415 l 1,4,-1
 371 415 l 1,5,-1
 522 253 l 1,0,-1
164 91 m 1,6,-1
 37 91 l 1,7,-1
 183 253 l 1,8,-1
 37 415 l 1,9,-1
 164 415 l 1,10,-1
 315 253 l 1,11,-1
 164 91 l 1,6,-1
EndSplineSet
EndChar

StartChar: onequarter
Encoding: 188 188 125
Width: 830
GlyphClass: 2
Flags: W
LayerCount: 2
Fore
SplineSet
226 0 m 1,0,-1
 131 0 l 1,1,-1
 568 711 l 1,2,-1
 662 711 l 1,3,-1
 226 0 l 1,0,-1
231 279 m 1,4,-1
 143 279 l 1,5,-1
 143 614 l 1,6,-1
 31 553 l 1,7,-1
 31 639 l 1,8,-1
 159 711 l 1,9,-1
 231 711 l 1,10,-1
 231 279 l 1,4,-1
560 163 m 1,11,-1
 666 163 l 1,12,-1
 666 365 l 1,13,-1
 560 163 l 1,11,-1
752 0 m 1,14,-1
 666 0 l 1,15,-1
 666 91 l 1,16,-1
 471 91 l 1,17,-1
 471 163 l 1,18,-1
 616 430 l 1,19,-1
 752 430 l 1,20,-1
 752 163 l 1,21,-1
 808 163 l 1,22,-1
 808 91 l 1,23,-1
 752 91 l 1,24,-1
 752 0 l 1,14,-1
EndSplineSet
EndChar

StartChar: onehalf
Encoding: 189 189 126
Width: 833
GlyphClass: 2
Flags: W
LayerCount: 2
Fore
SplineSet
226 0 m 1,0,-1
 131 0 l 1,1,-1
 568 711 l 1,2,-1
 662 711 l 1,3,-1
 226 0 l 1,0,-1
231 279 m 1,4,-1
 143 279 l 1,5,-1
 143 614 l 1,6,-1
 31 553 l 1,7,-1
 31 639 l 1,8,-1
 159 711 l 1,9,-1
 231 711 l 1,10,-1
 231 279 l 1,4,-1
808 0 m 1,11,-1
 519 0 l 1,12,-1
 519 66 l 1,13,14
 700 200 700 200 700 290 c 0,15,16
 700 320 700 320 682 335.5 c 128,-1,17
 664 351 664 351 633 351 c 0,18,19
 584 351 584 351 531 312 c 1,20,-1
 531 403 l 1,21,22
 584 436 584 436 645 436 c 0,23,24
 710 436 710 436 752 400 c 128,-1,25
 794 364 794 364 794 301 c 0,26,27
 794 185 794 185 636 77 c 1,28,-1
 808 77 l 1,29,-1
 808 0 l 1,11,-1
EndSplineSet
EndChar

StartChar: threequarters
Encoding: 190 190 127
Width: 886
GlyphClass: 2
Flags: W
LayerCount: 2
Fore
SplineSet
280 0 m 1,0,-1
 185 0 l 1,1,-1
 622 711 l 1,2,-1
 717 711 l 1,3,-1
 280 0 l 1,0,-1
314 396 m 0,4,5
 314 342 314 342 274.5 308.5 c 128,-1,6
 235 275 235 275 166 275 c 0,7,8
 91 275 91 275 42 301 c 1,9,-1
 42 382 l 1,10,11
 95 353 95 353 154 353 c 0,12,13
 186 353 186 353 204 367.5 c 128,-1,14
 222 382 222 382 222 406 c 0,15,16
 222 458 222 458 132 458 c 2,17,-1
 113 458 l 1,18,-1
 113 534 l 1,19,-1
 131 534 l 2,20,21
 167 534 167 534 189 547 c 128,-1,22
 211 560 211 560 211 585 c 0,23,24
 211 635 211 635 151 635 c 0,25,26
 103 635 103 635 56 601 c 1,27,-1
 56 688 l 1,28,29
 102 714 102 714 158 714 c 0,30,31
 227 714 227 714 266 680.5 c 128,-1,32
 305 647 305 647 305 595 c 0,33,34
 305 556 305 556 283.5 530.5 c 128,-1,35
 262 505 262 505 225 497 c 1,36,37
 262 493 262 493 288 466 c 128,-1,38
 314 439 314 439 314 396 c 0,4,5
614 163 m 1,39,-1
 720 163 l 1,40,-1
 720 365 l 1,41,-1
 614 163 l 1,39,-1
806 0 m 1,42,-1
 720 0 l 1,43,-1
 720 91 l 1,44,-1
 525 91 l 1,45,-1
 525 163 l 1,46,-1
 670 430 l 1,47,-1
 806 430 l 1,48,-1
 806 163 l 1,49,-1
 862 163 l 1,50,-1
 862 91 l 1,51,-1
 806 91 l 1,52,-1
 806 0 l 1,42,-1
EndSplineSet
EndChar

StartChar: questiondown
Encoding: 191 191 128
Width: 456
GlyphClass: 2
Flags: W
LayerCount: 2
Fore
SplineSet
423 -140 m 1,0,1
 357 -172 357 -172 267 -172 c 0,2,3
 172 -172 172 -172 115 -123.5 c 128,-1,4
 58 -75 58 -75 58 11 c 0,5,6
 58 56 58 56 75.5 92 c 128,-1,7
 93 128 93 128 121 149 c 128,-1,8
 149 170 149 170 177.5 181 c 128,-1,9
 206 192 206 192 233 194 c 1,10,-1
 235 286 l 1,11,-1
 347 286 l 1,12,-1
 349 129 l 1,13,14
 180 129 180 129 180 23 c 0,15,16
 180 -19 180 -19 206 -44.5 c 128,-1,17
 232 -70 232 -70 283 -70 c 0,18,19
 352 -70 352 -70 423 -24 c 1,20,-1
 423 -140 l 1,0,1
371 439 m 128,-1,22
 371 406 371 406 348.5 383 c 128,-1,23
 326 360 326 360 292 360 c 0,24,25
 259 360 259 360 236 383 c 128,-1,26
 213 406 213 406 213 439 c 128,-1,27
 213 472 213 472 236 495 c 128,-1,28
 259 518 259 518 292 518 c 0,29,30
 326 518 326 518 348.5 495 c 128,-1,21
 371 472 371 472 371 439 c 128,-1,22
EndSplineSet
EndChar

StartChar: Agrave
Encoding: 192 192 129
Width: 674
GlyphClass: 2
Flags: W
LayerCount: 2
Fore
SplineSet
250 285 m 2,0,-1
 241 256 l 1,1,-1
 431 256 l 1,2,-1
 422 286 l 2,3,4
 388 394 388 394 366.5 467.5 c 128,-1,5
 345 541 345 541 340 560 c 2,6,-1
 336 580 l 1,7,8
 327 530 327 530 250 285 c 2,0,-1
160 0 m 1,9,-1
 28 0 l 1,10,-1
 256 674 l 1,11,-1
 419 674 l 1,12,-1
 647 0 l 1,13,-1
 511 0 l 1,14,-1
 463 153 l 1,15,-1
 208 153 l 1,16,-1
 160 0 l 1,9,-1
386 723 m 1,17,-1
 285 723 l 1,18,-1
 169 892 l 1,19,-1
 295 892 l 1,20,-1
 386 723 l 1,17,-1
EndSplineSet
EndChar

StartChar: Aacute
Encoding: 193 193 130
Width: 674
GlyphClass: 2
Flags: W
LayerCount: 2
Fore
SplineSet
250 285 m 2,0,-1
 241 256 l 1,1,-1
 431 256 l 1,2,-1
 422 286 l 2,3,4
 388 394 388 394 366.5 467.5 c 128,-1,5
 345 541 345 541 340 560 c 2,6,-1
 336 580 l 1,7,8
 327 530 327 530 250 285 c 2,0,-1
160 0 m 1,9,-1
 28 0 l 1,10,-1
 256 674 l 1,11,-1
 419 674 l 1,12,-1
 647 0 l 1,13,-1
 511 0 l 1,14,-1
 463 153 l 1,15,-1
 208 153 l 1,16,-1
 160 0 l 1,9,-1
398 723 m 1,17,-1
 297 723 l 1,18,-1
 388 892 l 1,19,-1
 514 892 l 1,20,-1
 398 723 l 1,17,-1
EndSplineSet
EndChar

StartChar: Acircumflex
Encoding: 194 194 131
Width: 674
GlyphClass: 2
Flags: W
LayerCount: 2
Fore
SplineSet
250 285 m 2,0,-1
 241 256 l 1,1,-1
 431 256 l 1,2,-1
 422 286 l 2,3,4
 388 394 388 394 366.5 467.5 c 128,-1,5
 345 541 345 541 340 560 c 2,6,-1
 336 580 l 1,7,8
 327 530 327 530 250 285 c 2,0,-1
160 0 m 1,9,-1
 28 0 l 1,10,-1
 256 674 l 1,11,-1
 419 674 l 1,12,-1
 647 0 l 1,13,-1
 511 0 l 1,14,-1
 463 153 l 1,15,-1
 208 153 l 1,16,-1
 160 0 l 1,9,-1
258 723 m 1,17,-1
 141 723 l 1,18,-1
 286 892 l 1,19,-1
 392 892 l 1,20,-1
 537 723 l 1,21,-1
 420 723 l 1,22,-1
 339 822 l 1,23,-1
 258 723 l 1,17,-1
EndSplineSet
EndChar

StartChar: Atilde
Encoding: 195 195 132
Width: 674
GlyphClass: 2
Flags: W
LayerCount: 2
Fore
SplineSet
250 285 m 2,0,-1
 241 256 l 1,1,-1
 431 256 l 1,2,-1
 422 286 l 2,3,4
 388 394 388 394 366.5 467.5 c 128,-1,5
 345 541 345 541 340 560 c 2,6,-1
 336 580 l 1,7,8
 327 530 327 530 250 285 c 2,0,-1
160 0 m 1,9,-1
 28 0 l 1,10,-1
 256 674 l 1,11,-1
 419 674 l 1,12,-1
 647 0 l 1,13,-1
 511 0 l 1,14,-1
 463 153 l 1,15,-1
 208 153 l 1,16,-1
 160 0 l 1,9,-1
281 785 m 0,17,18
 257 785 257 785 242 775.5 c 128,-1,19
 227 766 227 766 209 741 c 1,20,-1
 152 794 l 1,21,22
 168 827 168 827 197.5 849.5 c 128,-1,23
 227 872 227 872 263 872 c 0,24,25
 297 872 297 872 338 853 c 128,-1,26
 379 834 379 834 398 834 c 0,27,28
 441 834 441 834 462 877 c 1,29,-1
 526 826 l 1,30,31
 487 747 487 747 404 747 c 0,32,33
 374 747 374 747 335 766 c 128,-1,34
 296 785 296 785 281 785 c 0,17,18
EndSplineSet
EndChar

StartChar: Adieresis
Encoding: 196 196 133
Width: 674
GlyphClass: 2
Flags: W
LayerCount: 2
Fore
SplineSet
250 285 m 2,0,-1
 241 256 l 1,1,-1
 431 256 l 1,2,-1
 422 286 l 2,3,4
 388 394 388 394 366.5 467.5 c 128,-1,5
 345 541 345 541 340 560 c 2,6,-1
 336 580 l 1,7,8
 327 530 327 530 250 285 c 2,0,-1
160 0 m 1,9,-1
 28 0 l 1,10,-1
 256 674 l 1,11,-1
 419 674 l 1,12,-1
 647 0 l 1,13,-1
 511 0 l 1,14,-1
 463 153 l 1,15,-1
 208 153 l 1,16,-1
 160 0 l 1,9,-1
535 809 m 0,17,18
 535 779 535 779 515 759 c 128,-1,19
 495 739 495 739 464 739 c 0,20,21
 434 739 434 739 413.5 759 c 128,-1,22
 393 779 393 779 393 809 c 0,23,24
 393 838 393 838 413.5 858 c 128,-1,25
 434 878 434 878 464 878 c 0,26,27
 495 878 495 878 515 858 c 128,-1,28
 535 838 535 838 535 809 c 0,17,18
292 809 m 0,29,30
 292 779 292 779 272 759 c 128,-1,31
 252 739 252 739 222 739 c 0,32,33
 191 739 191 739 171 759 c 128,-1,34
 151 779 151 779 151 809 c 0,35,36
 151 838 151 838 171 858 c 128,-1,37
 191 878 191 878 222 878 c 0,38,39
 252 878 252 878 272 858 c 128,-1,40
 292 838 292 838 292 809 c 0,29,30
EndSplineSet
EndChar

StartChar: Aring
Encoding: 197 197 134
Width: 674
GlyphClass: 2
Flags: W
LayerCount: 2
Fore
SplineSet
250 285 m 2,0,-1
 241 256 l 1,1,-1
 431 256 l 1,2,-1
 422 286 l 2,3,4
 388 394 388 394 366.5 467.5 c 128,-1,5
 345 541 345 541 340 560 c 2,6,-1
 336 580 l 1,7,8
 327 530 327 530 250 285 c 2,0,-1
160 0 m 1,9,-1
 28 0 l 1,10,-1
 256 674 l 1,11,-1
 419 674 l 1,12,-1
 647 0 l 1,13,-1
 511 0 l 1,14,-1
 463 153 l 1,15,-1
 208 153 l 1,16,-1
 160 0 l 1,9,-1
466 837 m 128,-1,18
 466 785 466 785 429.5 748.5 c 128,-1,19
 393 712 393 712 341 712 c 128,-1,20
 289 712 289 712 252.5 748.5 c 128,-1,21
 216 785 216 785 216 837 c 128,-1,22
 216 889 216 889 252.5 925.5 c 128,-1,23
 289 962 289 962 341 962 c 128,-1,24
 393 962 393 962 429.5 925.5 c 128,-1,17
 466 889 466 889 466 837 c 128,-1,18
288 839 m 128,-1,26
 288 817 288 817 303 800.5 c 128,-1,27
 318 784 318 784 341 784 c 128,-1,28
 364 784 364 784 379 800.5 c 128,-1,29
 394 817 394 817 394 839 c 128,-1,30
 394 861 394 861 379 877.5 c 128,-1,31
 364 894 364 894 341 894 c 128,-1,32
 318 894 318 894 303 877.5 c 128,-1,25
 288 861 288 861 288 839 c 128,-1,26
EndSplineSet
EndChar

StartChar: AE
Encoding: 198 198 135
Width: 917
GlyphClass: 2
Flags: W
LayerCount: 2
Fore
SplineSet
147 0 m 1,0,-1
 14 0 l 1,1,-1
 361 674 l 1,2,-1
 857 674 l 1,3,-1
 857 571 l 1,4,-1
 586 571 l 1,5,-1
 586 388 l 1,6,-1
 827 388 l 1,7,-1
 827 286 l 1,8,-1
 586 286 l 1,9,-1
 586 103 l 1,10,-1
 861 103 l 1,11,-1
 861 0 l 1,12,-1
 463 0 l 1,13,-1
 463 153 l 1,14,-1
 228 153 l 1,15,-1
 147 0 l 1,0,-1
298 285 m 1,16,-1
 283 256 l 1,17,-1
 463 256 l 1,18,-1
 463 611 l 1,19,20
 416 501 416 501 298 285 c 1,16,-1
EndSplineSet
EndChar

StartChar: Ccedilla
Encoding: 199 199 136
Width: 609
GlyphClass: 2
Flags: W
LayerCount: 2
Fore
SplineSet
562 32 m 1,0,1
 500 -8 500 -8 388 -8 c 0,2,3
 238 -8 238 -8 140.5 86.5 c 128,-1,4
 43 181 43 181 43 337 c 0,5,6
 43 490 43 490 139.5 586.5 c 128,-1,7
 236 683 236 683 388 683 c 0,8,9
 499 683 499 683 561 646 c 1,10,-1
 561 523 l 1,11,12
 485 567 485 567 393 567 c 128,-1,13
 301 567 301 567 239.5 504.5 c 128,-1,14
 178 442 178 442 178 337 c 128,-1,15
 178 232 178 232 239.5 170 c 128,-1,16
 301 108 301 108 400 108 c 0,17,18
 495 108 495 108 562 158 c 1,19,-1
 562 32 l 1,0,1
439 -124 m 0,20,21
 439 -183 439 -183 396 -222 c 128,-1,22
 353 -261 353 -261 270 -262 c 1,23,-1
 270 -184 l 1,24,25
 349 -181 349 -181 349 -117 c 0,26,27
 349 -88 349 -88 324 -51 c 1,28,-1
 421 -51 l 1,29,30
 439 -78 439 -78 439 -124 c 0,20,21
EndSplineSet
EndChar

StartChar: Egrave
Encoding: 200 200 137
Width: 528
GlyphClass: 2
Flags: W
LayerCount: 2
Fore
SplineSet
472 0 m 1,0,-1
 70 0 l 1,1,-1
 70 674 l 1,2,-1
 468 674 l 1,3,-1
 468 571 l 1,4,-1
 197 571 l 1,5,-1
 197 388 l 1,6,-1
 438 388 l 1,7,-1
 438 286 l 1,8,-1
 197 286 l 1,9,-1
 197 103 l 1,10,-1
 472 103 l 1,11,-1
 472 0 l 1,0,-1
336 723 m 1,12,-1
 235 723 l 1,13,-1
 119 892 l 1,14,-1
 245 892 l 1,15,-1
 336 723 l 1,12,-1
EndSplineSet
EndChar

StartChar: Eacute
Encoding: 201 201 138
Width: 528
GlyphClass: 2
Flags: W
LayerCount: 2
Fore
SplineSet
472 0 m 1,0,-1
 70 0 l 1,1,-1
 70 674 l 1,2,-1
 468 674 l 1,3,-1
 468 571 l 1,4,-1
 197 571 l 1,5,-1
 197 388 l 1,6,-1
 438 388 l 1,7,-1
 438 286 l 1,8,-1
 197 286 l 1,9,-1
 197 103 l 1,10,-1
 472 103 l 1,11,-1
 472 0 l 1,0,-1
332 723 m 1,12,-1
 231 723 l 1,13,-1
 322 892 l 1,14,-1
 448 892 l 1,15,-1
 332 723 l 1,12,-1
EndSplineSet
EndChar

StartChar: Ecircumflex
Encoding: 202 202 139
Width: 528
GlyphClass: 2
Flags: W
LayerCount: 2
Fore
SplineSet
472 0 m 1,0,-1
 70 0 l 1,1,-1
 70 674 l 1,2,-1
 468 674 l 1,3,-1
 468 571 l 1,4,-1
 197 571 l 1,5,-1
 197 388 l 1,6,-1
 438 388 l 1,7,-1
 438 286 l 1,8,-1
 197 286 l 1,9,-1
 197 103 l 1,10,-1
 472 103 l 1,11,-1
 472 0 l 1,0,-1
192 723 m 1,12,-1
 75 723 l 1,13,-1
 220 892 l 1,14,-1
 326 892 l 1,15,-1
 471 723 l 1,16,-1
 354 723 l 1,17,-1
 273 822 l 1,18,-1
 192 723 l 1,12,-1
EndSplineSet
EndChar

StartChar: Edieresis
Encoding: 203 203 140
Width: 528
GlyphClass: 2
Flags: W
LayerCount: 2
Fore
SplineSet
472 0 m 1,0,-1
 70 0 l 1,1,-1
 70 674 l 1,2,-1
 468 674 l 1,3,-1
 468 571 l 1,4,-1
 197 571 l 1,5,-1
 197 388 l 1,6,-1
 438 388 l 1,7,-1
 438 286 l 1,8,-1
 197 286 l 1,9,-1
 197 103 l 1,10,-1
 472 103 l 1,11,-1
 472 0 l 1,0,-1
463 807 m 0,12,13
 463 777 463 777 443 757 c 128,-1,14
 423 737 423 737 392 737 c 0,15,16
 362 737 362 737 341.5 757 c 128,-1,17
 321 777 321 777 321 807 c 0,18,19
 321 836 321 836 341.5 856 c 128,-1,20
 362 876 362 876 392 876 c 0,21,22
 423 876 423 876 443 856 c 128,-1,23
 463 836 463 836 463 807 c 0,12,13
220 807 m 0,24,25
 220 777 220 777 200 757 c 128,-1,26
 180 737 180 737 150 737 c 0,27,28
 119 737 119 737 99 757 c 128,-1,29
 79 777 79 777 79 807 c 0,30,31
 79 836 79 836 99 856 c 128,-1,32
 119 876 119 876 150 876 c 0,33,34
 180 876 180 876 200 856 c 128,-1,35
 220 836 220 836 220 807 c 0,24,25
EndSplineSet
EndChar

StartChar: Igrave
Encoding: 204 204 141
Width: 282
GlyphClass: 2
Flags: W
LayerCount: 2
Fore
SplineSet
204 0 m 1,0,-1
 78 0 l 1,1,-1
 78 674 l 1,2,-1
 204 674 l 1,3,-1
 204 0 l 1,0,-1
187 723 m 1,4,-1
 86 723 l 1,5,-1
 -30 892 l 1,6,-1
 96 892 l 1,7,-1
 187 723 l 1,4,-1
EndSplineSet
EndChar

StartChar: Iacute
Encoding: 205 205 142
Width: 282
GlyphClass: 2
Flags: W
LayerCount: 2
Fore
SplineSet
204 0 m 1,0,-1
 78 0 l 1,1,-1
 78 674 l 1,2,-1
 204 674 l 1,3,-1
 204 0 l 1,0,-1
195 723 m 1,4,-1
 94 723 l 1,5,-1
 185 892 l 1,6,-1
 311 892 l 1,7,-1
 195 723 l 1,4,-1
EndSplineSet
EndChar

StartChar: Icircumflex
Encoding: 206 206 143
Width: 282
GlyphClass: 2
Flags: W
LayerCount: 2
Fore
SplineSet
204 0 m 1,0,-1
 78 0 l 1,1,-1
 78 674 l 1,2,-1
 204 674 l 1,3,-1
 204 0 l 1,0,-1
62 723 m 1,4,-1
 -55 723 l 1,5,-1
 90 892 l 1,6,-1
 196 892 l 1,7,-1
 341 723 l 1,8,-1
 224 723 l 1,9,-1
 143 822 l 1,10,-1
 62 723 l 1,4,-1
EndSplineSet
EndChar

StartChar: Idieresis
Encoding: 207 207 144
Width: 282
GlyphClass: 2
Flags: W
LayerCount: 2
Fore
SplineSet
204 0 m 1,0,-1
 78 0 l 1,1,-1
 78 674 l 1,2,-1
 204 674 l 1,3,-1
 204 0 l 1,0,-1
338 808 m 0,4,5
 338 778 338 778 318 758 c 128,-1,6
 298 738 298 738 267 738 c 0,7,8
 237 738 237 738 216.5 758 c 128,-1,9
 196 778 196 778 196 808 c 0,10,11
 196 837 196 837 216.5 857 c 128,-1,12
 237 877 237 877 267 877 c 0,13,14
 298 877 298 877 318 857 c 128,-1,15
 338 837 338 837 338 808 c 0,4,5
95 808 m 0,16,17
 95 778 95 778 75 758 c 128,-1,18
 55 738 55 738 25 738 c 0,19,20
 -6 738 -6 738 -26 758 c 128,-1,21
 -46 778 -46 778 -46 808 c 0,22,23
 -46 837 -46 837 -26 857 c 128,-1,24
 -6 877 -6 877 25 877 c 0,25,26
 55 877 55 877 75 857 c 128,-1,27
 95 837 95 837 95 808 c 0,16,17
EndSplineSet
EndChar

StartChar: Eth
Encoding: 208 208 145
Width: 742
GlyphClass: 2
Flags: W
LayerCount: 2
Fore
SplineSet
357 0 m 2,0,-1
 137 0 l 1,1,-1
 137 282 l 1,2,-1
 64 282 l 1,3,-1
 64 385 l 1,4,-1
 137 385 l 1,5,-1
 137 674 l 1,6,-1
 357 674 l 2,7,8
 508 674 508 674 604 581 c 128,-1,9
 700 488 700 488 700 346 c 0,10,11
 700 190 700 190 607.5 95 c 128,-1,12
 515 0 515 0 357 0 c 2,0,-1
418 282 m 1,13,-1
 266 282 l 1,14,-1
 266 105 l 1,15,-1
 355 105 l 2,16,17
 461 105 461 105 516.5 170.5 c 128,-1,18
 572 236 572 236 572 346 c 0,19,20
 572 443 572 443 513 505.5 c 128,-1,21
 454 568 454 568 353 568 c 2,22,-1
 266 568 l 1,23,-1
 266 385 l 1,24,-1
 418 385 l 1,25,-1
 418 282 l 1,13,-1
EndSplineSet
EndChar

StartChar: Ntilde
Encoding: 209 209 146
Width: 688
GlyphClass: 2
Flags: W
LayerCount: 2
Fore
SplineSet
196 0 m 1,0,-1
 70 0 l 1,1,-1
 70 674 l 1,2,-1
 213 674 l 1,3,-1
 375 393 l 2,4,5
 415 324 415 324 446.5 264.5 c 128,-1,6
 478 205 478 205 489 180 c 2,7,-1
 500 155 l 1,8,9
 492 238 492 238 492 393 c 2,10,-1
 492 674 l 1,11,-1
 619 674 l 1,12,-1
 619 0 l 1,13,-1
 475 0 l 1,14,-1
 311 280 l 2,15,16
 272 346 272 346 240.5 406.5 c 128,-1,17
 209 467 209 467 197 494 c 2,18,-1
 185 522 l 1,19,20
 196 427 196 427 196 281 c 2,21,-1
 196 0 l 1,0,-1
292 785 m 0,22,23
 268 785 268 785 253 775.5 c 128,-1,24
 238 766 238 766 220 741 c 1,25,-1
 163 794 l 1,26,27
 179 827 179 827 208.5 849.5 c 128,-1,28
 238 872 238 872 274 872 c 0,29,30
 308 872 308 872 349 853 c 128,-1,31
 390 834 390 834 409 834 c 0,32,33
 452 834 452 834 473 877 c 1,34,-1
 537 826 l 1,35,36
 498 747 498 747 415 747 c 0,37,38
 384 747 384 747 346 766 c 128,-1,39
 308 785 308 785 292 785 c 0,22,23
EndSplineSet
EndChar

StartChar: Ograve
Encoding: 210 210 147
Width: 723
GlyphClass: 2
Flags: W
LayerCount: 2
Fore
SplineSet
680 339 m 0,0,1
 680 183 680 183 593.5 88 c 128,-1,2
 507 -7 507 -7 362 -7 c 128,-1,3
 217 -7 217 -7 130 88 c 128,-1,4
 43 183 43 183 43 339 c 0,5,6
 43 496 43 496 129.5 591 c 128,-1,7
 216 686 216 686 361 686 c 0,8,9
 508 686 508 686 594 591.5 c 128,-1,10
 680 497 680 497 680 339 c 0,0,1
178 339 m 0,11,12
 178 233 178 233 228 171 c 128,-1,13
 278 109 278 109 362 109 c 0,14,15
 447 109 447 109 496 170.5 c 128,-1,16
 545 232 545 232 545 339 c 128,-1,17
 545 446 545 446 496 508 c 128,-1,18
 447 570 447 570 361 570 c 0,19,20
 276 570 276 570 227 508 c 128,-1,21
 178 446 178 446 178 339 c 0,11,12
421 723 m 1,22,-1
 320 723 l 1,23,-1
 204 892 l 1,24,-1
 330 892 l 1,25,-1
 421 723 l 1,22,-1
EndSplineSet
EndChar

StartChar: Oacute
Encoding: 211 211 148
Width: 723
GlyphClass: 2
Flags: W
LayerCount: 2
Fore
SplineSet
680 339 m 0,0,1
 680 183 680 183 593.5 88 c 128,-1,2
 507 -7 507 -7 362 -7 c 128,-1,3
 217 -7 217 -7 130 88 c 128,-1,4
 43 183 43 183 43 339 c 0,5,6
 43 496 43 496 129.5 591 c 128,-1,7
 216 686 216 686 361 686 c 0,8,9
 508 686 508 686 594 591.5 c 128,-1,10
 680 497 680 497 680 339 c 0,0,1
178 339 m 0,11,12
 178 233 178 233 228 171 c 128,-1,13
 278 109 278 109 362 109 c 0,14,15
 447 109 447 109 496 170.5 c 128,-1,16
 545 232 545 232 545 339 c 128,-1,17
 545 446 545 446 496 508 c 128,-1,18
 447 570 447 570 361 570 c 0,19,20
 276 570 276 570 227 508 c 128,-1,21
 178 446 178 446 178 339 c 0,11,12
417 723 m 1,22,-1
 316 723 l 1,23,-1
 407 892 l 1,24,-1
 533 892 l 1,25,-1
 417 723 l 1,22,-1
EndSplineSet
EndChar

StartChar: Ocircumflex
Encoding: 212 212 149
Width: 723
GlyphClass: 2
Flags: W
LayerCount: 2
Fore
SplineSet
680 339 m 0,0,1
 680 183 680 183 593.5 88 c 128,-1,2
 507 -7 507 -7 362 -7 c 128,-1,3
 217 -7 217 -7 130 88 c 128,-1,4
 43 183 43 183 43 339 c 0,5,6
 43 496 43 496 129.5 591 c 128,-1,7
 216 686 216 686 361 686 c 0,8,9
 508 686 508 686 594 591.5 c 128,-1,10
 680 497 680 497 680 339 c 0,0,1
178 339 m 0,11,12
 178 233 178 233 228 171 c 128,-1,13
 278 109 278 109 362 109 c 0,14,15
 447 109 447 109 496 170.5 c 128,-1,16
 545 232 545 232 545 339 c 128,-1,17
 545 446 545 446 496 508 c 128,-1,18
 447 570 447 570 361 570 c 0,19,20
 276 570 276 570 227 508 c 128,-1,21
 178 446 178 446 178 339 c 0,11,12
286 723 m 1,22,-1
 169 723 l 1,23,-1
 314 892 l 1,24,-1
 420 892 l 1,25,-1
 565 723 l 1,26,-1
 448 723 l 1,27,-1
 367 822 l 1,28,-1
 286 723 l 1,22,-1
EndSplineSet
EndChar

StartChar: Otilde
Encoding: 213 213 150
Width: 723
GlyphClass: 2
Flags: W
LayerCount: 2
Fore
SplineSet
680 339 m 0,0,1
 680 183 680 183 593.5 88 c 128,-1,2
 507 -7 507 -7 362 -7 c 128,-1,3
 217 -7 217 -7 130 88 c 128,-1,4
 43 183 43 183 43 339 c 0,5,6
 43 496 43 496 129.5 591 c 128,-1,7
 216 686 216 686 361 686 c 0,8,9
 508 686 508 686 594 591.5 c 128,-1,10
 680 497 680 497 680 339 c 0,0,1
178 339 m 0,11,12
 178 233 178 233 228 171 c 128,-1,13
 278 109 278 109 362 109 c 0,14,15
 447 109 447 109 496 170.5 c 128,-1,16
 545 232 545 232 545 339 c 128,-1,17
 545 446 545 446 496 508 c 128,-1,18
 447 570 447 570 361 570 c 0,19,20
 276 570 276 570 227 508 c 128,-1,21
 178 446 178 446 178 339 c 0,11,12
304 785 m 0,22,23
 280 785 280 785 265 775.5 c 128,-1,24
 250 766 250 766 232 741 c 1,25,-1
 175 794 l 1,26,27
 191 827 191 827 220.5 849.5 c 128,-1,28
 250 872 250 872 286 872 c 0,29,30
 320 872 320 872 361 853 c 128,-1,31
 402 834 402 834 421 834 c 0,32,33
 464 834 464 834 485 877 c 1,34,-1
 549 826 l 1,35,36
 510 747 510 747 427 747 c 0,37,38
 396 747 396 747 358 766 c 128,-1,39
 320 785 320 785 304 785 c 0,22,23
EndSplineSet
EndChar

StartChar: Odieresis
Encoding: 214 214 151
Width: 723
GlyphClass: 2
Flags: W
LayerCount: 2
Fore
SplineSet
680 339 m 0,0,1
 680 183 680 183 593.5 88 c 128,-1,2
 507 -7 507 -7 362 -7 c 128,-1,3
 217 -7 217 -7 130 88 c 128,-1,4
 43 183 43 183 43 339 c 0,5,6
 43 496 43 496 129.5 591 c 128,-1,7
 216 686 216 686 361 686 c 0,8,9
 508 686 508 686 594 591.5 c 128,-1,10
 680 497 680 497 680 339 c 0,0,1
178 339 m 0,11,12
 178 233 178 233 228 171 c 128,-1,13
 278 109 278 109 362 109 c 0,14,15
 447 109 447 109 496 170.5 c 128,-1,16
 545 232 545 232 545 339 c 128,-1,17
 545 446 545 446 496 508 c 128,-1,18
 447 570 447 570 361 570 c 0,19,20
 276 570 276 570 227 508 c 128,-1,21
 178 446 178 446 178 339 c 0,11,12
560 809 m 0,22,23
 560 779 560 779 540 759 c 128,-1,24
 520 739 520 739 489 739 c 0,25,26
 459 739 459 739 438.5 759 c 128,-1,27
 418 779 418 779 418 809 c 0,28,29
 418 838 418 838 438.5 858 c 128,-1,30
 459 878 459 878 489 878 c 0,31,32
 520 878 520 878 540 858 c 128,-1,33
 560 838 560 838 560 809 c 0,22,23
317 809 m 0,34,35
 317 779 317 779 297 759 c 128,-1,36
 277 739 277 739 247 739 c 0,37,38
 216 739 216 739 196 759 c 128,-1,39
 176 779 176 779 176 809 c 0,40,41
 176 838 176 838 196 858 c 128,-1,42
 216 878 216 878 247 878 c 0,43,44
 277 878 277 878 297 858 c 128,-1,45
 317 838 317 838 317 809 c 0,34,35
EndSplineSet
EndChar

StartChar: multiply
Encoding: 215 215 152
Width: 515
GlyphClass: 2
Flags: W
LayerCount: 2
Fore
SplineSet
465 209 m 1,0,-1
 388 133 l 1,1,-1
 258 262 l 1,2,-1
 129 134 l 1,3,-1
 51 212 l 1,4,-1
 179 340 l 1,5,-1
 48 471 l 1,6,-1
 125 548 l 1,7,-1
 256 417 l 1,8,-1
 386 547 l 1,9,-1
 465 469 l 1,10,-1
 335 339 l 1,11,-1
 465 209 l 1,0,-1
EndSplineSet
EndChar

StartChar: Oslash
Encoding: 216 216 153
Width: 699
GlyphClass: 2
Flags: W
LayerCount: 2
Fore
SplineSet
676 339 m 0,0,1
 676 183 676 183 589.5 88 c 128,-1,2
 503 -7 503 -7 358 -7 c 0,3,4
 264 -7 264 -7 194 34 c 1,5,-1
 163 -8 l 1,6,-1
 40 -8 l 1,7,-1
 118 97 l 1,8,9
 39 190 39 190 39 339 c 0,10,11
 39 496 39 496 125.5 591 c 128,-1,12
 212 686 212 686 357 686 c 0,13,14
 451 686 451 686 524 644 c 1,15,-1
 554 685 l 1,16,-1
 677 685 l 1,17,-1
 599 580 l 1,18,19
 676 488 676 488 676 339 c 0,0,1
169 339 m 0,20,21
 169 260 169 260 196 203 c 1,22,-1
 454 550 l 1,23,24
 413 576 413 576 357 576 c 0,25,26
 270 576 270 576 219.5 512.5 c 128,-1,27
 169 449 169 449 169 339 c 0,20,21
358 103 m 0,28,29
 445 103 445 103 495.5 166.5 c 128,-1,30
 546 230 546 230 546 339 c 0,31,32
 546 417 546 417 520 474 c 1,33,-1
 264 128 l 1,34,35
 302 103 302 103 358 103 c 0,28,29
EndSplineSet
EndChar

StartChar: Ugrave
Encoding: 217 217 154
Width: 659
GlyphClass: 2
Flags: W
LayerCount: 2
Fore
SplineSet
593 259 m 2,0,1
 593 128 593 128 522.5 59.5 c 128,-1,2
 452 -9 452 -9 329 -9 c 0,3,4
 209 -9 209 -9 137.5 58.5 c 128,-1,5
 66 126 66 126 66 252 c 2,6,-1
 66 674 l 1,7,-1
 192 674 l 1,8,-1
 192 253 l 2,9,10
 192 176 192 176 230 141.5 c 128,-1,11
 268 107 268 107 329 107 c 0,12,13
 467 107 467 107 467 258 c 2,14,-1
 467 674 l 1,15,-1
 593 674 l 1,16,-1
 593 259 l 2,0,1
386 723 m 1,17,-1
 285 723 l 1,18,-1
 169 892 l 1,19,-1
 295 892 l 1,20,-1
 386 723 l 1,17,-1
EndSplineSet
EndChar

StartChar: Uacute
Encoding: 218 218 155
Width: 659
GlyphClass: 2
Flags: W
LayerCount: 2
Fore
SplineSet
593 259 m 2,0,1
 593 128 593 128 522.5 59.5 c 128,-1,2
 452 -9 452 -9 329 -9 c 0,3,4
 209 -9 209 -9 137.5 58.5 c 128,-1,5
 66 126 66 126 66 252 c 2,6,-1
 66 674 l 1,7,-1
 192 674 l 1,8,-1
 192 253 l 2,9,10
 192 176 192 176 230 141.5 c 128,-1,11
 268 107 268 107 329 107 c 0,12,13
 467 107 467 107 467 258 c 2,14,-1
 467 674 l 1,15,-1
 593 674 l 1,16,-1
 593 259 l 2,0,1
393 723 m 1,17,-1
 292 723 l 1,18,-1
 383 892 l 1,19,-1
 509 892 l 1,20,-1
 393 723 l 1,17,-1
EndSplineSet
EndChar

StartChar: Ucircumflex
Encoding: 219 219 156
Width: 659
GlyphClass: 2
Flags: W
LayerCount: 2
Fore
SplineSet
593 259 m 2,0,1
 593 128 593 128 522.5 59.5 c 128,-1,2
 452 -9 452 -9 329 -9 c 0,3,4
 209 -9 209 -9 137.5 58.5 c 128,-1,5
 66 126 66 126 66 252 c 2,6,-1
 66 674 l 1,7,-1
 192 674 l 1,8,-1
 192 253 l 2,9,10
 192 176 192 176 230 141.5 c 128,-1,11
 268 107 268 107 329 107 c 0,12,13
 467 107 467 107 467 258 c 2,14,-1
 467 674 l 1,15,-1
 593 674 l 1,16,-1
 593 259 l 2,0,1
248 723 m 1,17,-1
 131 723 l 1,18,-1
 276 892 l 1,19,-1
 382 892 l 1,20,-1
 527 723 l 1,21,-1
 410 723 l 1,22,-1
 329 822 l 1,23,-1
 248 723 l 1,17,-1
EndSplineSet
EndChar

StartChar: Udieresis
Encoding: 220 220 157
Width: 659
GlyphClass: 2
Flags: W
LayerCount: 2
Fore
SplineSet
593 259 m 2,0,1
 593 128 593 128 522.5 59.5 c 128,-1,2
 452 -9 452 -9 329 -9 c 0,3,4
 209 -9 209 -9 137.5 58.5 c 128,-1,5
 66 126 66 126 66 252 c 2,6,-1
 66 674 l 1,7,-1
 192 674 l 1,8,-1
 192 253 l 2,9,10
 192 176 192 176 230 141.5 c 128,-1,11
 268 107 268 107 329 107 c 0,12,13
 467 107 467 107 467 258 c 2,14,-1
 467 674 l 1,15,-1
 593 674 l 1,16,-1
 593 259 l 2,0,1
525 808 m 0,17,18
 525 778 525 778 505 758 c 128,-1,19
 485 738 485 738 454 738 c 0,20,21
 424 738 424 738 403.5 758 c 128,-1,22
 383 778 383 778 383 808 c 0,23,24
 383 837 383 837 403.5 857 c 128,-1,25
 424 877 424 877 454 877 c 0,26,27
 485 877 485 877 505 857 c 128,-1,28
 525 837 525 837 525 808 c 0,17,18
282 808 m 0,29,30
 282 778 282 778 262 758 c 128,-1,31
 242 738 242 738 212 738 c 0,32,33
 181 738 181 738 161 758 c 128,-1,34
 141 778 141 778 141 808 c 0,35,36
 141 837 141 837 161 857 c 128,-1,37
 181 877 181 877 212 877 c 0,38,39
 242 877 242 877 262 857 c 128,-1,40
 282 837 282 837 282 808 c 0,29,30
EndSplineSet
EndChar

StartChar: Yacute
Encoding: 221 221 158
Width: 624
GlyphClass: 2
Flags: W
LayerCount: 2
Fore
SplineSet
374 0 m 1,0,-1
 248 0 l 1,1,-1
 248 246 l 1,2,-1
 18 674 l 1,3,-1
 165 674 l 1,4,-1
 210 576 l 2,5,6
 249 491 249 491 274 433.5 c 128,-1,7
 299 376 299 376 304 362 c 2,8,-1
 310 347 l 1,9,10
 319 384 319 384 413 576 c 2,11,-1
 459 674 l 1,12,-1
 606 674 l 1,13,-1
 374 250 l 1,14,-1
 374 0 l 1,0,-1
378 723 m 1,15,-1
 277 723 l 1,16,-1
 368 892 l 1,17,-1
 494 892 l 1,18,-1
 378 723 l 1,15,-1
EndSplineSet
EndChar

StartChar: Thorn
Encoding: 222 222 159
Width: 553
GlyphClass: 2
Flags: W
LayerCount: 2
Fore
SplineSet
281 115 m 2,0,-1
 196 115 l 1,1,-1
 196 0 l 1,2,-1
 70 0 l 1,3,-1
 70 674 l 1,4,-1
 196 674 l 1,5,-1
 196 559 l 1,6,-1
 278 559 l 2,7,8
 394 559 394 559 461.5 497 c 128,-1,9
 529 435 529 435 529 338 c 0,10,11
 529 235 529 235 459.5 175 c 128,-1,12
 390 115 390 115 281 115 c 2,0,-1
271 456 m 2,13,-1
 196 456 l 1,14,-1
 196 217 l 1,15,-1
 275 217 l 2,16,17
 338 217 338 217 369.5 250 c 128,-1,18
 401 283 401 283 401 334 c 0,19,20
 401 386 401 386 370 421 c 128,-1,21
 339 456 339 456 271 456 c 2,13,-1
EndSplineSet
EndChar

StartChar: germandbls
Encoding: 223 223 160
Width: 576
GlyphClass: 2
Flags: W
LayerCount: 2
Fore
SplineSet
553 151 m 0,0,1
 553 80 553 80 505.5 36 c 128,-1,2
 458 -8 458 -8 377 -8 c 0,3,4
 305 -8 305 -8 272 11 c 1,5,-1
 272 117 l 1,6,7
 317 89 317 89 367 89 c 0,8,9
 399 89 399 89 419 105 c 128,-1,10
 439 121 439 121 439 148 c 128,-1,11
 439 175 439 175 416 199.5 c 128,-1,12
 393 224 393 224 365.5 240.5 c 128,-1,13
 338 257 338 257 315 286.5 c 128,-1,14
 292 316 292 316 292 351 c 0,15,16
 292 391 292 391 325 439.5 c 128,-1,17
 358 488 358 488 358 517 c 0,18,19
 358 547 358 547 338 565 c 128,-1,20
 318 583 318 583 282 583 c 0,21,22
 184 583 184 583 184 481 c 2,23,-1
 184 0 l 1,24,-1
 66 0 l 1,25,-1
 66 474 l 2,26,27
 66 579 66 579 121.5 634.5 c 128,-1,28
 177 690 177 690 278 690 c 0,29,30
 369 690 369 690 424.5 641.5 c 128,-1,31
 480 593 480 593 480 526 c 0,32,33
 480 485 480 485 464 454 c 128,-1,34
 448 423 448 423 432.5 401.5 c 128,-1,35
 417 380 417 380 417 363 c 0,36,37
 417 348 417 348 438.5 329 c 128,-1,38
 460 310 460 310 485 291.5 c 128,-1,39
 510 273 510 273 531.5 235.5 c 128,-1,40
 553 198 553 198 553 151 c 0,0,1
EndSplineSet
EndChar

StartChar: agrave
Encoding: 224 224 161
Width: 507
GlyphClass: 2
Flags: W
LayerCount: 2
Fore
SplineSet
239 85 m 0,0,1
 279 85 279 85 301.5 108.5 c 128,-1,2
 324 132 324 132 324 170 c 2,3,-1
 324 218 l 1,4,-1
 262 218 l 2,5,6
 215 218 215 218 190 198.5 c 128,-1,7
 165 179 165 179 165 149 c 0,8,9
 165 85 165 85 239 85 c 0,0,1
329 61 m 1,10,11
 294 -4 294 -4 197 -4 c 0,12,13
 125 -4 125 -4 82.5 38 c 128,-1,14
 40 80 40 80 40 144 c 0,15,16
 40 216 40 216 94 257 c 128,-1,17
 148 298 148 298 250 298 c 2,18,-1
 324 298 l 1,19,-1
 324 329 l 2,20,21
 324 371 324 371 302 393 c 128,-1,22
 280 415 280 415 227 415 c 0,23,24
 146 415 146 415 78 370 c 1,25,-1
 78 481 l 1,26,27
 135 516 135 516 242 516 c 0,28,29
 448 516 448 516 448 324 c 2,30,-1
 448 0 l 1,31,-1
 329 0 l 1,32,-1
 329 61 l 1,10,11
313 556 m 1,33,-1
 212 556 l 1,34,-1
 96 725 l 1,35,-1
 222 725 l 1,36,-1
 313 556 l 1,33,-1
EndSplineSet
EndChar

StartChar: aacute
Encoding: 225 225 162
Width: 507
GlyphClass: 2
Flags: W
LayerCount: 2
Fore
SplineSet
239 85 m 0,0,1
 279 85 279 85 301.5 108.5 c 128,-1,2
 324 132 324 132 324 170 c 2,3,-1
 324 218 l 1,4,-1
 262 218 l 2,5,6
 215 218 215 218 190 198.5 c 128,-1,7
 165 179 165 179 165 149 c 0,8,9
 165 85 165 85 239 85 c 0,0,1
329 61 m 1,10,11
 294 -4 294 -4 197 -4 c 0,12,13
 125 -4 125 -4 82.5 38 c 128,-1,14
 40 80 40 80 40 144 c 0,15,16
 40 216 40 216 94 257 c 128,-1,17
 148 298 148 298 250 298 c 2,18,-1
 324 298 l 1,19,-1
 324 329 l 2,20,21
 324 371 324 371 302 393 c 128,-1,22
 280 415 280 415 227 415 c 0,23,24
 146 415 146 415 78 370 c 1,25,-1
 78 481 l 1,26,27
 135 516 135 516 242 516 c 0,28,29
 448 516 448 516 448 324 c 2,30,-1
 448 0 l 1,31,-1
 329 0 l 1,32,-1
 329 61 l 1,10,11
306 556 m 1,33,-1
 205 556 l 1,34,-1
 296 725 l 1,35,-1
 422 725 l 1,36,-1
 306 556 l 1,33,-1
EndSplineSet
EndChar

StartChar: acircumflex
Encoding: 226 226 163
Width: 507
GlyphClass: 2
Flags: W
LayerCount: 2
Fore
SplineSet
239 85 m 0,0,1
 279 85 279 85 301.5 108.5 c 128,-1,2
 324 132 324 132 324 170 c 2,3,-1
 324 218 l 1,4,-1
 262 218 l 2,5,6
 215 218 215 218 190 198.5 c 128,-1,7
 165 179 165 179 165 149 c 0,8,9
 165 85 165 85 239 85 c 0,0,1
329 61 m 1,10,11
 294 -4 294 -4 197 -4 c 0,12,13
 125 -4 125 -4 82.5 38 c 128,-1,14
 40 80 40 80 40 144 c 0,15,16
 40 216 40 216 94 257 c 128,-1,17
 148 298 148 298 250 298 c 2,18,-1
 324 298 l 1,19,-1
 324 329 l 2,20,21
 324 371 324 371 302 393 c 128,-1,22
 280 415 280 415 227 415 c 0,23,24
 146 415 146 415 78 370 c 1,25,-1
 78 481 l 1,26,27
 135 516 135 516 242 516 c 0,28,29
 448 516 448 516 448 324 c 2,30,-1
 448 0 l 1,31,-1
 329 0 l 1,32,-1
 329 61 l 1,10,11
174 556 m 1,33,-1
 57 556 l 1,34,-1
 202 725 l 1,35,-1
 308 725 l 1,36,-1
 453 556 l 1,37,-1
 336 556 l 1,38,-1
 255 655 l 1,39,-1
 174 556 l 1,33,-1
EndSplineSet
EndChar

StartChar: atilde
Encoding: 227 227 164
Width: 507
GlyphClass: 2
Flags: W
LayerCount: 2
Fore
SplineSet
239 85 m 0,0,1
 279 85 279 85 301.5 108.5 c 128,-1,2
 324 132 324 132 324 170 c 2,3,-1
 324 218 l 1,4,-1
 262 218 l 2,5,6
 215 218 215 218 190 198.5 c 128,-1,7
 165 179 165 179 165 149 c 0,8,9
 165 85 165 85 239 85 c 0,0,1
329 61 m 1,10,11
 294 -4 294 -4 197 -4 c 0,12,13
 125 -4 125 -4 82.5 38 c 128,-1,14
 40 80 40 80 40 144 c 0,15,16
 40 216 40 216 94 257 c 128,-1,17
 148 298 148 298 250 298 c 2,18,-1
 324 298 l 1,19,-1
 324 329 l 2,20,21
 324 371 324 371 302 393 c 128,-1,22
 280 415 280 415 227 415 c 0,23,24
 146 415 146 415 78 370 c 1,25,-1
 78 481 l 1,26,27
 135 516 135 516 242 516 c 0,28,29
 448 516 448 516 448 324 c 2,30,-1
 448 0 l 1,31,-1
 329 0 l 1,32,-1
 329 61 l 1,10,11
196 618 m 0,33,34
 172 618 172 618 157 608.5 c 128,-1,35
 142 599 142 599 124 574 c 1,36,-1
 67 627 l 1,37,38
 83 660 83 660 112.5 682.5 c 128,-1,39
 142 705 142 705 178 705 c 0,40,41
 212 705 212 705 253 686 c 128,-1,42
 294 667 294 667 313 667 c 0,43,44
 356 667 356 667 377 710 c 1,45,-1
 441 659 l 1,46,47
 402 580 402 580 319 580 c 0,48,49
 288 580 288 580 250 599 c 128,-1,50
 212 618 212 618 196 618 c 0,33,34
EndSplineSet
EndChar

StartChar: adieresis
Encoding: 228 228 165
Width: 507
GlyphClass: 2
Flags: W
LayerCount: 2
Fore
SplineSet
239 85 m 0,0,1
 279 85 279 85 301.5 108.5 c 128,-1,2
 324 132 324 132 324 170 c 2,3,-1
 324 218 l 1,4,-1
 262 218 l 2,5,6
 215 218 215 218 190 198.5 c 128,-1,7
 165 179 165 179 165 149 c 0,8,9
 165 85 165 85 239 85 c 0,0,1
329 61 m 1,10,11
 294 -4 294 -4 197 -4 c 0,12,13
 125 -4 125 -4 82.5 38 c 128,-1,14
 40 80 40 80 40 144 c 0,15,16
 40 216 40 216 94 257 c 128,-1,17
 148 298 148 298 250 298 c 2,18,-1
 324 298 l 1,19,-1
 324 329 l 2,20,21
 324 371 324 371 302 393 c 128,-1,22
 280 415 280 415 227 415 c 0,23,24
 146 415 146 415 78 370 c 1,25,-1
 78 481 l 1,26,27
 135 516 135 516 242 516 c 0,28,29
 448 516 448 516 448 324 c 2,30,-1
 448 0 l 1,31,-1
 329 0 l 1,32,-1
 329 61 l 1,10,11
452 640 m 0,33,34
 452 610 452 610 432 590 c 128,-1,35
 412 570 412 570 381 570 c 0,36,37
 351 570 351 570 330.5 590 c 128,-1,38
 310 610 310 610 310 640 c 0,39,40
 310 669 310 669 330.5 689 c 128,-1,41
 351 709 351 709 381 709 c 0,42,43
 412 709 412 709 432 689 c 128,-1,44
 452 669 452 669 452 640 c 0,33,34
209 640 m 0,45,46
 209 610 209 610 189 590 c 128,-1,47
 169 570 169 570 139 570 c 0,48,49
 108 570 108 570 88 590 c 128,-1,50
 68 610 68 610 68 640 c 0,51,52
 68 669 68 669 88 689 c 128,-1,53
 108 709 108 709 139 709 c 0,54,55
 169 709 169 709 189 689 c 128,-1,56
 209 669 209 669 209 640 c 0,45,46
EndSplineSet
EndChar

StartChar: aring
Encoding: 229 229 166
Width: 507
GlyphClass: 2
Flags: W
LayerCount: 2
Fore
SplineSet
239 85 m 0,0,1
 279 85 279 85 301.5 108.5 c 128,-1,2
 324 132 324 132 324 170 c 2,3,-1
 324 218 l 1,4,-1
 262 218 l 2,5,6
 215 218 215 218 190 198.5 c 128,-1,7
 165 179 165 179 165 149 c 0,8,9
 165 85 165 85 239 85 c 0,0,1
329 61 m 1,10,11
 294 -4 294 -4 197 -4 c 0,12,13
 125 -4 125 -4 82.5 38 c 128,-1,14
 40 80 40 80 40 144 c 0,15,16
 40 216 40 216 94 257 c 128,-1,17
 148 298 148 298 250 298 c 2,18,-1
 324 298 l 1,19,-1
 324 329 l 2,20,21
 324 371 324 371 302 393 c 128,-1,22
 280 415 280 415 227 415 c 0,23,24
 146 415 146 415 78 370 c 1,25,-1
 78 481 l 1,26,27
 135 516 135 516 242 516 c 0,28,29
 448 516 448 516 448 324 c 2,30,-1
 448 0 l 1,31,-1
 329 0 l 1,32,-1
 329 61 l 1,10,11
383 670 m 128,-1,34
 383 618 383 618 346.5 581.5 c 128,-1,35
 310 545 310 545 258 545 c 128,-1,36
 206 545 206 545 169.5 581.5 c 128,-1,37
 133 618 133 618 133 670 c 128,-1,38
 133 722 133 722 169.5 758.5 c 128,-1,39
 206 795 206 795 258 795 c 128,-1,40
 310 795 310 795 346.5 758.5 c 128,-1,33
 383 722 383 722 383 670 c 128,-1,34
205 672 m 128,-1,42
 205 650 205 650 220 633.5 c 128,-1,43
 235 617 235 617 258 617 c 128,-1,44
 281 617 281 617 296 633.5 c 128,-1,45
 311 650 311 650 311 672 c 128,-1,46
 311 694 311 694 296 710.5 c 128,-1,47
 281 727 281 727 258 727 c 128,-1,48
 235 727 235 727 220 710.5 c 128,-1,41
 205 694 205 694 205 672 c 128,-1,42
EndSplineSet
EndChar

StartChar: ae
Encoding: 230 230 167
Width: 812
GlyphClass: 2
Flags: W
LayerCount: 2
Fore
SplineSet
394 92 m 1,0,1
 376 51 376 51 331.5 23.5 c 128,-1,2
 287 -4 287 -4 217 -4 c 0,3,4
 136 -4 136 -4 90.5 35.5 c 128,-1,5
 45 75 45 75 45 143 c 0,6,7
 45 216 45 216 99.5 257 c 128,-1,8
 154 298 154 298 256 298 c 2,9,-1
 329 298 l 1,10,-1
 329 329 l 2,11,12
 329 371 329 371 307 393 c 128,-1,13
 285 415 285 415 232 415 c 0,14,15
 149 415 149 415 83 370 c 1,16,-1
 83 481 l 1,17,18
 143 516 143 516 240 516 c 0,19,20
 359 516 359 516 395 435 c 1,21,22
 447 512 447 512 559 512 c 0,23,24
 659 512 659 512 715.5 452 c 128,-1,25
 772 392 772 392 772 275 c 0,26,27
 772 249 772 249 765 205 c 1,28,-1
 449 205 l 1,29,30
 462 151 462 151 504 121.5 c 128,-1,31
 546 92 546 92 605 92 c 0,32,33
 684 92 684 92 739 132 c 1,34,-1
 739 28 l 1,35,36
 685 -5 685 -5 592 -5 c 0,37,38
 532 -5 532 -5 477.5 20 c 128,-1,39
 423 45 423 45 394 92 c 1,0,1
170 149 m 0,40,41
 170 86 170 86 244 86 c 0,42,43
 282 86 282 86 305.5 109.5 c 128,-1,44
 329 133 329 133 329 173 c 2,45,-1
 329 217 l 1,46,-1
 272 217 l 2,47,48
 223 217 223 217 196.5 199 c 128,-1,49
 170 181 170 181 170 149 c 0,40,41
562 418 m 0,50,51
 520 418 520 418 487.5 386.5 c 128,-1,52
 455 355 455 355 446 295 c 1,53,-1
 658 295 l 1,54,-1
 658 309 l 2,55,56
 656 360 656 360 631.5 389 c 128,-1,57
 607 418 607 418 562 418 c 0,50,51
EndSplineSet
EndChar

StartChar: ccedilla
Encoding: 231 231 168
Width: 470
GlyphClass: 2
Flags: W
LayerCount: 2
Fore
SplineSet
432 22 m 1,0,1
 379 -9 379 -9 300 -9 c 0,2,3
 183 -9 183 -9 110.5 65 c 128,-1,4
 38 139 38 139 38 252 c 0,5,6
 39 363 39 363 110.5 439 c 128,-1,7
 182 515 182 515 306 515 c 0,8,9
 380 515 380 515 432 487 c 1,10,-1
 432 381 l 1,11,12
 382 413 382 413 318 413 c 0,13,14
 248 413 248 413 205 369 c 128,-1,15
 162 325 162 325 161 252 c 0,16,17
 163 180 163 180 204.5 136 c 128,-1,18
 246 92 246 92 317 92 c 0,19,20
 379 92 379 92 432 126 c 1,21,-1
 432 22 l 1,0,1
358 -124 m 0,22,23
 358 -183 358 -183 315 -222 c 128,-1,24
 272 -261 272 -261 189 -262 c 1,25,-1
 189 -184 l 1,26,27
 268 -181 268 -181 268 -117 c 0,28,29
 268 -88 268 -88 243 -51 c 1,30,-1
 340 -51 l 1,31,32
 358 -78 358 -78 358 -124 c 0,22,23
EndSplineSet
EndChar

StartChar: egrave
Encoding: 232 232 169
Width: 529
GlyphClass: 2
Flags: W
LayerCount: 2
Fore
SplineSet
452 28 m 1,0,1
 399 -5 399 -5 299 -5 c 0,2,3
 178 -5 178 -5 108 67 c 128,-1,4
 38 139 38 139 38 253 c 0,5,6
 38 374 38 374 104 443 c 128,-1,7
 170 512 170 512 269 512 c 128,-1,8
 368 512 368 512 426 452 c 128,-1,9
 484 392 484 392 484 277 c 0,10,11
 484 249 484 249 477 205 c 1,12,-1
 159 205 l 1,13,14
 172 150 172 150 213.5 121 c 128,-1,15
 255 92 255 92 317 92 c 0,16,17
 397 92 397 92 452 132 c 1,18,-1
 452 28 l 1,0,1
272 418 m 0,19,20
 229 418 229 418 197.5 386.5 c 128,-1,21
 166 355 166 355 157 295 c 1,22,-1
 370 295 l 1,23,-1
 370 310 l 2,24,25
 368 359 368 359 343.5 388.5 c 128,-1,26
 319 418 319 418 272 418 c 0,19,20
329 556 m 1,27,-1
 228 556 l 1,28,-1
 112 725 l 1,29,-1
 238 725 l 1,30,-1
 329 556 l 1,27,-1
EndSplineSet
EndChar

StartChar: eacute
Encoding: 233 233 170
Width: 529
GlyphClass: 2
Flags: W
LayerCount: 2
Fore
SplineSet
452 28 m 1,0,1
 399 -5 399 -5 299 -5 c 0,2,3
 178 -5 178 -5 108 67 c 128,-1,4
 38 139 38 139 38 253 c 0,5,6
 38 374 38 374 104 443 c 128,-1,7
 170 512 170 512 269 512 c 128,-1,8
 368 512 368 512 426 452 c 128,-1,9
 484 392 484 392 484 277 c 0,10,11
 484 249 484 249 477 205 c 1,12,-1
 159 205 l 1,13,14
 172 150 172 150 213.5 121 c 128,-1,15
 255 92 255 92 317 92 c 0,16,17
 397 92 397 92 452 132 c 1,18,-1
 452 28 l 1,0,1
272 418 m 0,19,20
 229 418 229 418 197.5 386.5 c 128,-1,21
 166 355 166 355 157 295 c 1,22,-1
 370 295 l 1,23,-1
 370 310 l 2,24,25
 368 359 368 359 343.5 388.5 c 128,-1,26
 319 418 319 418 272 418 c 0,19,20
336 556 m 1,27,-1
 235 556 l 1,28,-1
 326 725 l 1,29,-1
 452 725 l 1,30,-1
 336 556 l 1,27,-1
EndSplineSet
EndChar

StartChar: ecircumflex
Encoding: 234 234 171
Width: 529
GlyphClass: 2
Flags: W
LayerCount: 2
Fore
SplineSet
452 28 m 1,0,1
 399 -5 399 -5 299 -5 c 0,2,3
 178 -5 178 -5 108 67 c 128,-1,4
 38 139 38 139 38 253 c 0,5,6
 38 374 38 374 104 443 c 128,-1,7
 170 512 170 512 269 512 c 128,-1,8
 368 512 368 512 426 452 c 128,-1,9
 484 392 484 392 484 277 c 0,10,11
 484 249 484 249 477 205 c 1,12,-1
 159 205 l 1,13,14
 172 150 172 150 213.5 121 c 128,-1,15
 255 92 255 92 317 92 c 0,16,17
 397 92 397 92 452 132 c 1,18,-1
 452 28 l 1,0,1
272 418 m 0,19,20
 229 418 229 418 197.5 386.5 c 128,-1,21
 166 355 166 355 157 295 c 1,22,-1
 370 295 l 1,23,-1
 370 310 l 2,24,25
 368 359 368 359 343.5 388.5 c 128,-1,26
 319 418 319 418 272 418 c 0,19,20
193 556 m 1,27,-1
 76 556 l 1,28,-1
 221 725 l 1,29,-1
 327 725 l 1,30,-1
 472 556 l 1,31,-1
 355 556 l 1,32,-1
 274 655 l 1,33,-1
 193 556 l 1,27,-1
EndSplineSet
EndChar

StartChar: edieresis
Encoding: 235 235 172
Width: 529
GlyphClass: 2
Flags: W
LayerCount: 2
Fore
SplineSet
452 28 m 1,0,1
 399 -5 399 -5 299 -5 c 0,2,3
 178 -5 178 -5 108 67 c 128,-1,4
 38 139 38 139 38 253 c 0,5,6
 38 374 38 374 104 443 c 128,-1,7
 170 512 170 512 269 512 c 128,-1,8
 368 512 368 512 426 452 c 128,-1,9
 484 392 484 392 484 277 c 0,10,11
 484 249 484 249 477 205 c 1,12,-1
 159 205 l 1,13,14
 172 150 172 150 213.5 121 c 128,-1,15
 255 92 255 92 317 92 c 0,16,17
 397 92 397 92 452 132 c 1,18,-1
 452 28 l 1,0,1
272 418 m 0,19,20
 229 418 229 418 197.5 386.5 c 128,-1,21
 166 355 166 355 157 295 c 1,22,-1
 370 295 l 1,23,-1
 370 310 l 2,24,25
 368 359 368 359 343.5 388.5 c 128,-1,26
 319 418 319 418 272 418 c 0,19,20
475 641 m 0,27,28
 475 611 475 611 455 591 c 128,-1,29
 435 571 435 571 404 571 c 0,30,31
 374 571 374 571 353.5 591 c 128,-1,32
 333 611 333 611 333 641 c 0,33,34
 333 670 333 670 353.5 690 c 128,-1,35
 374 710 374 710 404 710 c 0,36,37
 435 710 435 710 455 690 c 128,-1,38
 475 670 475 670 475 641 c 0,27,28
232 641 m 0,39,40
 232 611 232 611 212 591 c 128,-1,41
 192 571 192 571 162 571 c 0,42,43
 131 571 131 571 111 591 c 128,-1,44
 91 611 91 611 91 641 c 0,45,46
 91 670 91 670 111 690 c 128,-1,47
 131 710 131 710 162 710 c 0,48,49
 192 710 192 710 212 690 c 128,-1,50
 232 670 232 670 232 641 c 0,39,40
EndSplineSet
EndChar

StartChar: igrave
Encoding: 236 236 173
Width: 260
GlyphClass: 2
Flags: W
LayerCount: 2
Fore
SplineSet
190 0 m 1,0,-1
 70 0 l 1,1,-1
 70 507 l 1,2,-1
 190 507 l 1,3,-1
 190 0 l 1,0,-1
172 556 m 1,4,-1
 71 556 l 1,5,-1
 -45 725 l 1,6,-1
 81 725 l 1,7,-1
 172 556 l 1,4,-1
EndSplineSet
EndChar

StartChar: iacute
Encoding: 237 237 174
Width: 260
GlyphClass: 2
Flags: W
LayerCount: 2
Fore
SplineSet
190 0 m 1,0,-1
 70 0 l 1,1,-1
 70 507 l 1,2,-1
 190 507 l 1,3,-1
 190 0 l 1,0,-1
187 556 m 1,4,-1
 86 556 l 1,5,-1
 177 725 l 1,6,-1
 303 725 l 1,7,-1
 187 556 l 1,4,-1
EndSplineSet
EndChar

StartChar: icircumflex
Encoding: 238 238 175
Width: 260
GlyphClass: 2
Flags: W
LayerCount: 2
Fore
SplineSet
190 0 m 1,0,-1
 70 0 l 1,1,-1
 70 507 l 1,2,-1
 190 507 l 1,3,-1
 190 0 l 1,0,-1
50 556 m 1,4,-1
 -67 556 l 1,5,-1
 78 725 l 1,6,-1
 184 725 l 1,7,-1
 329 556 l 1,8,-1
 212 556 l 1,9,-1
 131 655 l 1,10,-1
 50 556 l 1,4,-1
EndSplineSet
EndChar

StartChar: idieresis
Encoding: 239 239 176
Width: 260
GlyphClass: 2
Flags: W
LayerCount: 2
Fore
SplineSet
190 0 m 1,0,-1
 70 0 l 1,1,-1
 70 507 l 1,2,-1
 190 507 l 1,3,-1
 190 0 l 1,0,-1
323 642 m 0,4,5
 323 612 323 612 303 592 c 128,-1,6
 283 572 283 572 252 572 c 0,7,8
 222 572 222 572 201.5 592 c 128,-1,9
 181 612 181 612 181 642 c 0,10,11
 181 671 181 671 201.5 691 c 128,-1,12
 222 711 222 711 252 711 c 0,13,14
 283 711 283 711 303 691 c 128,-1,15
 323 671 323 671 323 642 c 0,4,5
80 642 m 0,16,17
 80 612 80 612 60 592 c 128,-1,18
 40 572 40 572 10 572 c 0,19,20
 -21 572 -21 572 -41 592 c 128,-1,21
 -61 612 -61 612 -61 642 c 0,22,23
 -61 671 -61 671 -41 691 c 128,-1,24
 -21 711 -21 711 10 711 c 0,25,26
 40 711 40 711 60 691 c 128,-1,27
 80 671 80 671 80 642 c 0,16,17
EndSplineSet
EndChar

StartChar: eth
Encoding: 240 240 177
Width: 542
GlyphClass: 2
Flags: W
LayerCount: 2
Fore
SplineSet
495 282 m 0,0,1
 495 146 495 146 434.5 68 c 128,-1,2
 374 -10 374 -10 262 -10 c 0,3,4
 158 -10 158 -10 97 52.5 c 128,-1,5
 36 115 36 115 36 203 c 0,6,7
 36 295 36 295 91.5 349.5 c 128,-1,8
 147 404 147 404 231 404 c 0,9,10
 316 404 316 404 372 348 c 1,11,12
 358 439 358 439 300 521 c 1,13,-1
 159 450 l 1,14,-1
 159 524 l 1,15,-1
 257 573 l 1,16,17
 207 626 207 626 129 674 c 1,18,-1
 290 674 l 1,19,20
 322 653 322 653 354 621 c 1,21,-1
 471 679 l 1,22,-1
 471 606 l 1,23,-1
 397 569 l 1,24,25
 495 437 495 437 495 282 c 0,0,1
261 99 m 0,26,27
 364 99 364 99 375 243 c 1,28,29
 326 300 326 300 258 300 c 0,30,31
 213 300 213 300 186.5 272.5 c 128,-1,32
 160 245 160 245 160 196 c 0,33,34
 160 152 160 152 187.5 125.5 c 128,-1,35
 215 99 215 99 261 99 c 0,26,27
EndSplineSet
EndChar

StartChar: ntilde
Encoding: 241 241 178
Width: 565
GlyphClass: 2
Flags: W
LayerCount: 2
Fore
SplineSet
505 0 m 1,0,-1
 385 0 l 1,1,-1
 385 312 l 2,2,3
 385 362 385 362 361 387.5 c 128,-1,4
 337 413 337 413 296 413 c 0,5,6
 249 413 249 413 217 376.5 c 128,-1,7
 185 340 185 340 185 272 c 2,8,-1
 185 0 l 1,9,-1
 65 0 l 1,10,-1
 65 507 l 1,11,-1
 185 507 l 1,12,-1
 185 420 l 1,13,14
 228 513 228 513 341 513 c 0,15,16
 417 513 417 513 461 467 c 128,-1,17
 505 421 505 421 505 337 c 2,18,-1
 505 0 l 1,0,-1
229 618 m 0,19,20
 205 618 205 618 190 608.5 c 128,-1,21
 175 599 175 599 157 574 c 1,22,-1
 100 627 l 1,23,24
 116 660 116 660 145.5 682.5 c 128,-1,25
 175 705 175 705 211 705 c 0,26,27
 245 705 245 705 286 686 c 128,-1,28
 327 667 327 667 346 667 c 0,29,30
 389 667 389 667 410 710 c 1,31,-1
 474 659 l 1,32,33
 435 580 435 580 352 580 c 0,34,35
 322 580 322 580 283 599 c 128,-1,36
 244 618 244 618 229 618 c 0,19,20
EndSplineSet
EndChar

StartChar: ograve
Encoding: 242 242 179
Width: 565
GlyphClass: 2
Flags: W
LayerCount: 2
Fore
SplineSet
527 255 m 0,0,1
 527 140 527 140 462.5 66 c 128,-1,2
 398 -8 398 -8 282 -8 c 0,3,4
 167 -8 167 -8 102.5 64 c 128,-1,5
 38 136 38 136 38 248 c 0,6,7
 38 364 38 364 105 439.5 c 128,-1,8
 172 515 172 515 282 515 c 0,9,10
 399 515 399 515 463 441.5 c 128,-1,11
 527 368 527 368 527 255 c 0,0,1
164 252 m 0,12,13
 164 182 164 182 195 135 c 128,-1,14
 226 88 226 88 283 88 c 0,15,16
 342 88 342 88 372 134 c 128,-1,17
 402 180 402 180 402 251 c 0,18,19
 402 324 402 324 373 370.5 c 128,-1,20
 344 417 344 417 282 417 c 0,21,22
 225 417 225 417 194.5 370 c 128,-1,23
 164 323 164 323 164 252 c 0,12,13
340 556 m 1,24,-1
 239 556 l 1,25,-1
 123 725 l 1,26,-1
 249 725 l 1,27,-1
 340 556 l 1,24,-1
EndSplineSet
EndChar

StartChar: oacute
Encoding: 243 243 180
Width: 565
GlyphClass: 2
Flags: W
LayerCount: 2
Fore
SplineSet
527 255 m 0,0,1
 527 140 527 140 462.5 66 c 128,-1,2
 398 -8 398 -8 282 -8 c 0,3,4
 167 -8 167 -8 102.5 64 c 128,-1,5
 38 136 38 136 38 248 c 0,6,7
 38 364 38 364 105 439.5 c 128,-1,8
 172 515 172 515 282 515 c 0,9,10
 399 515 399 515 463 441.5 c 128,-1,11
 527 368 527 368 527 255 c 0,0,1
164 252 m 0,12,13
 164 182 164 182 195 135 c 128,-1,14
 226 88 226 88 283 88 c 0,15,16
 342 88 342 88 372 134 c 128,-1,17
 402 180 402 180 402 251 c 0,18,19
 402 324 402 324 373 370.5 c 128,-1,20
 344 417 344 417 282 417 c 0,21,22
 225 417 225 417 194.5 370 c 128,-1,23
 164 323 164 323 164 252 c 0,12,13
345 556 m 1,24,-1
 244 556 l 1,25,-1
 335 725 l 1,26,-1
 461 725 l 1,27,-1
 345 556 l 1,24,-1
EndSplineSet
EndChar

StartChar: ocircumflex
Encoding: 244 244 181
Width: 565
GlyphClass: 2
Flags: W
LayerCount: 2
Fore
SplineSet
527 255 m 0,0,1
 527 140 527 140 462.5 66 c 128,-1,2
 398 -8 398 -8 282 -8 c 0,3,4
 167 -8 167 -8 102.5 64 c 128,-1,5
 38 136 38 136 38 248 c 0,6,7
 38 364 38 364 105 439.5 c 128,-1,8
 172 515 172 515 282 515 c 0,9,10
 399 515 399 515 463 441.5 c 128,-1,11
 527 368 527 368 527 255 c 0,0,1
164 252 m 0,12,13
 164 182 164 182 195 135 c 128,-1,14
 226 88 226 88 283 88 c 0,15,16
 342 88 342 88 372 134 c 128,-1,17
 402 180 402 180 402 251 c 0,18,19
 402 324 402 324 373 370.5 c 128,-1,20
 344 417 344 417 282 417 c 0,21,22
 225 417 225 417 194.5 370 c 128,-1,23
 164 323 164 323 164 252 c 0,12,13
205 555 m 1,24,-1
 88 555 l 1,25,-1
 233 724 l 1,26,-1
 339 724 l 1,27,-1
 484 555 l 1,28,-1
 367 555 l 1,29,-1
 286 654 l 1,30,-1
 205 555 l 1,24,-1
EndSplineSet
EndChar

StartChar: otilde
Encoding: 245 245 182
Width: 565
GlyphClass: 2
Flags: W
LayerCount: 2
Fore
SplineSet
527 255 m 0,0,1
 527 140 527 140 462.5 66 c 128,-1,2
 398 -8 398 -8 282 -8 c 0,3,4
 167 -8 167 -8 102.5 64 c 128,-1,5
 38 136 38 136 38 248 c 0,6,7
 38 364 38 364 105 439.5 c 128,-1,8
 172 515 172 515 282 515 c 0,9,10
 399 515 399 515 463 441.5 c 128,-1,11
 527 368 527 368 527 255 c 0,0,1
164 252 m 0,12,13
 164 182 164 182 195 135 c 128,-1,14
 226 88 226 88 283 88 c 0,15,16
 342 88 342 88 372 134 c 128,-1,17
 402 180 402 180 402 251 c 0,18,19
 402 324 402 324 373 370.5 c 128,-1,20
 344 417 344 417 282 417 c 0,21,22
 225 417 225 417 194.5 370 c 128,-1,23
 164 323 164 323 164 252 c 0,12,13
228 618 m 0,24,25
 204 618 204 618 189 608.5 c 128,-1,26
 174 599 174 599 156 574 c 1,27,-1
 99 627 l 1,28,29
 115 660 115 660 144.5 682.5 c 128,-1,30
 174 705 174 705 210 705 c 0,31,32
 244 705 244 705 285 686 c 128,-1,33
 326 667 326 667 345 667 c 0,34,35
 388 667 388 667 409 710 c 1,36,-1
 473 659 l 1,37,38
 434 580 434 580 351 580 c 0,39,40
 320 580 320 580 282 599 c 128,-1,41
 244 618 244 618 228 618 c 0,24,25
EndSplineSet
EndChar

StartChar: odieresis
Encoding: 246 246 183
Width: 565
GlyphClass: 2
Flags: W
LayerCount: 2
Fore
SplineSet
527 255 m 0,0,1
 527 140 527 140 462.5 66 c 128,-1,2
 398 -8 398 -8 282 -8 c 0,3,4
 167 -8 167 -8 102.5 64 c 128,-1,5
 38 136 38 136 38 248 c 0,6,7
 38 364 38 364 105 439.5 c 128,-1,8
 172 515 172 515 282 515 c 0,9,10
 399 515 399 515 463 441.5 c 128,-1,11
 527 368 527 368 527 255 c 0,0,1
164 252 m 0,12,13
 164 182 164 182 195 135 c 128,-1,14
 226 88 226 88 283 88 c 0,15,16
 342 88 342 88 372 134 c 128,-1,17
 402 180 402 180 402 251 c 0,18,19
 402 324 402 324 373 370.5 c 128,-1,20
 344 417 344 417 282 417 c 0,21,22
 225 417 225 417 194.5 370 c 128,-1,23
 164 323 164 323 164 252 c 0,12,13
485 641 m 0,24,25
 485 611 485 611 465 591 c 128,-1,26
 445 571 445 571 414 571 c 0,27,28
 384 571 384 571 363.5 591 c 128,-1,29
 343 611 343 611 343 641 c 0,30,31
 343 670 343 670 363.5 690 c 128,-1,32
 384 710 384 710 414 710 c 0,33,34
 445 710 445 710 465 690 c 128,-1,35
 485 670 485 670 485 641 c 0,24,25
242 641 m 0,36,37
 242 611 242 611 222 591 c 128,-1,38
 202 571 202 571 172 571 c 0,39,40
 141 571 141 571 121 591 c 128,-1,41
 101 611 101 611 101 641 c 0,42,43
 101 670 101 670 121 690 c 128,-1,44
 141 710 141 710 172 710 c 0,45,46
 202 710 202 710 222 690 c 128,-1,47
 242 670 242 670 242 641 c 0,36,37
EndSplineSet
EndChar

StartChar: divide
Encoding: 247 247 184
Width: 576
GlyphClass: 2
Flags: W
LayerCount: 2
Fore
SplineSet
526 286 m 1,0,-1
 50 286 l 1,1,-1
 50 394 l 1,2,-1
 526 394 l 1,3,-1
 526 286 l 1,0,-1
352 163 m 128,-1,5
 352 136 352 136 332 116 c 128,-1,6
 312 96 312 96 285 96 c 0,7,8
 257 96 257 96 237.5 116 c 128,-1,9
 218 136 218 136 218 163 c 128,-1,10
 218 190 218 190 237.5 210 c 128,-1,11
 257 230 257 230 285 230 c 0,12,13
 312 230 312 230 332 210 c 128,-1,4
 352 190 352 190 352 163 c 128,-1,5
352 517 m 128,-1,15
 352 490 352 490 332 470 c 128,-1,16
 312 450 312 450 285 450 c 0,17,18
 257 450 257 450 237.5 470 c 128,-1,19
 218 490 218 490 218 517 c 128,-1,20
 218 544 218 544 237.5 564 c 128,-1,21
 257 584 257 584 285 584 c 0,22,23
 312 584 312 584 332 564 c 128,-1,14
 352 544 352 544 352 517 c 128,-1,15
EndSplineSet
EndChar

StartChar: oslash
Encoding: 248 248 185
Width: 562
GlyphClass: 2
Flags: W
LayerCount: 2
Fore
SplineSet
532 255 m 0,0,1
 532 140 532 140 467.5 66 c 128,-1,2
 403 -8 403 -8 287 -8 c 0,3,4
 218 -8 218 -8 168 18 c 1,5,-1
 149 -8 l 1,6,-1
 43 -8 l 1,7,-1
 101 71 l 1,8,9
 43 141 43 141 43 248 c 0,10,11
 43 363 43 363 110 439 c 128,-1,12
 177 515 177 515 287 515 c 0,13,14
 356 515 356 515 406 489 c 1,15,-1
 425 515 l 1,16,-1
 532 515 l 1,17,-1
 474 435 l 1,18,19
 532 363 532 363 532 255 c 0,0,1
155 252 m 0,20,21
 155 204 155 204 170 165 c 1,22,-1
 351 414 l 1,23,24
 326 429 326 429 287 429 c 0,25,26
 223 429 223 429 189 378.5 c 128,-1,27
 155 328 155 328 155 252 c 0,20,21
288 76 m 0,28,29
 353 76 353 76 386.5 125 c 128,-1,30
 420 174 420 174 420 251 c 0,31,32
 420 305 420 305 406 343 c 1,33,-1
 224 94 l 1,34,35
 251 76 251 76 288 76 c 0,28,29
EndSplineSet
EndChar

StartChar: ugrave
Encoding: 249 249 186
Width: 565
GlyphClass: 2
Flags: W
LayerCount: 2
Fore
SplineSet
500 0 m 1,0,-1
 379 0 l 1,1,-1
 379 83 l 1,2,3
 339 -5 339 -5 223 -5 c 0,4,5
 146 -5 146 -5 103 39 c 128,-1,6
 60 83 60 83 60 164 c 2,7,-1
 60 507 l 1,8,-1
 180 507 l 1,9,-1
 180 192 l 2,10,11
 180 144 180 144 203.5 119 c 128,-1,12
 227 94 227 94 268 94 c 0,13,14
 320 94 320 94 349.5 129 c 128,-1,15
 379 164 379 164 379 235 c 2,16,-1
 379 507 l 1,17,-1
 500 507 l 1,18,-1
 500 0 l 1,0,-1
333 555 m 1,19,-1
 232 555 l 1,20,-1
 116 724 l 1,21,-1
 242 724 l 1,22,-1
 333 555 l 1,19,-1
EndSplineSet
EndChar

StartChar: uacute
Encoding: 250 250 187
Width: 565
GlyphClass: 2
Flags: W
LayerCount: 2
Fore
SplineSet
500 0 m 1,0,-1
 379 0 l 1,1,-1
 379 83 l 1,2,3
 339 -5 339 -5 223 -5 c 0,4,5
 146 -5 146 -5 103 39 c 128,-1,6
 60 83 60 83 60 164 c 2,7,-1
 60 507 l 1,8,-1
 180 507 l 1,9,-1
 180 192 l 2,10,11
 180 144 180 144 203.5 119 c 128,-1,12
 227 94 227 94 268 94 c 0,13,14
 320 94 320 94 349.5 129 c 128,-1,15
 379 164 379 164 379 235 c 2,16,-1
 379 507 l 1,17,-1
 500 507 l 1,18,-1
 500 0 l 1,0,-1
340 556 m 1,19,-1
 239 556 l 1,20,-1
 330 725 l 1,21,-1
 456 725 l 1,22,-1
 340 556 l 1,19,-1
EndSplineSet
EndChar

StartChar: ucircumflex
Encoding: 251 251 188
Width: 565
GlyphClass: 2
Flags: W
LayerCount: 2
Fore
SplineSet
500 0 m 1,0,-1
 379 0 l 1,1,-1
 379 83 l 1,2,3
 339 -5 339 -5 223 -5 c 0,4,5
 146 -5 146 -5 103 39 c 128,-1,6
 60 83 60 83 60 164 c 2,7,-1
 60 507 l 1,8,-1
 180 507 l 1,9,-1
 180 192 l 2,10,11
 180 144 180 144 203.5 119 c 128,-1,12
 227 94 227 94 268 94 c 0,13,14
 320 94 320 94 349.5 129 c 128,-1,15
 379 164 379 164 379 235 c 2,16,-1
 379 507 l 1,17,-1
 500 507 l 1,18,-1
 500 0 l 1,0,-1
200 556 m 1,19,-1
 83 556 l 1,20,-1
 228 725 l 1,21,-1
 334 725 l 1,22,-1
 479 556 l 1,23,-1
 362 556 l 1,24,-1
 281 655 l 1,25,-1
 200 556 l 1,19,-1
EndSplineSet
EndChar

StartChar: udieresis
Encoding: 252 252 189
Width: 565
GlyphClass: 2
Flags: W
LayerCount: 2
Fore
SplineSet
500 0 m 1,0,-1
 379 0 l 1,1,-1
 379 83 l 1,2,3
 339 -5 339 -5 223 -5 c 0,4,5
 146 -5 146 -5 103 39 c 128,-1,6
 60 83 60 83 60 164 c 2,7,-1
 60 507 l 1,8,-1
 180 507 l 1,9,-1
 180 192 l 2,10,11
 180 144 180 144 203.5 119 c 128,-1,12
 227 94 227 94 268 94 c 0,13,14
 320 94 320 94 349.5 129 c 128,-1,15
 379 164 379 164 379 235 c 2,16,-1
 379 507 l 1,17,-1
 500 507 l 1,18,-1
 500 0 l 1,0,-1
473 641 m 0,19,20
 473 611 473 611 453 591 c 128,-1,21
 433 571 433 571 402 571 c 0,22,23
 372 571 372 571 351.5 591 c 128,-1,24
 331 611 331 611 331 641 c 0,25,26
 331 670 331 670 351.5 690 c 128,-1,27
 372 710 372 710 402 710 c 0,28,29
 433 710 433 710 453 690 c 128,-1,30
 473 670 473 670 473 641 c 0,19,20
230 641 m 0,31,32
 230 611 230 611 210 591 c 128,-1,33
 190 571 190 571 160 571 c 0,34,35
 129 571 129 571 109 591 c 128,-1,36
 89 611 89 611 89 641 c 0,37,38
 89 670 89 670 109 690 c 128,-1,39
 129 710 129 710 160 710 c 0,40,41
 190 710 190 710 210 690 c 128,-1,42
 230 670 230 670 230 641 c 0,31,32
EndSplineSet
EndChar

StartChar: yacute
Encoding: 253 253 190
Width: 517
GlyphClass: 2
Flags: W
LayerCount: 2
Fore
SplineSet
325 14 m 2,0,1
 249 -189 249 -189 93 -189 c 0,2,3
 64 -189 64 -189 43 -184 c 1,4,-1
 43 -85 l 1,5,6
 59 -89 59 -89 77 -89 c 0,7,8
 168 -89 168 -89 206 10 c 1,9,-1
 6 507 l 1,10,-1
 139 507 l 1,11,-1
 198 345 l 2,12,13
 225 273 225 273 241.5 224 c 128,-1,14
 258 175 258 175 262 162 c 2,15,-1
 265 148 l 1,16,17
 275 183 275 183 329 345 c 2,18,-1
 382 507 l 1,19,-1
 508 507 l 1,20,-1
 325 14 l 2,0,1
325 556 m 1,21,-1
 224 556 l 1,22,-1
 315 725 l 1,23,-1
 441 725 l 1,24,-1
 325 556 l 1,21,-1
EndSplineSet
EndChar

StartChar: thorn
Encoding: 254 254 191
Width: 594
GlyphClass: 2
Flags: W
LayerCount: 2
Fore
SplineSet
185 -191 m 1,0,-1
 65 -191 l 1,1,-1
 65 707 l 1,2,-1
 185 707 l 1,3,-1
 185 429 l 1,4,5
 239 514 239 514 340 514 c 0,6,7
 439 514 439 514 497.5 443 c 128,-1,8
 556 372 556 372 556 256 c 0,9,10
 556 142 556 142 497.5 67.5 c 128,-1,11
 439 -7 439 -7 339 -7 c 0,12,13
 237 -7 237 -7 185 76 c 1,14,-1
 185 -191 l 1,0,-1
185 257 m 128,-1,16
 185 180 185 180 222 138 c 128,-1,17
 259 96 259 96 311 96 c 0,18,19
 365 96 365 96 399 137.5 c 128,-1,20
 433 179 433 179 433 254 c 128,-1,21
 433 329 433 329 399 370.5 c 128,-1,22
 365 412 365 412 313 412 c 128,-1,23
 261 412 261 412 223 373 c 128,-1,15
 185 334 185 334 185 257 c 128,-1,16
EndSplineSet
EndChar

StartChar: ydieresis
Encoding: 255 255 192
Width: 517
GlyphClass: 2
Flags: W
LayerCount: 2
Fore
SplineSet
325 14 m 2,0,1
 249 -189 249 -189 93 -189 c 0,2,3
 64 -189 64 -189 43 -184 c 1,4,-1
 43 -85 l 1,5,6
 59 -89 59 -89 77 -89 c 0,7,8
 168 -89 168 -89 206 10 c 1,9,-1
 6 507 l 1,10,-1
 139 507 l 1,11,-1
 198 345 l 2,12,13
 225 273 225 273 241.5 224 c 128,-1,14
 258 175 258 175 262 162 c 2,15,-1
 265 148 l 1,16,17
 275 183 275 183 329 345 c 2,18,-1
 382 507 l 1,19,-1
 508 507 l 1,20,-1
 325 14 l 2,0,1
460 641 m 0,21,22
 460 611 460 611 440 591 c 128,-1,23
 420 571 420 571 389 571 c 0,24,25
 359 571 359 571 338.5 591 c 128,-1,26
 318 611 318 611 318 641 c 0,27,28
 318 670 318 670 338.5 690 c 128,-1,29
 359 710 359 710 389 710 c 0,30,31
 420 710 420 710 440 690 c 128,-1,32
 460 670 460 670 460 641 c 0,21,22
217 641 m 0,33,34
 217 611 217 611 197 591 c 128,-1,35
 177 571 177 571 147 571 c 0,36,37
 116 571 116 571 96 591 c 128,-1,38
 76 611 76 611 76 641 c 0,39,40
 76 670 76 670 96 690 c 128,-1,41
 116 710 116 710 147 710 c 0,42,43
 177 710 177 710 197 690 c 128,-1,44
 217 670 217 670 217 641 c 0,33,34
EndSplineSet
EndChar

StartChar: Amacron
Encoding: 256 256 193
Width: 674
GlyphClass: 2
Flags: W
LayerCount: 2
Fore
SplineSet
250 285 m 2,0,-1
 241 256 l 1,1,-1
 431 256 l 1,2,-1
 422 286 l 2,3,4
 388 394 388 394 366.5 467.5 c 128,-1,5
 345 541 345 541 340 560 c 2,6,-1
 336 580 l 1,7,8
 327 530 327 530 250 285 c 2,0,-1
160 0 m 1,9,-1
 28 0 l 1,10,-1
 256 674 l 1,11,-1
 419 674 l 1,12,-1
 647 0 l 1,13,-1
 511 0 l 1,14,-1
 463 153 l 1,15,-1
 208 153 l 1,16,-1
 160 0 l 1,9,-1
505 767 m 1,17,-1
 177 767 l 1,18,-1
 177 850 l 1,19,-1
 505 850 l 1,20,-1
 505 767 l 1,17,-1
EndSplineSet
EndChar

StartChar: amacron
Encoding: 257 257 194
Width: 507
GlyphClass: 2
Flags: W
LayerCount: 2
Fore
SplineSet
239 85 m 0,0,1
 279 85 279 85 301.5 108.5 c 128,-1,2
 324 132 324 132 324 170 c 2,3,-1
 324 218 l 1,4,-1
 262 218 l 2,5,6
 215 218 215 218 190 198.5 c 128,-1,7
 165 179 165 179 165 149 c 0,8,9
 165 85 165 85 239 85 c 0,0,1
329 61 m 1,10,11
 294 -4 294 -4 197 -4 c 0,12,13
 125 -4 125 -4 82.5 38 c 128,-1,14
 40 80 40 80 40 144 c 0,15,16
 40 216 40 216 94 257 c 128,-1,17
 148 298 148 298 250 298 c 2,18,-1
 324 298 l 1,19,-1
 324 329 l 2,20,21
 324 371 324 371 302 393 c 128,-1,22
 280 415 280 415 227 415 c 0,23,24
 146 415 146 415 78 370 c 1,25,-1
 78 481 l 1,26,27
 135 516 135 516 242 516 c 0,28,29
 448 516 448 516 448 324 c 2,30,-1
 448 0 l 1,31,-1
 329 0 l 1,32,-1
 329 61 l 1,10,11
418 599 m 1,33,-1
 90 599 l 1,34,-1
 90 682 l 1,35,-1
 418 682 l 1,36,-1
 418 599 l 1,33,-1
EndSplineSet
EndChar

StartChar: Abreve
Encoding: 258 258 195
Width: 674
GlyphClass: 2
Flags: W
LayerCount: 2
Fore
SplineSet
250 285 m 2,0,-1
 241 256 l 1,1,-1
 431 256 l 1,2,-1
 422 286 l 2,3,4
 388 394 388 394 366.5 467.5 c 128,-1,5
 345 541 345 541 340 560 c 2,6,-1
 336 580 l 1,7,8
 327 530 327 530 250 285 c 2,0,-1
160 0 m 1,9,-1
 28 0 l 1,10,-1
 256 674 l 1,11,-1
 419 674 l 1,12,-1
 647 0 l 1,13,-1
 511 0 l 1,14,-1
 463 153 l 1,15,-1
 208 153 l 1,16,-1
 160 0 l 1,9,-1
521 892 m 1,17,18
 521 806 521 806 471.5 762.5 c 128,-1,19
 422 719 422 719 336 719 c 128,-1,20
 250 719 250 719 200.5 763 c 128,-1,21
 151 807 151 807 151 892 c 1,22,-1
 245 892 l 1,23,24
 245 849 245 849 268.5 823.5 c 128,-1,25
 292 798 292 798 336 798 c 128,-1,26
 380 798 380 798 403.5 823.5 c 128,-1,27
 427 849 427 849 427 892 c 1,28,-1
 521 892 l 1,17,18
EndSplineSet
EndChar

StartChar: abreve
Encoding: 259 259 196
Width: 507
GlyphClass: 2
Flags: W
LayerCount: 2
Fore
SplineSet
239 85 m 0,0,1
 279 85 279 85 301.5 108.5 c 128,-1,2
 324 132 324 132 324 170 c 2,3,-1
 324 218 l 1,4,-1
 262 218 l 2,5,6
 215 218 215 218 190 198.5 c 128,-1,7
 165 179 165 179 165 149 c 0,8,9
 165 85 165 85 239 85 c 0,0,1
329 61 m 1,10,11
 294 -4 294 -4 197 -4 c 0,12,13
 125 -4 125 -4 82.5 38 c 128,-1,14
 40 80 40 80 40 144 c 0,15,16
 40 216 40 216 94 257 c 128,-1,17
 148 298 148 298 250 298 c 2,18,-1
 324 298 l 1,19,-1
 324 329 l 2,20,21
 324 371 324 371 302 393 c 128,-1,22
 280 415 280 415 227 415 c 0,23,24
 146 415 146 415 78 370 c 1,25,-1
 78 481 l 1,26,27
 135 516 135 516 242 516 c 0,28,29
 448 516 448 516 448 324 c 2,30,-1
 448 0 l 1,31,-1
 329 0 l 1,32,-1
 329 61 l 1,10,11
439 724 m 1,33,34
 439 638 439 638 389.5 594.5 c 128,-1,35
 340 551 340 551 254 551 c 128,-1,36
 168 551 168 551 118.5 595 c 128,-1,37
 69 639 69 639 69 724 c 1,38,-1
 163 724 l 1,39,40
 163 681 163 681 186.5 655.5 c 128,-1,41
 210 630 210 630 254 630 c 128,-1,42
 298 630 298 630 321.5 655.5 c 128,-1,43
 345 681 345 681 345 724 c 1,44,-1
 439 724 l 1,33,34
EndSplineSet
EndChar

StartChar: Aogonek
Encoding: 260 260 197
Width: 667
GlyphClass: 2
Flags: W
LayerCount: 2
Fore
SplineSet
246 285 m 2,0,-1
 237 256 l 1,1,-1
 428 256 l 1,2,-1
 419 286 l 2,3,4
 385 394 385 394 363.5 467.5 c 128,-1,5
 342 541 342 541 338 560 c 2,6,-1
 333 580 l 1,7,8
 323 530 323 530 246 285 c 2,0,-1
658 -230 m 1,9,10
 618 -253 618 -253 561 -253 c 0,11,12
 495 -253 495 -253 462 -221 c 128,-1,13
 429 -189 429 -189 429 -139 c 0,14,15
 429 -61 429 -61 506 5 c 1,16,-1
 460 153 l 1,17,-1
 205 153 l 1,18,-1
 157 0 l 1,19,-1
 24 0 l 1,20,-1
 253 674 l 1,21,-1
 416 674 l 1,22,-1
 643 0 l 1,23,24
 527 -67 527 -67 527 -128 c 0,25,26
 527 -172 527 -172 578 -172 c 0,27,28
 619 -172 619 -172 658 -145 c 1,29,-1
 658 -230 l 1,9,10
EndSplineSet
EndChar

StartChar: aogonek
Encoding: 261 261 198
Width: 504
GlyphClass: 2
Flags: W
LayerCount: 2
Fore
SplineSet
239 86 m 0,0,1
 278 86 278 86 301 109 c 128,-1,2
 324 132 324 132 324 168 c 2,3,-1
 324 217 l 1,4,-1
 267 217 l 2,5,6
 218 217 218 217 191.5 199 c 128,-1,7
 165 181 165 181 165 149 c 0,8,9
 165 86 165 86 239 86 c 0,0,1
463 -230 m 1,10,11
 423 -253 423 -253 365 -253 c 0,12,13
 300 -253 300 -253 267 -221 c 128,-1,14
 234 -189 234 -189 234 -139 c 0,15,16
 234 -54 234 -54 329 12 c 1,17,-1
 329 62 l 1,18,19
 288 -4 288 -4 197 -4 c 0,20,21
 124 -4 124 -4 82 37 c 128,-1,22
 40 78 40 78 40 143 c 0,23,24
 40 216 40 216 94.5 257 c 128,-1,25
 149 298 149 298 251 298 c 2,26,-1
 324 298 l 1,27,-1
 324 329 l 2,28,29
 324 371 324 371 302 393 c 128,-1,30
 280 415 280 415 227 415 c 0,31,32
 144 415 144 415 78 370 c 1,33,-1
 78 481 l 1,34,35
 138 516 138 516 242 516 c 0,36,37
 448 516 448 516 448 324 c 2,38,-1
 448 0 l 1,39,40
 332 -66 332 -66 332 -128 c 0,41,42
 332 -172 332 -172 383 -172 c 0,43,44
 422 -172 422 -172 463 -145 c 1,45,-1
 463 -230 l 1,10,11
EndSplineSet
EndChar

StartChar: Cacute
Encoding: 262 262 199
Width: 609
GlyphClass: 2
Flags: W
LayerCount: 2
Fore
SplineSet
562 32 m 1,0,1
 500 -8 500 -8 388 -8 c 0,2,3
 238 -8 238 -8 140.5 86.5 c 128,-1,4
 43 181 43 181 43 337 c 0,5,6
 43 490 43 490 139.5 586.5 c 128,-1,7
 236 683 236 683 388 683 c 0,8,9
 499 683 499 683 561 646 c 1,10,-1
 561 523 l 1,11,12
 485 567 485 567 393 567 c 128,-1,13
 301 567 301 567 239.5 504.5 c 128,-1,14
 178 442 178 442 178 337 c 128,-1,15
 178 232 178 232 239.5 170 c 128,-1,16
 301 108 301 108 400 108 c 0,17,18
 495 108 495 108 562 158 c 1,19,-1
 562 32 l 1,0,1
415 723 m 1,20,-1
 314 723 l 1,21,-1
 405 892 l 1,22,-1
 531 892 l 1,23,-1
 415 723 l 1,20,-1
EndSplineSet
EndChar

StartChar: cacute
Encoding: 263 263 200
Width: 470
GlyphClass: 2
Flags: W
LayerCount: 2
Fore
SplineSet
432 22 m 1,0,1
 379 -9 379 -9 300 -9 c 0,2,3
 183 -9 183 -9 110.5 65 c 128,-1,4
 38 139 38 139 38 252 c 0,5,6
 39 363 39 363 110.5 439 c 128,-1,7
 182 515 182 515 306 515 c 0,8,9
 380 515 380 515 432 487 c 1,10,-1
 432 381 l 1,11,12
 382 413 382 413 318 413 c 0,13,14
 248 413 248 413 205 369 c 128,-1,15
 162 325 162 325 161 252 c 0,16,17
 163 180 163 180 204.5 136 c 128,-1,18
 246 92 246 92 317 92 c 0,19,20
 379 92 379 92 432 126 c 1,21,-1
 432 22 l 1,0,1
347 555 m 1,22,-1
 246 555 l 1,23,-1
 337 724 l 1,24,-1
 463 724 l 1,25,-1
 347 555 l 1,22,-1
EndSplineSet
EndChar

StartChar: Ccaron
Encoding: 268 268 201
Width: 609
GlyphClass: 2
Flags: W
LayerCount: 2
Fore
SplineSet
562 32 m 1,0,1
 500 -8 500 -8 388 -8 c 0,2,3
 238 -8 238 -8 140.5 86.5 c 128,-1,4
 43 181 43 181 43 337 c 0,5,6
 43 490 43 490 139.5 586.5 c 128,-1,7
 236 683 236 683 388 683 c 0,8,9
 499 683 499 683 561 646 c 1,10,-1
 561 523 l 1,11,12
 485 567 485 567 393 567 c 128,-1,13
 301 567 301 567 239.5 504.5 c 128,-1,14
 178 442 178 442 178 337 c 128,-1,15
 178 232 178 232 239.5 170 c 128,-1,16
 301 108 301 108 400 108 c 0,17,18
 495 108 495 108 562 158 c 1,19,-1
 562 32 l 1,0,1
420 723 m 1,20,-1
 314 723 l 1,21,-1
 169 892 l 1,22,-1
 286 892 l 1,23,-1
 367 793 l 1,24,-1
 448 892 l 1,25,-1
 565 892 l 1,26,-1
 420 723 l 1,20,-1
EndSplineSet
EndChar

StartChar: ccaron
Encoding: 269 269 202
Width: 470
GlyphClass: 2
Flags: W
LayerCount: 2
Fore
SplineSet
432 22 m 1,0,1
 379 -9 379 -9 300 -9 c 0,2,3
 183 -9 183 -9 110.5 65 c 128,-1,4
 38 139 38 139 38 252 c 0,5,6
 39 363 39 363 110.5 439 c 128,-1,7
 182 515 182 515 306 515 c 0,8,9
 380 515 380 515 432 487 c 1,10,-1
 432 381 l 1,11,12
 382 413 382 413 318 413 c 0,13,14
 248 413 248 413 205 369 c 128,-1,15
 162 325 162 325 161 252 c 0,16,17
 163 180 163 180 204.5 136 c 128,-1,18
 246 92 246 92 317 92 c 0,19,20
 379 92 379 92 432 126 c 1,21,-1
 432 22 l 1,0,1
328 556 m 1,22,-1
 222 556 l 1,23,-1
 77 725 l 1,24,-1
 194 725 l 1,25,-1
 275 626 l 1,26,-1
 356 725 l 1,27,-1
 473 725 l 1,28,-1
 328 556 l 1,22,-1
EndSplineSet
EndChar

StartChar: Dcaron
Encoding: 270 270 203
Width: 675
GlyphClass: 2
Flags: W
LayerCount: 2
Fore
SplineSet
290 0 m 2,0,-1
 70 0 l 1,1,-1
 70 674 l 1,2,-1
 290 674 l 2,3,4
 441 674 441 674 537 581 c 128,-1,5
 633 488 633 488 633 346 c 0,6,7
 633 191 633 191 540 95.5 c 128,-1,8
 447 0 447 0 290 0 c 2,0,-1
286 568 m 2,9,-1
 199 568 l 1,10,-1
 199 105 l 1,11,-1
 288 105 l 2,12,13
 394 105 394 105 449 170.5 c 128,-1,14
 504 236 504 236 504 346 c 0,15,16
 504 443 504 443 445.5 505.5 c 128,-1,17
 387 568 387 568 286 568 c 2,9,-1
368 723 m 1,18,-1
 262 723 l 1,19,-1
 117 892 l 1,20,-1
 234 892 l 1,21,-1
 315 793 l 1,22,-1
 396 892 l 1,23,-1
 513 892 l 1,24,-1
 368 723 l 1,18,-1
EndSplineSet
EndChar

StartChar: dcaron
Encoding: 271 271 204
Width: 713
GlyphClass: 2
Flags: W
LayerCount: 2
Fore
SplineSet
161 251 m 0,0,1
 161 182 161 182 196 139 c 128,-1,2
 231 96 231 96 283 96 c 0,3,4
 337 96 337 96 373 137.5 c 128,-1,5
 409 179 409 179 409 258 c 0,6,7
 409 335 409 335 371 373.5 c 128,-1,8
 333 412 333 412 284 412 c 0,9,10
 232 412 232 412 196.5 369.5 c 128,-1,11
 161 327 161 327 161 251 c 0,0,1
529 0 m 1,12,-1
 409 0 l 1,13,-1
 409 79 l 1,14,15
 357 -7 357 -7 255 -7 c 0,16,17
 155 -7 155 -7 96.5 69 c 128,-1,18
 38 145 38 145 38 253 c 0,19,20
 38 373 38 373 99.5 443.5 c 128,-1,21
 161 514 161 514 257 514 c 0,22,23
 356 514 356 514 409 429 c 1,24,-1
 409 707 l 1,25,-1
 529 707 l 1,26,-1
 529 0 l 1,12,-1
671 504 m 1,27,-1
 581 504 l 1,28,-1
 657 708 l 1,29,-1
 786 708 l 1,30,-1
 671 504 l 1,27,-1
EndSplineSet
EndChar

StartChar: Dcroat
Encoding: 272 272 205
Width: 742
GlyphClass: 2
Flags: W
LayerCount: 2
Fore
SplineSet
357 0 m 2,0,-1
 137 0 l 1,1,-1
 137 282 l 1,2,-1
 64 282 l 1,3,-1
 64 385 l 1,4,-1
 137 385 l 1,5,-1
 137 674 l 1,6,-1
 357 674 l 2,7,8
 508 674 508 674 604 581 c 128,-1,9
 700 488 700 488 700 346 c 0,10,11
 700 190 700 190 607.5 95 c 128,-1,12
 515 0 515 0 357 0 c 2,0,-1
418 282 m 1,13,-1
 266 282 l 1,14,-1
 266 105 l 1,15,-1
 355 105 l 2,16,17
 461 105 461 105 516.5 170.5 c 128,-1,18
 572 236 572 236 572 346 c 0,19,20
 572 443 572 443 513 505.5 c 128,-1,21
 454 568 454 568 353 568 c 2,22,-1
 266 568 l 1,23,-1
 266 385 l 1,24,-1
 418 385 l 1,25,-1
 418 282 l 1,13,-1
EndSplineSet
EndChar

StartChar: dcroat
Encoding: 273 273 206
Width: 594
GlyphClass: 2
Flags: W
LayerCount: 2
Fore
SplineSet
161 251 m 0,0,1
 161 182 161 182 196 139 c 128,-1,2
 231 96 231 96 283 96 c 0,3,4
 337 96 337 96 373 137.5 c 128,-1,5
 409 179 409 179 409 258 c 0,6,7
 409 335 409 335 371 373.5 c 128,-1,8
 333 412 333 412 284 412 c 0,9,10
 232 412 232 412 196.5 369.5 c 128,-1,11
 161 327 161 327 161 251 c 0,0,1
529 0 m 1,12,-1
 409 0 l 1,13,-1
 409 79 l 1,14,15
 357 -7 357 -7 255 -7 c 0,16,17
 155 -7 155 -7 96.5 69 c 128,-1,18
 38 145 38 145 38 253 c 0,19,20
 38 373 38 373 99.5 443.5 c 128,-1,21
 161 514 161 514 257 514 c 0,22,23
 356 514 356 514 409 429 c 1,24,-1
 409 573 l 1,25,-1
 242 573 l 1,26,-1
 242 645 l 1,27,-1
 409 645 l 1,28,-1
 409 707 l 1,29,-1
 529 707 l 1,30,-1
 529 645 l 1,31,-1
 592 645 l 1,32,-1
 592 573 l 1,33,-1
 529 573 l 1,34,-1
 529 0 l 1,12,-1
EndSplineSet
EndChar

StartChar: Emacron
Encoding: 274 274 207
Width: 528
GlyphClass: 2
Flags: W
LayerCount: 2
Fore
SplineSet
472 0 m 1,0,-1
 70 0 l 1,1,-1
 70 674 l 1,2,-1
 468 674 l 1,3,-1
 468 571 l 1,4,-1
 197 571 l 1,5,-1
 197 388 l 1,6,-1
 438 388 l 1,7,-1
 438 286 l 1,8,-1
 197 286 l 1,9,-1
 197 103 l 1,10,-1
 472 103 l 1,11,-1
 472 0 l 1,0,-1
433 769 m 1,12,-1
 105 769 l 1,13,-1
 105 852 l 1,14,-1
 433 852 l 1,15,-1
 433 769 l 1,12,-1
EndSplineSet
EndChar

StartChar: emacron
Encoding: 275 275 208
Width: 529
GlyphClass: 2
Flags: W
LayerCount: 2
Fore
SplineSet
452 28 m 1,0,1
 399 -5 399 -5 299 -5 c 0,2,3
 178 -5 178 -5 108 67 c 128,-1,4
 38 139 38 139 38 253 c 0,5,6
 38 374 38 374 104 443 c 128,-1,7
 170 512 170 512 269 512 c 128,-1,8
 368 512 368 512 426 452 c 128,-1,9
 484 392 484 392 484 277 c 0,10,11
 484 249 484 249 477 205 c 1,12,-1
 159 205 l 1,13,14
 172 150 172 150 213.5 121 c 128,-1,15
 255 92 255 92 317 92 c 0,16,17
 397 92 397 92 452 132 c 1,18,-1
 452 28 l 1,0,1
272 418 m 0,19,20
 229 418 229 418 197.5 386.5 c 128,-1,21
 166 355 166 355 157 295 c 1,22,-1
 370 295 l 1,23,-1
 370 310 l 2,24,25
 368 359 368 359 343.5 388.5 c 128,-1,26
 319 418 319 418 272 418 c 0,19,20
436 599 m 1,27,-1
 108 599 l 1,28,-1
 108 682 l 1,29,-1
 436 682 l 1,30,-1
 436 599 l 1,27,-1
EndSplineSet
EndChar

StartChar: Edotaccent
Encoding: 278 278 209
Width: 528
GlyphClass: 2
Flags: W
LayerCount: 2
Fore
SplineSet
472 0 m 1,0,-1
 70 0 l 1,1,-1
 70 674 l 1,2,-1
 468 674 l 1,3,-1
 468 571 l 1,4,-1
 197 571 l 1,5,-1
 197 388 l 1,6,-1
 438 388 l 1,7,-1
 438 286 l 1,8,-1
 197 286 l 1,9,-1
 197 103 l 1,10,-1
 472 103 l 1,11,-1
 472 0 l 1,0,-1
349 809 m 0,12,13
 349 779 349 779 329 759 c 128,-1,14
 309 739 309 739 279 739 c 0,15,16
 248 739 248 739 228 759 c 128,-1,17
 208 779 208 779 208 809 c 0,18,19
 208 838 208 838 228 858 c 128,-1,20
 248 878 248 878 279 878 c 0,21,22
 309 878 309 878 329 858 c 128,-1,23
 349 838 349 838 349 809 c 0,12,13
EndSplineSet
EndChar

StartChar: edotaccent
Encoding: 279 279 210
Width: 529
GlyphClass: 2
Flags: W
LayerCount: 2
Fore
SplineSet
452 28 m 1,0,1
 399 -5 399 -5 299 -5 c 0,2,3
 178 -5 178 -5 108 67 c 128,-1,4
 38 139 38 139 38 253 c 0,5,6
 38 374 38 374 104 443 c 128,-1,7
 170 512 170 512 269 512 c 128,-1,8
 368 512 368 512 426 452 c 128,-1,9
 484 392 484 392 484 277 c 0,10,11
 484 249 484 249 477 205 c 1,12,-1
 159 205 l 1,13,14
 172 150 172 150 213.5 121 c 128,-1,15
 255 92 255 92 317 92 c 0,16,17
 397 92 397 92 452 132 c 1,18,-1
 452 28 l 1,0,1
272 418 m 0,19,20
 229 418 229 418 197.5 386.5 c 128,-1,21
 166 355 166 355 157 295 c 1,22,-1
 370 295 l 1,23,-1
 370 310 l 2,24,25
 368 359 368 359 343.5 388.5 c 128,-1,26
 319 418 319 418 272 418 c 0,19,20
351 642 m 0,27,28
 351 612 351 612 331 592 c 128,-1,29
 311 572 311 572 281 572 c 0,30,31
 250 572 250 572 230 592 c 128,-1,32
 210 612 210 612 210 642 c 0,33,34
 210 671 210 671 230 691 c 128,-1,35
 250 711 250 711 281 711 c 0,36,37
 311 711 311 711 331 691 c 128,-1,38
 351 671 351 671 351 642 c 0,27,28
EndSplineSet
EndChar

StartChar: Eogonek
Encoding: 280 280 211
Width: 528
GlyphClass: 2
Flags: W
LayerCount: 2
Fore
SplineSet
454 -230 m 1,0,1
 413 -253 413 -253 356 -253 c 0,2,3
 290 -253 290 -253 257 -221 c 128,-1,4
 224 -189 224 -189 224 -139 c 0,5,6
 224 -62 224 -62 303 0 c 1,7,-1
 70 0 l 1,8,-1
 70 674 l 1,9,-1
 468 674 l 1,10,-1
 468 571 l 1,11,-1
 197 571 l 1,12,-1
 197 388 l 1,13,-1
 438 388 l 1,14,-1
 438 286 l 1,15,-1
 197 286 l 1,16,-1
 197 103 l 1,17,-1
 472 103 l 1,18,-1
 472 0 l 1,19,-1
 438 0 l 1,20,21
 322 -67 322 -67 322 -128 c 0,22,23
 322 -172 322 -172 374 -172 c 0,24,25
 413 -172 413 -172 454 -145 c 1,26,-1
 454 -230 l 1,0,1
EndSplineSet
EndChar

StartChar: eogonek
Encoding: 281 281 212
Width: 529
GlyphClass: 2
Flags: W
LayerCount: 2
Fore
SplineSet
272 418 m 0,0,1
 229 418 229 418 197.5 386.5 c 128,-1,2
 166 355 166 355 157 295 c 1,3,-1
 370 295 l 1,4,-1
 370 310 l 2,5,6
 368 359 368 359 343.5 388.5 c 128,-1,7
 319 418 319 418 272 418 c 0,0,1
431 -215 m 1,8,9
 390 -238 390 -238 333 -238 c 0,10,11
 267 -238 267 -238 234 -206 c 128,-1,12
 201 -174 201 -174 201 -124 c 0,13,14
 201 -59 201 -59 260 -3 c 1,15,16
 156 9 156 9 97 78.5 c 128,-1,17
 38 148 38 148 38 253 c 0,18,19
 38 374 38 374 104 443 c 128,-1,20
 170 512 170 512 269 512 c 128,-1,21
 368 512 368 512 426 452 c 128,-1,22
 484 392 484 392 484 277 c 0,23,24
 484 249 484 249 477 205 c 1,25,-1
 159 205 l 1,26,27
 172 150 172 150 213.5 121 c 128,-1,28
 255 92 255 92 317 92 c 0,29,30
 397 92 397 92 452 132 c 1,31,-1
 452 28 l 1,32,33
 432 16 432 16 404 8 c 1,34,35
 299 -55 299 -55 299 -113 c 0,36,37
 299 -157 299 -157 351 -157 c 0,38,39
 390 -157 390 -157 431 -130 c 1,40,-1
 431 -215 l 1,8,9
EndSplineSet
EndChar

StartChar: Ecaron
Encoding: 282 282 213
Width: 528
GlyphClass: 2
Flags: W
LayerCount: 2
Fore
SplineSet
472 0 m 1,0,-1
 70 0 l 1,1,-1
 70 674 l 1,2,-1
 468 674 l 1,3,-1
 468 571 l 1,4,-1
 197 571 l 1,5,-1
 197 388 l 1,6,-1
 438 388 l 1,7,-1
 438 286 l 1,8,-1
 197 286 l 1,9,-1
 197 103 l 1,10,-1
 472 103 l 1,11,-1
 472 0 l 1,0,-1
329 723 m 1,12,-1
 223 723 l 1,13,-1
 78 892 l 1,14,-1
 195 892 l 1,15,-1
 276 793 l 1,16,-1
 357 892 l 1,17,-1
 474 892 l 1,18,-1
 329 723 l 1,12,-1
EndSplineSet
EndChar

StartChar: ecaron
Encoding: 283 283 214
Width: 529
GlyphClass: 2
Flags: W
LayerCount: 2
Fore
SplineSet
452 28 m 1,0,1
 399 -5 399 -5 299 -5 c 0,2,3
 178 -5 178 -5 108 67 c 128,-1,4
 38 139 38 139 38 253 c 0,5,6
 38 374 38 374 104 443 c 128,-1,7
 170 512 170 512 269 512 c 128,-1,8
 368 512 368 512 426 452 c 128,-1,9
 484 392 484 392 484 277 c 0,10,11
 484 249 484 249 477 205 c 1,12,-1
 159 205 l 1,13,14
 172 150 172 150 213.5 121 c 128,-1,15
 255 92 255 92 317 92 c 0,16,17
 397 92 397 92 452 132 c 1,18,-1
 452 28 l 1,0,1
272 418 m 0,19,20
 229 418 229 418 197.5 386.5 c 128,-1,21
 166 355 166 355 157 295 c 1,22,-1
 370 295 l 1,23,-1
 370 310 l 2,24,25
 368 359 368 359 343.5 388.5 c 128,-1,26
 319 418 319 418 272 418 c 0,19,20
326 556 m 1,27,-1
 220 556 l 1,28,-1
 75 725 l 1,29,-1
 192 725 l 1,30,-1
 273 626 l 1,31,-1
 354 725 l 1,32,-1
 471 725 l 1,33,-1
 326 556 l 1,27,-1
EndSplineSet
EndChar

StartChar: Gbreve
Encoding: 286 286 215
Width: 693
GlyphClass: 2
Flags: W
LayerCount: 2
Fore
SplineSet
630 58 m 1,0,1
 538 -8 538 -8 400 -8 c 0,2,3
 240 -8 240 -8 141.5 85 c 128,-1,4
 43 178 43 178 43 338 c 0,5,6
 43 494 43 494 144.5 590 c 128,-1,7
 246 686 246 686 401 686 c 0,8,9
 516 686 516 686 598 643 c 1,10,-1
 598 514 l 1,11,12
 506 569 506 569 403 569 c 0,13,14
 302 569 302 569 240 506 c 128,-1,15
 178 443 178 443 178 338 c 0,16,17
 178 231 178 231 238.5 169.5 c 128,-1,18
 299 108 299 108 405 108 c 0,19,20
 457 108 457 108 506 126 c 1,21,-1
 506 285 l 1,22,-1
 382 285 l 1,23,-1
 382 393 l 1,24,-1
 630 393 l 1,25,-1
 630 69 l 1,26,-1
 629 69 l 1,27,-1
 630 58 l 1,0,1
559 892 m 1,28,29
 559 806 559 806 509.5 762.5 c 128,-1,30
 460 719 460 719 374 719 c 128,-1,31
 288 719 288 719 238.5 763 c 128,-1,32
 189 807 189 807 189 892 c 1,33,-1
 283 892 l 1,34,35
 283 849 283 849 306.5 823.5 c 128,-1,36
 330 798 330 798 374 798 c 128,-1,37
 418 798 418 798 441.5 823.5 c 128,-1,38
 465 849 465 849 465 892 c 1,39,-1
 559 892 l 1,28,29
EndSplineSet
EndChar

StartChar: gbreve
Encoding: 287 287 216
Width: 571
GlyphClass: 2
Flags: W
LayerCount: 2
Fore
SplineSet
512 46 m 2,0,1
 512 -74 512 -74 442.5 -134.5 c 128,-1,2
 373 -195 373 -195 266 -195 c 0,3,4
 166 -195 166 -195 91 -159 c 1,5,-1
 91 -37 l 1,6,7
 159 -85 159 -85 254 -85 c 0,8,9
 392 -85 392 -85 392 47 c 2,10,-1
 392 91 l 1,11,12
 346 16 346 16 248 16 c 0,13,14
 163 16 163 16 102.5 78.5 c 128,-1,15
 42 141 42 141 42 260 c 0,16,17
 42 370 42 370 99.5 441.5 c 128,-1,18
 157 513 157 513 251 513 c 0,19,20
 346 513 346 513 392 434 c 1,21,-1
 392 507 l 1,22,-1
 512 507 l 1,23,-1
 512 46 l 2,0,1
167 260 m 0,24,25
 167 189 167 189 198 151.5 c 128,-1,26
 229 114 229 114 277 114 c 0,27,28
 326 114 326 114 359 152.5 c 128,-1,29
 392 191 392 191 392 253 c 0,30,31
 392 334 392 334 360 372 c 128,-1,32
 328 410 328 410 279 410 c 0,33,34
 227 410 227 410 197 369.5 c 128,-1,35
 167 329 167 329 167 260 c 0,24,25
489 725 m 1,36,37
 489 639 489 639 439.5 595.5 c 128,-1,38
 390 552 390 552 304 552 c 128,-1,39
 218 552 218 552 168.5 596 c 128,-1,40
 119 640 119 640 119 725 c 1,41,-1
 213 725 l 1,42,43
 213 682 213 682 236.5 656.5 c 128,-1,44
 260 631 260 631 304 631 c 128,-1,45
 348 631 348 631 371.5 656.5 c 128,-1,46
 395 682 395 682 395 725 c 1,47,-1
 489 725 l 1,36,37
EndSplineSet
EndChar

StartChar: uni0122
Encoding: 290 290 217
Width: 693
GlyphClass: 2
Flags: W
LayerCount: 2
Fore
SplineSet
630 58 m 1,0,1
 538 -8 538 -8 400 -8 c 0,2,3
 240 -8 240 -8 141.5 85 c 128,-1,4
 43 178 43 178 43 338 c 0,5,6
 43 494 43 494 144.5 590 c 128,-1,7
 246 686 246 686 401 686 c 0,8,9
 516 686 516 686 598 643 c 1,10,-1
 598 514 l 1,11,12
 506 569 506 569 403 569 c 0,13,14
 302 569 302 569 240 506 c 128,-1,15
 178 443 178 443 178 338 c 0,16,17
 178 231 178 231 238.5 169.5 c 128,-1,18
 299 108 299 108 405 108 c 0,19,20
 457 108 457 108 506 126 c 1,21,-1
 506 285 l 1,22,-1
 382 285 l 1,23,-1
 382 393 l 1,24,-1
 630 393 l 1,25,-1
 630 69 l 1,26,-1
 629 69 l 1,27,-1
 630 58 l 1,0,1
325 -255 m 1,28,-1
 235 -255 l 1,29,-1
 311 -51 l 1,30,-1
 440 -51 l 1,31,-1
 325 -255 l 1,28,-1
EndSplineSet
EndChar

StartChar: uni0123
Encoding: 291 291 218
Width: 571
GlyphClass: 2
Flags: W
LayerCount: 2
Fore
SplineSet
512 46 m 2,0,1
 512 -74 512 -74 442.5 -134.5 c 128,-1,2
 373 -195 373 -195 266 -195 c 0,3,4
 166 -195 166 -195 91 -159 c 1,5,-1
 91 -37 l 1,6,7
 159 -85 159 -85 254 -85 c 0,8,9
 392 -85 392 -85 392 47 c 2,10,-1
 392 91 l 1,11,12
 346 16 346 16 248 16 c 0,13,14
 163 16 163 16 102.5 78.5 c 128,-1,15
 42 141 42 141 42 260 c 0,16,17
 42 370 42 370 99.5 441.5 c 128,-1,18
 157 513 157 513 251 513 c 0,19,20
 346 513 346 513 392 434 c 1,21,-1
 392 507 l 1,22,-1
 512 507 l 1,23,-1
 512 46 l 2,0,1
167 260 m 0,24,25
 167 189 167 189 198 151.5 c 128,-1,26
 229 114 229 114 277 114 c 0,27,28
 326 114 326 114 359 152.5 c 128,-1,29
 392 191 392 191 392 253 c 0,30,31
 392 334 392 334 360 372 c 128,-1,32
 328 410 328 410 279 410 c 0,33,34
 227 410 227 410 197 369.5 c 128,-1,35
 167 329 167 329 167 260 c 0,24,25
382 556 m 1,36,-1
 254 556 l 1,37,-1
 368 760 l 1,38,-1
 458 760 l 1,39,-1
 382 556 l 1,36,-1
EndSplineSet
EndChar

StartChar: Imacron
Encoding: 298 298 219
Width: 282
GlyphClass: 2
Flags: W
LayerCount: 2
Fore
SplineSet
204 0 m 1,0,-1
 78 0 l 1,1,-1
 78 674 l 1,2,-1
 204 674 l 1,3,-1
 204 0 l 1,0,-1
305 766 m 1,4,-1
 -23 766 l 1,5,-1
 -23 849 l 1,6,-1
 305 849 l 1,7,-1
 305 766 l 1,4,-1
EndSplineSet
EndChar

StartChar: imacron
Encoding: 299 299 220
Width: 260
GlyphClass: 2
Flags: W
LayerCount: 2
Fore
SplineSet
190 0 m 1,0,-1
 70 0 l 1,1,-1
 70 507 l 1,2,-1
 190 507 l 1,3,-1
 190 0 l 1,0,-1
294 599 m 1,4,-1
 -34 599 l 1,5,-1
 -34 682 l 1,6,-1
 294 682 l 1,7,-1
 294 599 l 1,4,-1
EndSplineSet
EndChar

StartChar: Iogonek
Encoding: 302 302 221
Width: 282
GlyphClass: 2
Flags: W
LayerCount: 2
Fore
SplineSet
220 -230 m 1,0,1
 179 -253 179 -253 122 -253 c 0,2,3
 56 -253 56 -253 23 -221 c 128,-1,4
 -10 -189 -10 -189 -10 -139 c 0,5,6
 -10 -60 -10 -60 78 7 c 1,7,-1
 78 674 l 1,8,-1
 204 674 l 1,9,-1
 204 0 l 1,10,11
 88 -67 88 -67 88 -128 c 0,12,13
 88 -172 88 -172 140 -172 c 0,14,15
 180 -172 180 -172 220 -145 c 1,16,-1
 220 -230 l 1,0,1
EndSplineSet
EndChar

StartChar: iogonek
Encoding: 303 303 222
Width: 260
GlyphClass: 2
Flags: W
LayerCount: 2
Fore
SplineSet
202 659 m 0,0,1
 202 628 202 628 181 607 c 128,-1,2
 160 586 160 586 130 586 c 128,-1,3
 100 586 100 586 79 607 c 128,-1,4
 58 628 58 628 58 659 c 0,5,6
 58 689 58 689 79 710 c 128,-1,7
 100 731 100 731 130 731 c 128,-1,8
 160 731 160 731 181 710 c 128,-1,9
 202 689 202 689 202 659 c 0,0,1
206 -230 m 1,10,11
 165 -253 165 -253 108 -253 c 0,12,13
 42 -253 42 -253 9 -221 c 128,-1,14
 -24 -189 -24 -189 -24 -139 c 0,15,16
 -24 -54 -24 -54 70 11 c 1,17,-1
 70 507 l 1,18,-1
 190 507 l 1,19,-1
 190 0 l 1,20,21
 74 -67 74 -67 74 -128 c 0,22,23
 74 -172 74 -172 126 -172 c 0,24,25
 165 -172 165 -172 206 -145 c 1,26,-1
 206 -230 l 1,10,11
EndSplineSet
EndChar

StartChar: Idotaccent
Encoding: 304 304 223
Width: 282
GlyphClass: 2
Flags: W
LayerCount: 2
Fore
SplineSet
204 0 m 1,0,-1
 78 0 l 1,1,-1
 78 674 l 1,2,-1
 204 674 l 1,3,-1
 204 0 l 1,0,-1
213 809 m 0,4,5
 213 779 213 779 193 759 c 128,-1,6
 173 739 173 739 143 739 c 0,7,8
 112 739 112 739 92 759 c 128,-1,9
 72 779 72 779 72 809 c 0,10,11
 72 838 72 838 92 858 c 128,-1,12
 112 878 112 878 143 878 c 0,13,14
 173 878 173 878 193 858 c 128,-1,15
 213 838 213 838 213 809 c 0,4,5
EndSplineSet
EndChar

StartChar: dotlessi
Encoding: 305 305 224
Width: 260
GlyphClass: 2
Flags: W
LayerCount: 2
Fore
SplineSet
190 0 m 1,0,-1
 70 0 l 1,1,-1
 70 507 l 1,2,-1
 190 507 l 1,3,-1
 190 0 l 1,0,-1
EndSplineSet
EndChar

StartChar: uni0136
Encoding: 310 310 225
Width: 628
GlyphClass: 2
Flags: W
LayerCount: 2
Fore
SplineSet
607 0 m 1,0,-1
 448 0 l 1,1,-1
 206 334 l 1,2,-1
 439 674 l 1,3,-1
 590 674 l 1,4,-1
 356 336 l 1,5,-1
 607 0 l 1,0,-1
270 -255 m 1,6,-1
 180 -255 l 1,7,-1
 256 -51 l 1,8,-1
 385 -51 l 1,9,-1
 270 -255 l 1,6,-1
196 0 m 1,10,-1
 70 0 l 1,11,-1
 70 674 l 1,12,-1
 196 674 l 1,13,-1
 196 0 l 1,10,-1
EndSplineSet
EndChar

StartChar: uni0137
Encoding: 311 311 226
Width: 522
GlyphClass: 2
Flags: W
LayerCount: 2
Fore
SplineSet
185 0 m 1,0,-1
 65 0 l 1,1,-1
 65 695 l 1,2,-1
 185 695 l 1,3,-1
 185 269 l 1,4,-1
 364 507 l 1,5,-1
 504 507 l 1,6,-1
 318 265 l 1,7,-1
 508 0 l 1,8,-1
 367 0 l 1,9,-1
 185 262 l 1,10,-1
 185 0 l 1,0,-1
227 -255 m 1,11,-1
 136 -255 l 1,12,-1
 212 -51 l 1,13,-1
 341 -51 l 1,14,-1
 227 -255 l 1,11,-1
EndSplineSet
EndChar

StartChar: Lacute
Encoding: 313 313 227
Width: 484
GlyphClass: 2
Flags: W
LayerCount: 2
Fore
SplineSet
459 0 m 1,0,-1
 70 0 l 1,1,-1
 70 674 l 1,2,-1
 196 674 l 1,3,-1
 196 112 l 1,4,-1
 459 112 l 1,5,-1
 459 0 l 1,0,-1
357 723 m 1,6,-1
 256 723 l 1,7,-1
 347 892 l 1,8,-1
 473 892 l 1,9,-1
 357 723 l 1,6,-1
EndSplineSet
EndChar

StartChar: lacute
Encoding: 314 314 228
Width: 260
GlyphClass: 2
Flags: W
LayerCount: 2
Fore
SplineSet
190 0 m 1,0,-1
 70 0 l 1,1,-1
 70 707 l 1,2,-1
 190 707 l 1,3,-1
 190 0 l 1,0,-1
179 756 m 1,4,-1
 78 756 l 1,5,-1
 169 925 l 1,6,-1
 295 925 l 1,7,-1
 179 756 l 1,4,-1
EndSplineSet
EndChar

StartChar: uni013B
Encoding: 315 315 229
Width: 484
GlyphClass: 2
Flags: W
LayerCount: 2
Fore
SplineSet
229 -255 m 1,0,-1
 139 -255 l 1,1,-1
 215 -51 l 1,2,-1
 344 -51 l 1,3,-1
 229 -255 l 1,0,-1
459 0 m 1,4,-1
 70 0 l 1,5,-1
 70 674 l 1,6,-1
 196 674 l 1,7,-1
 196 112 l 1,8,-1
 459 112 l 1,9,-1
 459 0 l 1,4,-1
EndSplineSet
EndChar

StartChar: uni013C
Encoding: 316 316 230
Width: 260
GlyphClass: 2
Flags: W
LayerCount: 2
Fore
SplineSet
190 0 m 1,0,-1
 70 0 l 1,1,-1
 70 707 l 1,2,-1
 190 707 l 1,3,-1
 190 0 l 1,0,-1
79 -255 m 1,4,-1
 -12 -255 l 1,5,-1
 64 -51 l 1,6,-1
 193 -51 l 1,7,-1
 79 -255 l 1,4,-1
EndSplineSet
EndChar

StartChar: Lcaron
Encoding: 317 317 231
Width: 484
GlyphClass: 2
Flags: W
LayerCount: 2
Fore
SplineSet
459 0 m 1,0,-1
 70 0 l 1,1,-1
 70 674 l 1,2,-1
 196 674 l 1,3,-1
 196 112 l 1,4,-1
 459 112 l 1,5,-1
 459 0 l 1,0,-1
358 496 m 1,6,-1
 267 496 l 1,7,-1
 343 700 l 1,8,-1
 472 700 l 1,9,-1
 358 496 l 1,6,-1
EndSplineSet
EndChar

StartChar: lcaron
Encoding: 318 318 232
Width: 269
GlyphClass: 2
Flags: W
LayerCount: 2
Fore
SplineSet
190 0 m 1,0,-1
 70 0 l 1,1,-1
 70 707 l 1,2,-1
 190 707 l 1,3,-1
 190 0 l 1,0,-1
342 505 m 1,4,-1
 252 505 l 1,5,-1
 328 708 l 1,6,-1
 456 708 l 1,7,-1
 342 505 l 1,4,-1
EndSplineSet
EndChar

StartChar: Lslash
Encoding: 321 321 233
Width: 539
GlyphClass: 2
Flags: W
LayerCount: 2
Fore
SplineSet
399 391 m 1,0,-1
 241 296 l 1,1,-1
 241 112 l 1,2,-1
 504 112 l 1,3,-1
 504 0 l 1,4,-1
 114 0 l 1,5,-1
 114 219 l 1,6,-1
 39 174 l 1,7,-1
 39 279 l 1,8,-1
 114 324 l 1,9,-1
 114 674 l 1,10,-1
 241 674 l 1,11,-1
 241 401 l 1,12,-1
 399 496 l 1,13,-1
 399 391 l 1,0,-1
EndSplineSet
EndChar

StartChar: lslash
Encoding: 322 322 234
Width: 322
GlyphClass: 2
Flags: W
LayerCount: 2
Fore
SplineSet
222 0 m 1,0,-1
 102 0 l 1,1,-1
 102 278 l 1,2,-1
 28 227 l 1,3,-1
 28 332 l 1,4,-1
 102 383 l 1,5,-1
 102 707 l 1,6,-1
 222 707 l 1,7,-1
 222 466 l 1,8,-1
 305 523 l 1,9,-1
 305 418 l 1,10,-1
 222 361 l 1,11,-1
 222 0 l 1,0,-1
EndSplineSet
EndChar

StartChar: Nacute
Encoding: 323 323 235
Width: 688
GlyphClass: 2
Flags: W
LayerCount: 2
Fore
SplineSet
196 0 m 1,0,-1
 70 0 l 1,1,-1
 70 674 l 1,2,-1
 213 674 l 1,3,-1
 375 393 l 2,4,5
 415 324 415 324 446.5 264.5 c 128,-1,6
 478 205 478 205 489 180 c 2,7,-1
 500 155 l 1,8,9
 492 238 492 238 492 393 c 2,10,-1
 492 674 l 1,11,-1
 619 674 l 1,12,-1
 619 0 l 1,13,-1
 475 0 l 1,14,-1
 311 280 l 2,15,16
 272 346 272 346 240.5 406.5 c 128,-1,17
 209 467 209 467 197 494 c 2,18,-1
 185 522 l 1,19,20
 196 427 196 427 196 281 c 2,21,-1
 196 0 l 1,0,-1
412 723 m 1,22,-1
 311 723 l 1,23,-1
 402 892 l 1,24,-1
 528 892 l 1,25,-1
 412 723 l 1,22,-1
EndSplineSet
EndChar

StartChar: nacute
Encoding: 324 324 236
Width: 565
GlyphClass: 2
Flags: W
LayerCount: 2
Fore
SplineSet
505 0 m 1,0,-1
 385 0 l 1,1,-1
 385 312 l 2,2,3
 385 362 385 362 361 387.5 c 128,-1,4
 337 413 337 413 296 413 c 0,5,6
 249 413 249 413 217 376.5 c 128,-1,7
 185 340 185 340 185 272 c 2,8,-1
 185 0 l 1,9,-1
 65 0 l 1,10,-1
 65 507 l 1,11,-1
 185 507 l 1,12,-1
 185 420 l 1,13,14
 228 513 228 513 341 513 c 0,15,16
 417 513 417 513 461 467 c 128,-1,17
 505 421 505 421 505 337 c 2,18,-1
 505 0 l 1,0,-1
362 556 m 1,19,-1
 261 556 l 1,20,-1
 352 725 l 1,21,-1
 478 725 l 1,22,-1
 362 556 l 1,19,-1
EndSplineSet
EndChar

StartChar: uni0145
Encoding: 325 325 237
Width: 688
GlyphClass: 2
Flags: W
LayerCount: 2
Fore
SplineSet
196 0 m 1,0,-1
 70 0 l 1,1,-1
 70 674 l 1,2,-1
 213 674 l 1,3,-1
 375 393 l 2,4,5
 415 324 415 324 446.5 264.5 c 128,-1,6
 478 205 478 205 489 180 c 2,7,-1
 500 155 l 1,8,9
 492 238 492 238 492 393 c 2,10,-1
 492 674 l 1,11,-1
 619 674 l 1,12,-1
 619 0 l 1,13,-1
 475 0 l 1,14,-1
 311 280 l 2,15,16
 272 346 272 346 240.5 406.5 c 128,-1,17
 209 467 209 467 197 494 c 2,18,-1
 185 522 l 1,19,20
 196 427 196 427 196 281 c 2,21,-1
 196 0 l 1,0,-1
303 -255 m 1,22,-1
 212 -255 l 1,23,-1
 288 -51 l 1,24,-1
 417 -51 l 1,25,-1
 303 -255 l 1,22,-1
EndSplineSet
EndChar

StartChar: uni0146
Encoding: 326 326 238
Width: 565
GlyphClass: 2
Flags: W
LayerCount: 2
Fore
SplineSet
505 0 m 1,0,-1
 385 0 l 1,1,-1
 385 312 l 2,2,3
 385 362 385 362 361 387.5 c 128,-1,4
 337 413 337 413 296 413 c 0,5,6
 249 413 249 413 217 376.5 c 128,-1,7
 185 340 185 340 185 272 c 2,8,-1
 185 0 l 1,9,-1
 65 0 l 1,10,-1
 65 507 l 1,11,-1
 185 507 l 1,12,-1
 185 420 l 1,13,14
 228 513 228 513 341 513 c 0,15,16
 417 513 417 513 461 467 c 128,-1,17
 505 421 505 421 505 337 c 2,18,-1
 505 0 l 1,0,-1
239 -255 m 1,19,-1
 149 -255 l 1,20,-1
 225 -51 l 1,21,-1
 354 -51 l 1,22,-1
 239 -255 l 1,19,-1
EndSplineSet
EndChar

StartChar: Ncaron
Encoding: 327 327 239
Width: 688
GlyphClass: 2
Flags: W
LayerCount: 2
Fore
SplineSet
196 0 m 1,0,-1
 70 0 l 1,1,-1
 70 674 l 1,2,-1
 213 674 l 1,3,-1
 375 393 l 2,4,5
 415 324 415 324 446.5 264.5 c 128,-1,6
 478 205 478 205 489 180 c 2,7,-1
 500 155 l 1,8,9
 492 238 492 238 492 393 c 2,10,-1
 492 674 l 1,11,-1
 619 674 l 1,12,-1
 619 0 l 1,13,-1
 475 0 l 1,14,-1
 311 280 l 2,15,16
 272 346 272 346 240.5 406.5 c 128,-1,17
 209 467 209 467 197 494 c 2,18,-1
 185 522 l 1,19,20
 196 427 196 427 196 281 c 2,21,-1
 196 0 l 1,0,-1
406 723 m 1,22,-1
 300 723 l 1,23,-1
 155 892 l 1,24,-1
 272 892 l 1,25,-1
 353 793 l 1,26,-1
 434 892 l 1,27,-1
 551 892 l 1,28,-1
 406 723 l 1,22,-1
EndSplineSet
EndChar

StartChar: ncaron
Encoding: 328 328 240
Width: 565
GlyphClass: 2
Flags: W
LayerCount: 2
Fore
SplineSet
505 0 m 1,0,-1
 385 0 l 1,1,-1
 385 312 l 2,2,3
 385 362 385 362 361 387.5 c 128,-1,4
 337 413 337 413 296 413 c 0,5,6
 249 413 249 413 217 376.5 c 128,-1,7
 185 340 185 340 185 272 c 2,8,-1
 185 0 l 1,9,-1
 65 0 l 1,10,-1
 65 507 l 1,11,-1
 185 507 l 1,12,-1
 185 420 l 1,13,14
 228 513 228 513 341 513 c 0,15,16
 417 513 417 513 461 467 c 128,-1,17
 505 421 505 421 505 337 c 2,18,-1
 505 0 l 1,0,-1
348 556 m 1,19,-1
 242 556 l 1,20,-1
 97 725 l 1,21,-1
 214 725 l 1,22,-1
 295 626 l 1,23,-1
 376 725 l 1,24,-1
 493 725 l 1,25,-1
 348 556 l 1,19,-1
EndSplineSet
EndChar

StartChar: Omacron
Encoding: 332 332 241
Width: 723
GlyphClass: 2
Flags: W
LayerCount: 2
Fore
SplineSet
680 339 m 0,0,1
 680 183 680 183 593.5 88 c 128,-1,2
 507 -7 507 -7 362 -7 c 128,-1,3
 217 -7 217 -7 130 88 c 128,-1,4
 43 183 43 183 43 339 c 0,5,6
 43 496 43 496 129.5 591 c 128,-1,7
 216 686 216 686 361 686 c 0,8,9
 508 686 508 686 594 591.5 c 128,-1,10
 680 497 680 497 680 339 c 0,0,1
178 339 m 0,11,12
 178 233 178 233 228 171 c 128,-1,13
 278 109 278 109 362 109 c 0,14,15
 447 109 447 109 496 170.5 c 128,-1,16
 545 232 545 232 545 339 c 128,-1,17
 545 446 545 446 496 508 c 128,-1,18
 447 570 447 570 361 570 c 0,19,20
 276 570 276 570 227 508 c 128,-1,21
 178 446 178 446 178 339 c 0,11,12
525 766 m 1,22,-1
 197 766 l 1,23,-1
 197 849 l 1,24,-1
 525 849 l 1,25,-1
 525 766 l 1,22,-1
EndSplineSet
EndChar

StartChar: omacron
Encoding: 333 333 242
Width: 565
GlyphClass: 2
Flags: W
LayerCount: 2
Fore
SplineSet
527 255 m 0,0,1
 527 140 527 140 462.5 66 c 128,-1,2
 398 -8 398 -8 282 -8 c 0,3,4
 167 -8 167 -8 102.5 64 c 128,-1,5
 38 136 38 136 38 248 c 0,6,7
 38 364 38 364 105 439.5 c 128,-1,8
 172 515 172 515 282 515 c 0,9,10
 399 515 399 515 463 441.5 c 128,-1,11
 527 368 527 368 527 255 c 0,0,1
164 252 m 0,12,13
 164 182 164 182 195 135 c 128,-1,14
 226 88 226 88 283 88 c 0,15,16
 342 88 342 88 372 134 c 128,-1,17
 402 180 402 180 402 251 c 0,18,19
 402 324 402 324 373 370.5 c 128,-1,20
 344 417 344 417 282 417 c 0,21,22
 225 417 225 417 194.5 370 c 128,-1,23
 164 323 164 323 164 252 c 0,12,13
448 599 m 1,24,-1
 120 599 l 1,25,-1
 120 682 l 1,26,-1
 448 682 l 1,27,-1
 448 599 l 1,24,-1
EndSplineSet
EndChar

StartChar: Ohungarumlaut
Encoding: 336 336 243
Width: 723
GlyphClass: 2
Flags: W
LayerCount: 2
Fore
SplineSet
680 339 m 0,0,1
 680 183 680 183 593.5 88 c 128,-1,2
 507 -7 507 -7 362 -7 c 128,-1,3
 217 -7 217 -7 130 88 c 128,-1,4
 43 183 43 183 43 339 c 0,5,6
 43 496 43 496 129.5 591 c 128,-1,7
 216 686 216 686 361 686 c 0,8,9
 508 686 508 686 594 591.5 c 128,-1,10
 680 497 680 497 680 339 c 0,0,1
178 339 m 0,11,12
 178 233 178 233 228 171 c 128,-1,13
 278 109 278 109 362 109 c 0,14,15
 447 109 447 109 496 170.5 c 128,-1,16
 545 232 545 232 545 339 c 128,-1,17
 545 446 545 446 496 508 c 128,-1,18
 447 570 447 570 361 570 c 0,19,20
 276 570 276 570 227 508 c 128,-1,21
 178 446 178 446 178 339 c 0,11,12
505 723 m 1,22,-1
 414 723 l 1,23,-1
 511 892 l 1,24,-1
 637 892 l 1,25,-1
 505 723 l 1,22,-1
329 723 m 1,26,-1
 239 723 l 1,27,-1
 329 892 l 1,28,-1
 446 892 l 1,29,-1
 329 723 l 1,26,-1
EndSplineSet
EndChar

StartChar: ohungarumlaut
Encoding: 337 337 244
Width: 565
GlyphClass: 2
Flags: W
LayerCount: 2
Fore
SplineSet
527 255 m 0,0,1
 527 140 527 140 462.5 66 c 128,-1,2
 398 -8 398 -8 282 -8 c 0,3,4
 167 -8 167 -8 102.5 64 c 128,-1,5
 38 136 38 136 38 248 c 0,6,7
 38 364 38 364 105 439.5 c 128,-1,8
 172 515 172 515 282 515 c 0,9,10
 399 515 399 515 463 441.5 c 128,-1,11
 527 368 527 368 527 255 c 0,0,1
164 252 m 0,12,13
 164 182 164 182 195 135 c 128,-1,14
 226 88 226 88 283 88 c 0,15,16
 342 88 342 88 372 134 c 128,-1,17
 402 180 402 180 402 251 c 0,18,19
 402 324 402 324 373 370.5 c 128,-1,20
 344 417 344 417 282 417 c 0,21,22
 225 417 225 417 194.5 370 c 128,-1,23
 164 323 164 323 164 252 c 0,12,13
433 556 m 1,24,-1
 342 556 l 1,25,-1
 439 725 l 1,26,-1
 565 725 l 1,27,-1
 433 556 l 1,24,-1
257 556 m 1,28,-1
 167 556 l 1,29,-1
 257 725 l 1,30,-1
 374 725 l 1,31,-1
 257 556 l 1,28,-1
EndSplineSet
EndChar

StartChar: OE
Encoding: 338 338 245
Width: 994
GlyphClass: 2
Flags: W
LayerCount: 2
Fore
SplineSet
178 339 m 128,-1,1
 178 232 178 232 225.5 170.5 c 128,-1,2
 273 109 273 109 357 109 c 0,3,4
 442 109 442 109 488.5 170.5 c 128,-1,5
 535 232 535 232 535 339 c 0,6,7
 535 447 535 447 488 508.5 c 128,-1,8
 441 570 441 570 356 570 c 0,9,10
 272 570 272 570 225 508 c 128,-1,0
 178 446 178 446 178 339 c 128,-1,1
938 0 m 1,11,-1
 535 0 l 1,12,-1
 535 58 l 1,13,14
 459 -7 459 -7 357 -7 c 0,15,16
 212 -7 212 -7 127.5 87.5 c 128,-1,17
 43 182 43 182 43 339 c 128,-1,18
 43 496 43 496 127.5 591 c 128,-1,19
 212 686 212 686 356 686 c 0,20,21
 460 686 460 686 535 622 c 1,22,-1
 535 674 l 1,23,-1
 934 674 l 1,24,-1
 934 571 l 1,25,-1
 656 571 l 1,26,-1
 656 388 l 1,27,-1
 904 388 l 1,28,-1
 904 286 l 1,29,-1
 656 286 l 1,30,-1
 656 103 l 1,31,-1
 938 103 l 1,32,-1
 938 0 l 1,11,-1
EndSplineSet
EndChar

StartChar: oe
Encoding: 339 339 246
Width: 884
GlyphClass: 2
Flags: W
LayerCount: 2
Fore
SplineSet
164 252 m 0,0,1
 164 182 164 182 194 135 c 128,-1,2
 224 88 224 88 280 88 c 0,3,4
 339 88 339 88 369 134 c 128,-1,5
 399 180 399 180 399 251 c 0,6,7
 399 324 399 324 370 370.5 c 128,-1,8
 341 417 341 417 279 417 c 0,9,10
 222 417 222 417 193 370.5 c 128,-1,11
 164 324 164 324 164 252 c 0,0,1
634 418 m 0,12,13
 591 418 591 418 559 387 c 128,-1,14
 527 356 527 356 518 295 c 1,15,-1
 730 295 l 1,16,-1
 730 316 l 2,17,18
 727 364 727 364 702.5 391 c 128,-1,19
 678 418 678 418 634 418 c 0,12,13
812 28 m 1,20,21
 757 -5 757 -5 659 -5 c 0,22,23
 534 -5 534 -5 461 78 c 1,24,25
 396 -8 396 -8 279 -8 c 0,26,27
 164 -8 164 -8 101 64 c 128,-1,28
 38 136 38 136 38 248 c 0,29,30
 38 364 38 364 103.5 439.5 c 128,-1,31
 169 515 169 515 279 515 c 0,32,33
 393 515 393 515 459 433 c 1,34,35
 526 512 526 512 631 512 c 0,36,37
 731 512 731 512 787.5 452 c 128,-1,38
 844 392 844 392 844 275 c 0,39,40
 844 243 844 243 838 205 c 1,41,-1
 520 205 l 1,42,43
 534 151 534 151 576 121.5 c 128,-1,44
 618 92 618 92 678 92 c 0,45,46
 755 92 755 92 812 132 c 1,47,-1
 812 28 l 1,20,21
EndSplineSet
EndChar

StartChar: Racute
Encoding: 340 340 247
Width: 589
GlyphClass: 2
Flags: W
LayerCount: 2
Fore
SplineSet
278 570 m 2,0,-1
 196 570 l 1,1,-1
 196 350 l 1,2,-1
 280 350 l 2,3,4
 338 350 338 350 367 379.5 c 128,-1,5
 396 409 396 409 396 462 c 0,6,7
 396 514 396 514 365.5 542 c 128,-1,8
 335 570 335 570 278 570 c 2,0,-1
196 0 m 1,9,-1
 70 0 l 1,10,-1
 70 674 l 1,11,-1
 278 674 l 2,12,13
 393 674 393 674 458.5 616 c 128,-1,14
 524 558 524 558 524 461 c 0,15,16
 523 389 523 389 489 339.5 c 128,-1,17
 455 290 455 290 396 266 c 1,18,-1
 569 0 l 1,19,-1
 418 0 l 1,20,-1
 265 246 l 1,21,-1
 196 246 l 1,22,-1
 196 0 l 1,9,-1
336 723 m 1,23,-1
 235 723 l 1,24,-1
 326 892 l 1,25,-1
 452 892 l 1,26,-1
 336 723 l 1,23,-1
EndSplineSet
EndChar

StartChar: racute
Encoding: 341 341 248
Width: 353
GlyphClass: 2
Flags: W
LayerCount: 2
Fore
SplineSet
185 0 m 1,0,-1
 64 0 l 1,1,-1
 65 507 l 1,2,-1
 185 507 l 1,3,-1
 185 417 l 1,4,5
 220 511 220 511 313 511 c 0,6,7
 334 511 334 511 347 508 c 1,8,-1
 347 392 l 1,9,10
 324 402 324 402 296 402 c 0,11,12
 247 402 247 402 216 362 c 128,-1,13
 185 322 185 322 185 262 c 2,14,-1
 185 0 l 1,0,-1
264 556 m 1,15,-1
 163 556 l 1,16,-1
 254 725 l 1,17,-1
 380 725 l 1,18,-1
 264 556 l 1,15,-1
EndSplineSet
EndChar

StartChar: uni0156
Encoding: 342 342 249
Width: 589
GlyphClass: 2
Flags: W
LayerCount: 2
Fore
SplineSet
278 570 m 2,0,-1
 196 570 l 1,1,-1
 196 350 l 1,2,-1
 280 350 l 2,3,4
 338 350 338 350 367 379.5 c 128,-1,5
 396 409 396 409 396 462 c 0,6,7
 396 514 396 514 365.5 542 c 128,-1,8
 335 570 335 570 278 570 c 2,0,-1
252 -255 m 1,9,-1
 162 -255 l 1,10,-1
 238 -51 l 1,11,-1
 367 -51 l 1,12,-1
 252 -255 l 1,9,-1
196 0 m 1,13,-1
 70 0 l 1,14,-1
 70 674 l 1,15,-1
 278 674 l 2,16,17
 393 674 393 674 458.5 616 c 128,-1,18
 524 558 524 558 524 461 c 0,19,20
 523 389 523 389 489 339.5 c 128,-1,21
 455 290 455 290 396 266 c 1,22,-1
 569 0 l 1,23,-1
 418 0 l 1,24,-1
 265 246 l 1,25,-1
 196 246 l 1,26,-1
 196 0 l 1,13,-1
EndSplineSet
EndChar

StartChar: uni0157
Encoding: 343 343 250
Width: 353
GlyphClass: 2
Flags: W
LayerCount: 2
Fore
SplineSet
70 -255 m 1,0,-1
 -20 -255 l 1,1,-1
 56 -51 l 1,2,-1
 185 -51 l 1,3,-1
 70 -255 l 1,0,-1
185 0 m 1,4,-1
 64 0 l 1,5,-1
 65 507 l 1,6,-1
 185 507 l 1,7,-1
 185 417 l 1,8,9
 220 511 220 511 313 511 c 0,10,11
 334 511 334 511 347 508 c 1,12,-1
 347 392 l 1,13,14
 324 402 324 402 296 402 c 0,15,16
 247 402 247 402 216 362 c 128,-1,17
 185 322 185 322 185 262 c 2,18,-1
 185 0 l 1,4,-1
EndSplineSet
EndChar

StartChar: Rcaron
Encoding: 344 344 251
Width: 589
GlyphClass: 2
Flags: W
LayerCount: 2
Fore
SplineSet
278 570 m 2,0,-1
 196 570 l 1,1,-1
 196 350 l 1,2,-1
 280 350 l 2,3,4
 338 350 338 350 367 379.5 c 128,-1,5
 396 409 396 409 396 462 c 0,6,7
 396 514 396 514 365.5 542 c 128,-1,8
 335 570 335 570 278 570 c 2,0,-1
196 0 m 1,9,-1
 70 0 l 1,10,-1
 70 674 l 1,11,-1
 278 674 l 2,12,13
 393 674 393 674 458.5 616 c 128,-1,14
 524 558 524 558 524 461 c 0,15,16
 523 389 523 389 489 339.5 c 128,-1,17
 455 290 455 290 396 266 c 1,18,-1
 569 0 l 1,19,-1
 418 0 l 1,20,-1
 265 246 l 1,21,-1
 196 246 l 1,22,-1
 196 0 l 1,9,-1
355 723 m 1,23,-1
 249 723 l 1,24,-1
 104 892 l 1,25,-1
 221 892 l 1,26,-1
 302 793 l 1,27,-1
 383 892 l 1,28,-1
 500 892 l 1,29,-1
 355 723 l 1,23,-1
EndSplineSet
EndChar

StartChar: rcaron
Encoding: 345 345 252
Width: 353
GlyphClass: 2
Flags: W
LayerCount: 2
Fore
SplineSet
185 0 m 1,0,-1
 64 0 l 1,1,-1
 65 507 l 1,2,-1
 185 507 l 1,3,-1
 185 417 l 1,4,5
 220 511 220 511 313 511 c 0,6,7
 334 511 334 511 347 508 c 1,8,-1
 347 392 l 1,9,10
 324 402 324 402 296 402 c 0,11,12
 247 402 247 402 216 362 c 128,-1,13
 185 322 185 322 185 262 c 2,14,-1
 185 0 l 1,0,-1
261 556 m 1,15,-1
 155 556 l 1,16,-1
 10 725 l 1,17,-1
 127 725 l 1,18,-1
 208 626 l 1,19,-1
 289 725 l 1,20,-1
 406 725 l 1,21,-1
 261 556 l 1,15,-1
EndSplineSet
EndChar

StartChar: Sacute
Encoding: 346 346 253
Width: 518
GlyphClass: 2
Flags: W
LayerCount: 2
Fore
SplineSet
477 189 m 0,0,1
 477 99 477 99 412.5 45.5 c 128,-1,2
 348 -8 348 -8 243 -8 c 0,3,4
 129 -8 129 -8 54 35 c 1,5,-1
 54 164 l 1,6,7
 140 102 140 102 242 102 c 0,8,9
 288 102 288 102 316 124.5 c 128,-1,10
 344 147 344 147 344 185 c 0,11,12
 344 203 344 203 337 217 c 128,-1,13
 330 231 330 231 308.5 245 c 128,-1,14
 287 259 287 259 275.5 265 c 128,-1,15
 264 271 264 271 228 287 c 0,16,17
 218 292 218 292 213 294 c 0,18,19
 176 311 176 311 153 324.5 c 128,-1,20
 130 338 130 338 103 361 c 128,-1,21
 76 384 76 384 62.5 416 c 128,-1,22
 49 448 49 448 49 489 c 0,23,24
 49 575 49 575 112.5 627 c 128,-1,25
 176 679 176 679 281 679 c 0,26,27
 376 679 376 679 445 646 c 1,28,-1
 445 524 l 1,29,30
 370 569 370 569 285 569 c 0,31,32
 238 569 238 569 211.5 548 c 128,-1,33
 185 527 185 527 185 494 c 128,-1,34
 185 461 185 461 213.5 439.5 c 128,-1,35
 242 418 242 418 299 392 c 0,36,37
 339 374 339 374 364 360.5 c 128,-1,38
 389 347 389 347 418.5 323 c 128,-1,39
 448 299 448 299 462.5 265.5 c 128,-1,40
 477 232 477 232 477 189 c 0,0,1
320 723 m 1,41,-1
 219 723 l 1,42,-1
 310 892 l 1,43,-1
 436 892 l 1,44,-1
 320 723 l 1,41,-1
EndSplineSet
EndChar

StartChar: sacute
Encoding: 347 347 254
Width: 427
GlyphClass: 2
Flags: W
LayerCount: 2
Fore
SplineSet
396 146 m 0,0,1
 396 75 396 75 345 35 c 128,-1,2
 294 -5 294 -5 209 -5 c 0,3,4
 115 -5 115 -5 57 26 c 1,5,-1
 57 136 l 1,6,7
 124 91 124 91 202 91 c 0,8,9
 235 91 235 91 253.5 103.5 c 128,-1,10
 272 116 272 116 272 138 c 0,11,12
 272 151 272 151 266 161.5 c 128,-1,13
 260 172 260 172 243 182 c 128,-1,14
 226 192 226 192 216.5 196.5 c 128,-1,15
 207 201 207 201 179 213 c 0,16,17
 176 214 176 214 174.5 215 c 128,-1,18
 173 216 173 216 170 217 c 128,-1,19
 167 218 167 218 165 219 c 0,20,21
 54 269 54 269 54 363 c 0,22,23
 54 433 54 433 107 473 c 128,-1,24
 160 513 160 513 240 513 c 0,25,26
 317 513 317 513 368 491 c 1,27,-1
 368 385 l 1,28,29
 318 415 318 415 243 415 c 0,30,31
 212 415 212 415 194.5 401.5 c 128,-1,32
 177 388 177 388 177 367 c 0,33,34
 177 359 177 359 179.5 352 c 128,-1,35
 182 345 182 345 188.5 338.5 c 128,-1,36
 195 332 195 332 201 327 c 128,-1,37
 207 322 207 322 218 316.5 c 128,-1,38
 229 311 229 311 237 307 c 128,-1,39
 245 303 245 303 259 297 c 128,-1,40
 273 291 273 291 281 287 c 0,41,42
 334 261 334 261 365 229 c 128,-1,43
 396 197 396 197 396 146 c 0,0,1
285 556 m 1,44,-1
 184 556 l 1,45,-1
 275 725 l 1,46,-1
 401 725 l 1,47,-1
 285 556 l 1,44,-1
EndSplineSet
EndChar

StartChar: uni015E
Encoding: 350 350 255
Width: 518
GlyphClass: 2
Flags: W
LayerCount: 2
Fore
SplineSet
477 189 m 0,0,1
 477 99 477 99 412.5 45.5 c 128,-1,2
 348 -8 348 -8 243 -8 c 0,3,4
 129 -8 129 -8 54 35 c 1,5,-1
 54 164 l 1,6,7
 140 102 140 102 242 102 c 0,8,9
 288 102 288 102 316 124.5 c 128,-1,10
 344 147 344 147 344 185 c 0,11,12
 344 203 344 203 337 217 c 128,-1,13
 330 231 330 231 308.5 245 c 128,-1,14
 287 259 287 259 275.5 265 c 128,-1,15
 264 271 264 271 228 287 c 0,16,17
 218 292 218 292 213 294 c 0,18,19
 176 311 176 311 153 324.5 c 128,-1,20
 130 338 130 338 103 361 c 128,-1,21
 76 384 76 384 62.5 416 c 128,-1,22
 49 448 49 448 49 489 c 0,23,24
 49 575 49 575 112.5 627 c 128,-1,25
 176 679 176 679 281 679 c 0,26,27
 376 679 376 679 445 646 c 1,28,-1
 445 524 l 1,29,30
 370 569 370 569 285 569 c 0,31,32
 238 569 238 569 211.5 548 c 128,-1,33
 185 527 185 527 185 494 c 128,-1,34
 185 461 185 461 213.5 439.5 c 128,-1,35
 242 418 242 418 299 392 c 0,36,37
 339 374 339 374 364 360.5 c 128,-1,38
 389 347 389 347 418.5 323 c 128,-1,39
 448 299 448 299 462.5 265.5 c 128,-1,40
 477 232 477 232 477 189 c 0,0,1
330 -124 m 0,41,42
 330 -183 330 -183 287 -222 c 128,-1,43
 244 -261 244 -261 161 -262 c 1,44,-1
 161 -184 l 1,45,46
 240 -181 240 -181 240 -117 c 0,47,48
 240 -88 240 -88 215 -51 c 1,49,-1
 312 -51 l 1,50,51
 330 -78 330 -78 330 -124 c 0,41,42
EndSplineSet
EndChar

StartChar: uni015F
Encoding: 351 351 256
Width: 427
GlyphClass: 2
Flags: W
LayerCount: 2
Fore
SplineSet
396 146 m 0,0,1
 396 75 396 75 345 35 c 128,-1,2
 294 -5 294 -5 209 -5 c 0,3,4
 115 -5 115 -5 57 26 c 1,5,-1
 57 136 l 1,6,7
 124 91 124 91 202 91 c 0,8,9
 235 91 235 91 253.5 103.5 c 128,-1,10
 272 116 272 116 272 138 c 0,11,12
 272 151 272 151 266 161.5 c 128,-1,13
 260 172 260 172 243 182 c 128,-1,14
 226 192 226 192 216.5 196.5 c 128,-1,15
 207 201 207 201 179 213 c 0,16,17
 176 214 176 214 174.5 215 c 128,-1,18
 173 216 173 216 170 217 c 128,-1,19
 167 218 167 218 165 219 c 0,20,21
 54 269 54 269 54 363 c 0,22,23
 54 433 54 433 107 473 c 128,-1,24
 160 513 160 513 240 513 c 0,25,26
 317 513 317 513 368 491 c 1,27,-1
 368 385 l 1,28,29
 318 415 318 415 243 415 c 0,30,31
 212 415 212 415 194.5 401.5 c 128,-1,32
 177 388 177 388 177 367 c 0,33,34
 177 359 177 359 179.5 352 c 128,-1,35
 182 345 182 345 188.5 338.5 c 128,-1,36
 195 332 195 332 201 327 c 128,-1,37
 207 322 207 322 218 316.5 c 128,-1,38
 229 311 229 311 237 307 c 128,-1,39
 245 303 245 303 259 297 c 128,-1,40
 273 291 273 291 281 287 c 0,41,42
 334 261 334 261 365 229 c 128,-1,43
 396 197 396 197 396 146 c 0,0,1
291 -124 m 0,44,45
 291 -183 291 -183 248 -222 c 128,-1,46
 205 -261 205 -261 122 -262 c 1,47,-1
 122 -184 l 1,48,49
 201 -181 201 -181 201 -117 c 0,50,51
 201 -88 201 -88 176 -51 c 1,52,-1
 273 -51 l 1,53,54
 291 -78 291 -78 291 -124 c 0,44,45
EndSplineSet
EndChar

StartChar: Scaron
Encoding: 352 352 257
Width: 518
GlyphClass: 2
Flags: W
LayerCount: 2
Fore
SplineSet
477 189 m 0,0,1
 477 99 477 99 412.5 45.5 c 128,-1,2
 348 -8 348 -8 243 -8 c 0,3,4
 129 -8 129 -8 54 35 c 1,5,-1
 54 164 l 1,6,7
 140 102 140 102 242 102 c 0,8,9
 288 102 288 102 316 124.5 c 128,-1,10
 344 147 344 147 344 185 c 0,11,12
 344 203 344 203 337 217 c 128,-1,13
 330 231 330 231 308.5 245 c 128,-1,14
 287 259 287 259 275.5 265 c 128,-1,15
 264 271 264 271 228 287 c 0,16,17
 218 292 218 292 213 294 c 0,18,19
 176 311 176 311 153 324.5 c 128,-1,20
 130 338 130 338 103 361 c 128,-1,21
 76 384 76 384 62.5 416 c 128,-1,22
 49 448 49 448 49 489 c 0,23,24
 49 575 49 575 112.5 627 c 128,-1,25
 176 679 176 679 281 679 c 0,26,27
 376 679 376 679 445 646 c 1,28,-1
 445 524 l 1,29,30
 370 569 370 569 285 569 c 0,31,32
 238 569 238 569 211.5 548 c 128,-1,33
 185 527 185 527 185 494 c 128,-1,34
 185 461 185 461 213.5 439.5 c 128,-1,35
 242 418 242 418 299 392 c 0,36,37
 339 374 339 374 364 360.5 c 128,-1,38
 389 347 389 347 418.5 323 c 128,-1,39
 448 299 448 299 462.5 265.5 c 128,-1,40
 477 232 477 232 477 189 c 0,0,1
318 723 m 1,41,-1
 212 723 l 1,42,-1
 67 892 l 1,43,-1
 184 892 l 1,44,-1
 265 793 l 1,45,-1
 346 892 l 1,46,-1
 463 892 l 1,47,-1
 318 723 l 1,41,-1
EndSplineSet
EndChar

StartChar: scaron
Encoding: 353 353 258
Width: 427
GlyphClass: 2
Flags: W
LayerCount: 2
Fore
SplineSet
396 146 m 0,0,1
 396 75 396 75 345 35 c 128,-1,2
 294 -5 294 -5 209 -5 c 0,3,4
 115 -5 115 -5 57 26 c 1,5,-1
 57 136 l 1,6,7
 124 91 124 91 202 91 c 0,8,9
 235 91 235 91 253.5 103.5 c 128,-1,10
 272 116 272 116 272 138 c 0,11,12
 272 151 272 151 266 161.5 c 128,-1,13
 260 172 260 172 243 182 c 128,-1,14
 226 192 226 192 216.5 196.5 c 128,-1,15
 207 201 207 201 179 213 c 0,16,17
 176 214 176 214 174.5 215 c 128,-1,18
 173 216 173 216 170 217 c 128,-1,19
 167 218 167 218 165 219 c 0,20,21
 54 269 54 269 54 363 c 0,22,23
 54 433 54 433 107 473 c 128,-1,24
 160 513 160 513 240 513 c 0,25,26
 317 513 317 513 368 491 c 1,27,-1
 368 385 l 1,28,29
 318 415 318 415 243 415 c 0,30,31
 212 415 212 415 194.5 401.5 c 128,-1,32
 177 388 177 388 177 367 c 0,33,34
 177 359 177 359 179.5 352 c 128,-1,35
 182 345 182 345 188.5 338.5 c 128,-1,36
 195 332 195 332 201 327 c 128,-1,37
 207 322 207 322 218 316.5 c 128,-1,38
 229 311 229 311 237 307 c 128,-1,39
 245 303 245 303 259 297 c 128,-1,40
 273 291 273 291 281 287 c 0,41,42
 334 261 334 261 365 229 c 128,-1,43
 396 197 396 197 396 146 c 0,0,1
289 556 m 1,44,-1
 183 556 l 1,45,-1
 38 725 l 1,46,-1
 155 725 l 1,47,-1
 236 626 l 1,48,-1
 317 725 l 1,49,-1
 434 725 l 1,50,-1
 289 556 l 1,44,-1
EndSplineSet
EndChar

StartChar: uni0162
Encoding: 354 354 259
Width: 520
GlyphClass: 2
Flags: W
LayerCount: 2
Fore
SplineSet
495 570 m 1,0,-1
 324 570 l 1,1,-1
 324 0 l 1,2,-1
 197 0 l 1,3,-1
 197 570 l 1,4,-1
 26 570 l 1,5,-1
 26 674 l 1,6,-1
 495 674 l 1,7,-1
 495 570 l 1,0,-1
329 -124 m 0,8,9
 329 -183 329 -183 286 -222 c 128,-1,10
 243 -261 243 -261 160 -262 c 1,11,-1
 160 -184 l 1,12,13
 239 -181 239 -181 239 -117 c 0,14,15
 239 -88 239 -88 214 -51 c 1,16,-1
 311 -51 l 1,17,18
 329 -78 329 -78 329 -124 c 0,8,9
EndSplineSet
EndChar

StartChar: uni0163
Encoding: 355 355 260
Width: 379
GlyphClass: 2
Flags: W
LayerCount: 2
Fore
SplineSet
345 12 m 1,0,1
 310 -5 310 -5 255 -5 c 0,2,3
 91 -5 91 -5 91 161 c 2,4,-1
 91 417 l 1,5,-1
 15 417 l 1,6,-1
 15 507 l 1,7,-1
 91 507 l 1,8,-1
 91 629 l 1,9,-1
 211 629 l 1,10,-1
 211 507 l 1,11,-1
 337 507 l 1,12,-1
 337 417 l 1,13,-1
 211 417 l 1,14,-1
 211 159 l 2,15,16
 211 127 211 127 228 110.5 c 128,-1,17
 245 94 245 94 275 94 c 0,18,19
 313 94 313 94 345 115 c 1,20,-1
 345 12 l 1,0,1
275 -124 m 0,21,22
 275 -183 275 -183 232 -222 c 128,-1,23
 189 -261 189 -261 106 -262 c 1,24,-1
 106 -184 l 1,25,26
 185 -181 185 -181 185 -117 c 0,27,28
 185 -88 185 -88 160 -51 c 1,29,-1
 257 -51 l 1,30,31
 275 -78 275 -78 275 -124 c 0,21,22
EndSplineSet
EndChar

StartChar: Tcaron
Encoding: 356 356 261
Width: 520
GlyphClass: 2
Flags: W
LayerCount: 2
Fore
SplineSet
495 570 m 1,0,-1
 324 570 l 1,1,-1
 324 0 l 1,2,-1
 197 0 l 1,3,-1
 197 570 l 1,4,-1
 26 570 l 1,5,-1
 26 674 l 1,6,-1
 495 674 l 1,7,-1
 495 570 l 1,0,-1
314 723 m 1,8,-1
 208 723 l 1,9,-1
 63 892 l 1,10,-1
 180 892 l 1,11,-1
 261 793 l 1,12,-1
 342 892 l 1,13,-1
 459 892 l 1,14,-1
 314 723 l 1,8,-1
EndSplineSet
EndChar

StartChar: tcaron
Encoding: 357 357 262
Width: 379
GlyphClass: 2
Flags: W
LayerCount: 2
Fore
SplineSet
345 12 m 1,0,1
 310 -5 310 -5 255 -5 c 0,2,3
 91 -5 91 -5 91 161 c 2,4,-1
 91 417 l 1,5,-1
 15 417 l 1,6,-1
 15 507 l 1,7,-1
 91 507 l 1,8,-1
 91 629 l 1,9,-1
 211 629 l 1,10,-1
 211 507 l 1,11,-1
 337 507 l 1,12,-1
 337 417 l 1,13,-1
 211 417 l 1,14,-1
 211 159 l 2,15,16
 211 127 211 127 228 110.5 c 128,-1,17
 245 94 245 94 275 94 c 0,18,19
 313 94 313 94 345 115 c 1,20,-1
 345 12 l 1,0,1
356 580 m 1,21,-1
 265 580 l 1,22,-1
 341 784 l 1,23,-1
 470 784 l 1,24,-1
 356 580 l 1,21,-1
EndSplineSet
EndChar

StartChar: Umacron
Encoding: 362 362 263
Width: 659
GlyphClass: 2
Flags: W
LayerCount: 2
Fore
SplineSet
593 259 m 2,0,1
 593 128 593 128 522.5 59.5 c 128,-1,2
 452 -9 452 -9 329 -9 c 0,3,4
 209 -9 209 -9 137.5 58.5 c 128,-1,5
 66 126 66 126 66 252 c 2,6,-1
 66 674 l 1,7,-1
 192 674 l 1,8,-1
 192 253 l 2,9,10
 192 176 192 176 230 141.5 c 128,-1,11
 268 107 268 107 329 107 c 0,12,13
 467 107 467 107 467 258 c 2,14,-1
 467 674 l 1,15,-1
 593 674 l 1,16,-1
 593 259 l 2,0,1
500 766 m 1,17,-1
 172 766 l 1,18,-1
 172 849 l 1,19,-1
 500 849 l 1,20,-1
 500 766 l 1,17,-1
EndSplineSet
EndChar

StartChar: umacron
Encoding: 363 363 264
Width: 565
GlyphClass: 2
Flags: W
LayerCount: 2
Fore
SplineSet
500 0 m 1,0,-1
 379 0 l 1,1,-1
 379 83 l 1,2,3
 339 -5 339 -5 223 -5 c 0,4,5
 146 -5 146 -5 103 39 c 128,-1,6
 60 83 60 83 60 164 c 2,7,-1
 60 507 l 1,8,-1
 180 507 l 1,9,-1
 180 192 l 2,10,11
 180 144 180 144 203.5 119 c 128,-1,12
 227 94 227 94 268 94 c 0,13,14
 320 94 320 94 349.5 129 c 128,-1,15
 379 164 379 164 379 235 c 2,16,-1
 379 507 l 1,17,-1
 500 507 l 1,18,-1
 500 0 l 1,0,-1
443 599 m 1,19,-1
 115 599 l 1,20,-1
 115 682 l 1,21,-1
 443 682 l 1,22,-1
 443 599 l 1,19,-1
EndSplineSet
EndChar

StartChar: Uring
Encoding: 366 366 265
Width: 659
GlyphClass: 2
Flags: W
LayerCount: 2
Fore
SplineSet
593 259 m 2,0,1
 593 128 593 128 522.5 59.5 c 128,-1,2
 452 -9 452 -9 329 -9 c 0,3,4
 209 -9 209 -9 137.5 58.5 c 128,-1,5
 66 126 66 126 66 252 c 2,6,-1
 66 674 l 1,7,-1
 192 674 l 1,8,-1
 192 253 l 2,9,10
 192 176 192 176 230 141.5 c 128,-1,11
 268 107 268 107 329 107 c 0,12,13
 467 107 467 107 467 258 c 2,14,-1
 467 674 l 1,15,-1
 593 674 l 1,16,-1
 593 259 l 2,0,1
457 837 m 128,-1,18
 457 785 457 785 420.5 748.5 c 128,-1,19
 384 712 384 712 332 712 c 128,-1,20
 280 712 280 712 243.5 748.5 c 128,-1,21
 207 785 207 785 207 837 c 128,-1,22
 207 889 207 889 243.5 925.5 c 128,-1,23
 280 962 280 962 332 962 c 128,-1,24
 384 962 384 962 420.5 925.5 c 128,-1,17
 457 889 457 889 457 837 c 128,-1,18
279 839 m 128,-1,26
 279 817 279 817 294 800.5 c 128,-1,27
 309 784 309 784 332 784 c 128,-1,28
 355 784 355 784 370 800.5 c 128,-1,29
 385 817 385 817 385 839 c 128,-1,30
 385 861 385 861 370 877.5 c 128,-1,31
 355 894 355 894 332 894 c 128,-1,32
 309 894 309 894 294 877.5 c 128,-1,25
 279 861 279 861 279 839 c 128,-1,26
EndSplineSet
EndChar

StartChar: uring
Encoding: 367 367 266
Width: 565
GlyphClass: 2
Flags: W
LayerCount: 2
Fore
SplineSet
500 0 m 1,0,-1
 379 0 l 1,1,-1
 379 83 l 1,2,3
 339 -5 339 -5 223 -5 c 0,4,5
 146 -5 146 -5 103 39 c 128,-1,6
 60 83 60 83 60 164 c 2,7,-1
 60 507 l 1,8,-1
 180 507 l 1,9,-1
 180 192 l 2,10,11
 180 144 180 144 203.5 119 c 128,-1,12
 227 94 227 94 268 94 c 0,13,14
 320 94 320 94 349.5 129 c 128,-1,15
 379 164 379 164 379 235 c 2,16,-1
 379 507 l 1,17,-1
 500 507 l 1,18,-1
 500 0 l 1,0,-1
410 670 m 128,-1,20
 410 618 410 618 373.5 581.5 c 128,-1,21
 337 545 337 545 285 545 c 128,-1,22
 233 545 233 545 196.5 581.5 c 128,-1,23
 160 618 160 618 160 670 c 128,-1,24
 160 722 160 722 196.5 758.5 c 128,-1,25
 233 795 233 795 285 795 c 128,-1,26
 337 795 337 795 373.5 758.5 c 128,-1,19
 410 722 410 722 410 670 c 128,-1,20
232 672 m 128,-1,28
 232 650 232 650 247 633.5 c 128,-1,29
 262 617 262 617 285 617 c 128,-1,30
 308 617 308 617 323 633.5 c 128,-1,31
 338 650 338 650 338 672 c 128,-1,32
 338 694 338 694 323 710.5 c 128,-1,33
 308 727 308 727 285 727 c 128,-1,34
 262 727 262 727 247 710.5 c 128,-1,27
 232 694 232 694 232 672 c 128,-1,28
EndSplineSet
EndChar

StartChar: Uhungarumlaut
Encoding: 368 368 267
Width: 659
GlyphClass: 2
Flags: W
LayerCount: 2
Fore
SplineSet
593 259 m 2,0,1
 593 128 593 128 522.5 59.5 c 128,-1,2
 452 -9 452 -9 329 -9 c 0,3,4
 209 -9 209 -9 137.5 58.5 c 128,-1,5
 66 126 66 126 66 252 c 2,6,-1
 66 674 l 1,7,-1
 192 674 l 1,8,-1
 192 253 l 2,9,10
 192 176 192 176 230 141.5 c 128,-1,11
 268 107 268 107 329 107 c 0,12,13
 467 107 467 107 467 258 c 2,14,-1
 467 674 l 1,15,-1
 593 674 l 1,16,-1
 593 259 l 2,0,1
464 723 m 1,17,-1
 373 723 l 1,18,-1
 470 892 l 1,19,-1
 596 892 l 1,20,-1
 464 723 l 1,17,-1
288 723 m 1,21,-1
 198 723 l 1,22,-1
 288 892 l 1,23,-1
 405 892 l 1,24,-1
 288 723 l 1,21,-1
EndSplineSet
EndChar

StartChar: uhungarumlaut
Encoding: 369 369 268
Width: 565
GlyphClass: 2
Flags: W
LayerCount: 2
Fore
SplineSet
500 0 m 1,0,-1
 379 0 l 1,1,-1
 379 83 l 1,2,3
 339 -5 339 -5 223 -5 c 0,4,5
 146 -5 146 -5 103 39 c 128,-1,6
 60 83 60 83 60 164 c 2,7,-1
 60 507 l 1,8,-1
 180 507 l 1,9,-1
 180 192 l 2,10,11
 180 144 180 144 203.5 119 c 128,-1,12
 227 94 227 94 268 94 c 0,13,14
 320 94 320 94 349.5 129 c 128,-1,15
 379 164 379 164 379 235 c 2,16,-1
 379 507 l 1,17,-1
 500 507 l 1,18,-1
 500 0 l 1,0,-1
420 556 m 1,19,-1
 329 556 l 1,20,-1
 426 725 l 1,21,-1
 552 725 l 1,22,-1
 420 556 l 1,19,-1
244 556 m 1,23,-1
 154 556 l 1,24,-1
 244 725 l 1,25,-1
 361 725 l 1,26,-1
 244 556 l 1,23,-1
EndSplineSet
EndChar

StartChar: Uogonek
Encoding: 370 370 269
Width: 659
GlyphClass: 2
Flags: W
LayerCount: 2
Fore
SplineSet
593 259 m 2,0,1
 593 160 593 160 551.5 96 c 128,-1,2
 510 32 510 32 435 7 c 1,3,4
 321 -60 321 -60 321 -120 c 0,5,6
 321 -164 321 -164 373 -164 c 0,7,8
 412 -164 412 -164 453 -137 c 1,9,-1
 453 -222 l 1,10,11
 412 -245 412 -245 355 -245 c 0,12,13
 289 -245 289 -245 256 -213 c 128,-1,14
 223 -181 223 -181 223 -131 c 0,15,16
 223 -64 223 -64 285 -7 c 1,17,18
 183 5 183 5 124.5 71.5 c 128,-1,19
 66 138 66 138 66 252 c 2,20,-1
 66 674 l 1,21,-1
 192 674 l 1,22,-1
 192 253 l 2,23,24
 192 176 192 176 230 141.5 c 128,-1,25
 268 107 268 107 329 107 c 0,26,27
 467 107 467 107 467 258 c 2,28,-1
 467 674 l 1,29,-1
 593 674 l 1,30,-1
 593 259 l 2,0,1
EndSplineSet
EndChar

StartChar: uogonek
Encoding: 371 371 270
Width: 565
GlyphClass: 2
Flags: W
LayerCount: 2
Fore
SplineSet
516 -230 m 1,0,1
 475 -253 475 -253 418 -253 c 0,2,3
 352 -253 352 -253 319 -221 c 128,-1,4
 286 -189 286 -189 286 -139 c 0,5,6
 286 -56 286 -56 379 10 c 1,7,-1
 379 83 l 1,8,9
 339 -5 339 -5 223 -5 c 0,10,11
 146 -5 146 -5 103 39 c 128,-1,12
 60 83 60 83 60 164 c 2,13,-1
 60 507 l 1,14,-1
 180 507 l 1,15,-1
 180 192 l 2,16,17
 180 144 180 144 203.5 119 c 128,-1,18
 227 94 227 94 268 94 c 0,19,20
 320 94 320 94 349.5 129 c 128,-1,21
 379 164 379 164 379 235 c 2,22,-1
 379 507 l 1,23,-1
 500 507 l 1,24,-1
 500 0 l 1,25,26
 384 -67 384 -67 384 -128 c 0,27,28
 384 -172 384 -172 436 -172 c 0,29,30
 476 -172 476 -172 516 -145 c 1,31,-1
 516 -230 l 1,0,1
EndSplineSet
EndChar

StartChar: Ydieresis
Encoding: 376 376 271
Width: 624
GlyphClass: 2
Flags: W
LayerCount: 2
Fore
SplineSet
374 0 m 1,0,-1
 248 0 l 1,1,-1
 248 246 l 1,2,-1
 18 674 l 1,3,-1
 165 674 l 1,4,-1
 210 576 l 2,5,6
 249 491 249 491 274 433.5 c 128,-1,7
 299 376 299 376 304 362 c 2,8,-1
 310 347 l 1,9,10
 319 384 319 384 413 576 c 2,11,-1
 459 674 l 1,12,-1
 606 674 l 1,13,-1
 374 250 l 1,14,-1
 374 0 l 1,0,-1
509 808 m 0,15,16
 509 778 509 778 489 758 c 128,-1,17
 469 738 469 738 438 738 c 0,18,19
 408 738 408 738 387.5 758 c 128,-1,20
 367 778 367 778 367 808 c 0,21,22
 367 837 367 837 387.5 857 c 128,-1,23
 408 877 408 877 438 877 c 0,24,25
 469 877 469 877 489 857 c 128,-1,26
 509 837 509 837 509 808 c 0,15,16
266 808 m 0,27,28
 266 778 266 778 246 758 c 128,-1,29
 226 738 226 738 196 738 c 0,30,31
 165 738 165 738 145 758 c 128,-1,32
 125 778 125 778 125 808 c 0,33,34
 125 837 125 837 145 857 c 128,-1,35
 165 877 165 877 196 877 c 0,36,37
 226 877 226 877 246 857 c 128,-1,38
 266 837 266 837 266 808 c 0,27,28
EndSplineSet
EndChar

StartChar: Zacute
Encoding: 377 377 272
Width: 601
GlyphClass: 2
Flags: W
LayerCount: 2
Fore
SplineSet
544 0 m 1,0,-1
 57 0 l 1,1,-1
 57 96 l 1,2,-1
 379 571 l 1,3,-1
 62 571 l 1,4,-1
 62 674 l 1,5,-1
 531 674 l 1,6,-1
 531 581 l 1,7,-1
 208 103 l 1,8,-1
 544 103 l 1,9,-1
 544 0 l 1,0,-1
370 723 m 1,10,-1
 269 723 l 1,11,-1
 360 892 l 1,12,-1
 486 892 l 1,13,-1
 370 723 l 1,10,-1
EndSplineSet
EndChar

StartChar: zacute
Encoding: 378 378 273
Width: 469
GlyphClass: 2
Flags: W
LayerCount: 2
Fore
SplineSet
428 0 m 1,0,-1
 42 0 l 1,1,-1
 42 89 l 1,2,-1
 277 411 l 1,3,-1
 51 411 l 1,4,-1
 51 507 l 1,5,-1
 415 507 l 1,6,-1
 415 423 l 1,7,-1
 179 97 l 1,8,-1
 428 97 l 1,9,-1
 428 0 l 1,0,-1
301 556 m 1,10,-1
 200 556 l 1,11,-1
 291 725 l 1,12,-1
 417 725 l 1,13,-1
 301 556 l 1,10,-1
EndSplineSet
EndChar

StartChar: Zdotaccent
Encoding: 379 379 274
Width: 601
GlyphClass: 2
Flags: W
LayerCount: 2
Fore
SplineSet
544 0 m 1,0,-1
 57 0 l 1,1,-1
 57 96 l 1,2,-1
 379 571 l 1,3,-1
 62 571 l 1,4,-1
 62 674 l 1,5,-1
 531 674 l 1,6,-1
 531 581 l 1,7,-1
 208 103 l 1,8,-1
 544 103 l 1,9,-1
 544 0 l 1,0,-1
385 809 m 0,10,11
 385 779 385 779 365 759 c 128,-1,12
 345 739 345 739 315 739 c 0,13,14
 284 739 284 739 264 759 c 128,-1,15
 244 779 244 779 244 809 c 0,16,17
 244 838 244 838 264 858 c 128,-1,18
 284 878 284 878 315 878 c 0,19,20
 345 878 345 878 365 858 c 128,-1,21
 385 838 385 838 385 809 c 0,10,11
EndSplineSet
EndChar

StartChar: zdotaccent
Encoding: 380 380 275
Width: 469
GlyphClass: 2
Flags: W
LayerCount: 2
Fore
SplineSet
428 0 m 1,0,-1
 42 0 l 1,1,-1
 42 89 l 1,2,-1
 277 411 l 1,3,-1
 51 411 l 1,4,-1
 51 507 l 1,5,-1
 415 507 l 1,6,-1
 415 423 l 1,7,-1
 179 97 l 1,8,-1
 428 97 l 1,9,-1
 428 0 l 1,0,-1
318 641 m 0,10,11
 318 611 318 611 298 591 c 128,-1,12
 278 571 278 571 248 571 c 0,13,14
 217 571 217 571 197 591 c 128,-1,15
 177 611 177 611 177 641 c 0,16,17
 177 670 177 670 197 690 c 128,-1,18
 217 710 217 710 248 710 c 0,19,20
 278 710 278 710 298 690 c 128,-1,21
 318 670 318 670 318 641 c 0,10,11
EndSplineSet
EndChar

StartChar: Zcaron
Encoding: 381 381 276
Width: 601
GlyphClass: 2
Flags: W
LayerCount: 2
Fore
SplineSet
544 0 m 1,0,-1
 57 0 l 1,1,-1
 57 96 l 1,2,-1
 379 571 l 1,3,-1
 62 571 l 1,4,-1
 62 674 l 1,5,-1
 531 674 l 1,6,-1
 531 581 l 1,7,-1
 208 103 l 1,8,-1
 544 103 l 1,9,-1
 544 0 l 1,0,-1
359 723 m 1,10,-1
 253 723 l 1,11,-1
 108 892 l 1,12,-1
 225 892 l 1,13,-1
 306 793 l 1,14,-1
 387 892 l 1,15,-1
 504 892 l 1,16,-1
 359 723 l 1,10,-1
EndSplineSet
EndChar

StartChar: zcaron
Encoding: 382 382 277
Width: 469
GlyphClass: 2
Flags: W
LayerCount: 2
Fore
SplineSet
428 0 m 1,0,-1
 42 0 l 1,1,-1
 42 89 l 1,2,-1
 277 411 l 1,3,-1
 51 411 l 1,4,-1
 51 507 l 1,5,-1
 415 507 l 1,6,-1
 415 423 l 1,7,-1
 179 97 l 1,8,-1
 428 97 l 1,9,-1
 428 0 l 1,0,-1
306 556 m 1,10,-1
 200 556 l 1,11,-1
 55 725 l 1,12,-1
 172 725 l 1,13,-1
 253 626 l 1,14,-1
 334 725 l 1,15,-1
 451 725 l 1,16,-1
 306 556 l 1,10,-1
EndSplineSet
EndChar

StartChar: florin
Encoding: 402 402 278
Width: 473
GlyphClass: 2
Flags: W
LayerCount: 2
Fore
SplineSet
230 -56 m 2,0,1
 215 -150 215 -150 168.5 -203 c 128,-1,2
 122 -256 122 -256 42 -256 c 0,3,4
 -13 -256 -13 -256 -44 -243 c 1,5,-1
 -44 -143 l 1,6,7
 -13 -157 -13 -157 24 -157 c 0,8,9
 62 -157 62 -157 81.5 -130 c 128,-1,10
 101 -103 101 -103 110 -47 c 2,11,-1
 165 290 l 1,12,-1
 74 290 l 1,13,-1
 74 380 l 1,14,-1
 180 380 l 1,15,-1
 196 480 l 2,16,17
 228 680 228 680 384 680 c 0,18,19
 433 680 433 680 462 670 c 1,20,-1
 462 570 l 1,21,22
 434 580 434 580 405 580 c 0,23,24
 332 580 332 580 315 471 c 2,25,-1
 300 380 l 1,26,-1
 397 380 l 1,27,-1
 397 290 l 1,28,-1
 286 290 l 1,29,-1
 230 -56 l 2,0,1
EndSplineSet
EndChar

StartChar: uni0218
Encoding: 536 536 279
Width: 518
GlyphClass: 2
Flags: W
LayerCount: 2
Fore
SplineSet
477 189 m 0,0,1
 477 99 477 99 412.5 45.5 c 128,-1,2
 348 -8 348 -8 243 -8 c 0,3,4
 129 -8 129 -8 54 35 c 1,5,-1
 54 164 l 1,6,7
 140 102 140 102 242 102 c 0,8,9
 288 102 288 102 316 124.5 c 128,-1,10
 344 147 344 147 344 185 c 0,11,12
 344 203 344 203 337 217 c 128,-1,13
 330 231 330 231 308.5 245 c 128,-1,14
 287 259 287 259 275.5 265 c 128,-1,15
 264 271 264 271 228 287 c 0,16,17
 218 292 218 292 213 294 c 0,18,19
 176 311 176 311 153 324.5 c 128,-1,20
 130 338 130 338 103 361 c 128,-1,21
 76 384 76 384 62.5 416 c 128,-1,22
 49 448 49 448 49 489 c 0,23,24
 49 575 49 575 112.5 627 c 128,-1,25
 176 679 176 679 281 679 c 0,26,27
 376 679 376 679 445 646 c 1,28,-1
 445 524 l 1,29,30
 370 569 370 569 285 569 c 0,31,32
 238 569 238 569 211.5 548 c 128,-1,33
 185 527 185 527 185 494 c 128,-1,34
 185 461 185 461 213.5 439.5 c 128,-1,35
 242 418 242 418 299 392 c 0,36,37
 339 374 339 374 364 360.5 c 128,-1,38
 389 347 389 347 418.5 323 c 128,-1,39
 448 299 448 299 462.5 265.5 c 128,-1,40
 477 232 477 232 477 189 c 0,0,1
216 -255 m 1,41,-1
 125 -255 l 1,42,-1
 201 -51 l 1,43,-1
 330 -51 l 1,44,-1
 216 -255 l 1,41,-1
EndSplineSet
EndChar

StartChar: uni0219
Encoding: 537 537 280
Width: 427
GlyphClass: 2
Flags: W
LayerCount: 2
Fore
SplineSet
396 146 m 0,0,1
 396 75 396 75 345 35 c 128,-1,2
 294 -5 294 -5 209 -5 c 0,3,4
 115 -5 115 -5 57 26 c 1,5,-1
 57 136 l 1,6,7
 124 91 124 91 202 91 c 0,8,9
 235 91 235 91 253.5 103.5 c 128,-1,10
 272 116 272 116 272 138 c 0,11,12
 272 151 272 151 266 161.5 c 128,-1,13
 260 172 260 172 243 182 c 128,-1,14
 226 192 226 192 216.5 196.5 c 128,-1,15
 207 201 207 201 179 213 c 0,16,17
 176 214 176 214 174.5 215 c 128,-1,18
 173 216 173 216 170 217 c 128,-1,19
 167 218 167 218 165 219 c 0,20,21
 54 269 54 269 54 363 c 0,22,23
 54 433 54 433 107 473 c 128,-1,24
 160 513 160 513 240 513 c 0,25,26
 317 513 317 513 368 491 c 1,27,-1
 368 385 l 1,28,29
 318 415 318 415 243 415 c 0,30,31
 212 415 212 415 194.5 401.5 c 128,-1,32
 177 388 177 388 177 367 c 0,33,34
 177 359 177 359 179.5 352 c 128,-1,35
 182 345 182 345 188.5 338.5 c 128,-1,36
 195 332 195 332 201 327 c 128,-1,37
 207 322 207 322 218 316.5 c 128,-1,38
 229 311 229 311 237 307 c 128,-1,39
 245 303 245 303 259 297 c 128,-1,40
 273 291 273 291 281 287 c 0,41,42
 334 261 334 261 365 229 c 128,-1,43
 396 197 396 197 396 146 c 0,0,1
172 -255 m 1,44,-1
 82 -255 l 1,45,-1
 158 -51 l 1,46,-1
 287 -51 l 1,47,-1
 172 -255 l 1,44,-1
EndSplineSet
EndChar

StartChar: uni021A
Encoding: 538 538 281
Width: 520
GlyphClass: 2
Flags: W
LayerCount: 2
Fore
SplineSet
209 -255 m 1,0,-1
 118 -255 l 1,1,-1
 195 -51 l 1,2,-1
 323 -51 l 1,3,-1
 209 -255 l 1,0,-1
495 570 m 1,4,-1
 324 570 l 1,5,-1
 324 0 l 1,6,-1
 197 0 l 1,7,-1
 197 570 l 1,8,-1
 26 570 l 1,9,-1
 26 674 l 1,10,-1
 495 674 l 1,11,-1
 495 570 l 1,4,-1
EndSplineSet
EndChar

StartChar: uni021B
Encoding: 539 539 282
Width: 379
GlyphClass: 2
Flags: W
LayerCount: 2
Fore
SplineSet
345 12 m 1,0,1
 310 -5 310 -5 255 -5 c 0,2,3
 91 -5 91 -5 91 161 c 2,4,-1
 91 417 l 1,5,-1
 15 417 l 1,6,-1
 15 507 l 1,7,-1
 91 507 l 1,8,-1
 91 629 l 1,9,-1
 211 629 l 1,10,-1
 211 507 l 1,11,-1
 337 507 l 1,12,-1
 337 417 l 1,13,-1
 211 417 l 1,14,-1
 211 159 l 2,15,16
 211 127 211 127 228 110.5 c 128,-1,17
 245 94 245 94 275 94 c 0,18,19
 313 94 313 94 345 115 c 1,20,-1
 345 12 l 1,0,1
200 -255 m 1,21,-1
 110 -255 l 1,22,-1
 186 -51 l 1,23,-1
 314 -51 l 1,24,-1
 200 -255 l 1,21,-1
EndSplineSet
EndChar

StartChar: circumflex
Encoding: 710 710 283
Width: 470
GlyphClass: 2
Flags: W
LayerCount: 2
Fore
SplineSet
154 629 m 1,0,-1
 37 629 l 1,1,-1
 182 798 l 1,2,-1
 288 798 l 1,3,-1
 433 629 l 1,4,-1
 316 629 l 1,5,-1
 235 728 l 1,6,-1
 154 629 l 1,0,-1
EndSplineSet
EndChar

StartChar: caron
Encoding: 711 711 284
Width: 470
GlyphClass: 2
Flags: W
LayerCount: 2
Fore
SplineSet
288 629 m 1,0,-1
 182 629 l 1,1,-1
 37 798 l 1,2,-1
 154 798 l 1,3,-1
 235 699 l 1,4,-1
 316 798 l 1,5,-1
 433 798 l 1,6,-1
 288 629 l 1,0,-1
EndSplineSet
EndChar

StartChar: uni02C9
Encoding: 713 713 285
Width: 470
GlyphClass: 2
Flags: W
LayerCount: 2
Fore
SplineSet
399 667 m 1,0,-1
 71 667 l 1,1,-1
 71 750 l 1,2,-1
 399 750 l 1,3,-1
 399 667 l 1,0,-1
EndSplineSet
EndChar

StartChar: breve
Encoding: 728 728 286
Width: 470
GlyphClass: 2
Flags: W
LayerCount: 2
Fore
SplineSet
420 798 m 1,0,1
 420 712 420 712 370.5 668.5 c 128,-1,2
 321 625 321 625 235 625 c 128,-1,3
 149 625 149 625 99.5 669 c 128,-1,4
 50 713 50 713 50 798 c 1,5,-1
 144 798 l 1,6,7
 144 755 144 755 167.5 729.5 c 128,-1,8
 191 704 191 704 235 704 c 128,-1,9
 279 704 279 704 302.5 729.5 c 128,-1,10
 326 755 326 755 326 798 c 1,11,-1
 420 798 l 1,0,1
EndSplineSet
EndChar

StartChar: dotaccent
Encoding: 729 729 287
Width: 470
GlyphClass: 2
Flags: W
LayerCount: 2
Fore
SplineSet
305 716 m 0,0,1
 305 686 305 686 285 666 c 128,-1,2
 265 646 265 646 235 646 c 0,3,4
 204 646 204 646 184 666 c 128,-1,5
 164 686 164 686 164 716 c 0,6,7
 164 745 164 745 184 765 c 128,-1,8
 204 785 204 785 235 785 c 0,9,10
 265 785 265 785 285 765 c 128,-1,11
 305 745 305 745 305 716 c 0,0,1
EndSplineSet
EndChar

StartChar: ring
Encoding: 730 730 288
Width: 470
GlyphClass: 2
Flags: W
LayerCount: 2
Fore
SplineSet
360 714 m 128,-1,1
 360 662 360 662 323.5 625.5 c 128,-1,2
 287 589 287 589 235 589 c 128,-1,3
 183 589 183 589 146.5 625.5 c 128,-1,4
 110 662 110 662 110 714 c 128,-1,5
 110 766 110 766 146.5 802.5 c 128,-1,6
 183 839 183 839 235 839 c 128,-1,7
 287 839 287 839 323.5 802.5 c 128,-1,0
 360 766 360 766 360 714 c 128,-1,1
182 716 m 128,-1,9
 182 694 182 694 197 677.5 c 128,-1,10
 212 661 212 661 235 661 c 128,-1,11
 258 661 258 661 273 677.5 c 128,-1,12
 288 694 288 694 288 716 c 128,-1,13
 288 738 288 738 273 754.5 c 128,-1,14
 258 771 258 771 235 771 c 128,-1,15
 212 771 212 771 197 754.5 c 128,-1,8
 182 738 182 738 182 716 c 128,-1,9
EndSplineSet
EndChar

StartChar: ogonek
Encoding: 731 731 289
Width: 470
GlyphClass: 2
Flags: W
LayerCount: 2
Fore
SplineSet
350 -217 m 1,0,1
 309 -240 309 -240 252 -240 c 0,2,3
 186 -240 186 -240 153 -208 c 128,-1,4
 120 -176 120 -176 120 -126 c 0,5,6
 120 -79 120 -79 151.5 -37 c 128,-1,7
 183 5 183 5 218.5 28.5 c 128,-1,8
 254 52 254 52 292 67 c 1,9,-1
 334 13 l 1,10,11
 218 -54 218 -54 218 -115 c 0,12,13
 218 -159 218 -159 270 -159 c 0,14,15
 310 -159 310 -159 350 -132 c 1,16,-1
 350 -217 l 1,0,1
EndSplineSet
EndChar

StartChar: tilde
Encoding: 732 732 290
Width: 470
GlyphClass: 2
Flags: W
LayerCount: 2
Fore
SplineSet
180 673 m 0,0,1
 156 673 156 673 141 663.5 c 128,-1,2
 126 654 126 654 108 629 c 1,3,-1
 51 682 l 1,4,5
 67 715 67 715 96.5 737.5 c 128,-1,6
 126 760 126 760 162 760 c 0,7,8
 196 760 196 760 237 741 c 128,-1,9
 278 722 278 722 297 722 c 0,10,11
 340 722 340 722 361 765 c 1,12,-1
 425 714 l 1,13,14
 386 635 386 635 303 635 c 0,15,16
 272 635 272 635 234 654 c 128,-1,17
 196 673 196 673 180 673 c 0,0,1
EndSplineSet
EndChar

StartChar: hungarumlaut
Encoding: 733 733 291
Width: 470
GlyphClass: 2
Flags: W
LayerCount: 2
Fore
SplineSet
302 629 m 1,0,-1
 211 629 l 1,1,-1
 308 798 l 1,2,-1
 434 798 l 1,3,-1
 302 629 l 1,0,-1
126 629 m 1,4,-1
 36 629 l 1,5,-1
 126 798 l 1,6,-1
 243 798 l 1,7,-1
 126 629 l 1,4,-1
EndSplineSet
EndChar

StartChar: pi
Encoding: 960 960 292
Width: 597
GlyphClass: 2
Flags: W
LayerCount: 2
Fore
SplineSet
584 417 m 1,0,-1
 498 417 l 1,1,-1
 498 0 l 1,2,-1
 378 0 l 1,3,-1
 378 417 l 1,4,-1
 228 417 l 1,5,-1
 228 197 l 2,6,7
 228 87 228 87 182.5 43.5 c 128,-1,8
 137 0 137 0 40 0 c 1,9,-1
 40 100 l 1,10,11
 78 100 78 100 93 117.5 c 128,-1,12
 108 135 108 135 108 186 c 2,13,-1
 108 417 l 1,14,-1
 22 417 l 1,15,-1
 22 507 l 1,16,-1
 584 507 l 1,17,-1
 584 417 l 1,0,-1
EndSplineSet
EndChar

StartChar: danda
Encoding: 2404 2404 293
Width: 311
GlyphClass: 2
Flags: W
LayerCount: 2
Fore
SplineSet
236 0 m 1,0,-1
 123 0 l 1,1,-1
 123 660 l 1,2,-1
 236 660 l 1,3,-1
 236 0 l 1,0,-1
EndSplineSet
EndChar

StartChar: doubledanda
Encoding: 2405 2405 294
Width: 569
GlyphClass: 2
Flags: W
LayerCount: 2
Fore
SplineSet
493 0 m 1,0,-1
 380 0 l 1,1,-1
 380 660 l 1,2,-1
 493 660 l 1,3,-1
 493 0 l 1,0,-1
236 0 m 1,4,-1
 123 0 l 1,5,-1
 123 660 l 1,6,-1
 236 660 l 1,7,-1
 236 0 l 1,4,-1
EndSplineSet
EndChar

StartChar: bnAnji
Encoding: 2432 2432 295
Width: 600
GlyphClass: 2
Flags: W
LayerCount: 2
Fore
SplineSet
285 320 m 1,0,-1
 285 212 l 1,1,2
 264 209 264 209 239 209 c 0,3,4
 141 209 141 209 87.5 264 c 128,-1,5
 34 319 34 319 34 410 c 0,6,7
 34 512 34 512 103.5 591 c 128,-1,8
 173 670 173 670 282 670 c 0,9,10
 357 670 357 670 404 625 c 128,-1,11
 451 580 451 580 451 502 c 2,12,-1
 451 182 l 2,13,14
 451 97 451 97 521 97 c 0,15,16
 537 97 537 97 557 99 c 1,17,-1
 557 -4 l 1,18,19
 521 -10 521 -10 492 -10 c 0,20,21
 419 -10 419 -10 377 37 c 128,-1,22
 335 84 335 84 335 164 c 2,23,-1
 335 502 l 2,24,25
 335 569 335 569 281 569 c 0,26,27
 226 569 226 569 188 522 c 128,-1,28
 150 475 150 475 150 410 c 0,29,30
 150 367 150 367 174 341.5 c 128,-1,31
 198 316 198 316 249 316 c 0,32,33
 270 316 270 316 285 320 c 1,0,-1
EndSplineSet
EndChar

